<?xml version="1.0" encoding="utf-8"?>
<!-- Generator: Adobe Illustrator 16.0.0, SVG Export Plug-In . SVG Version: 6.00 Build 0)  -->
<!DOCTYPE svg PUBLIC "-//W3C//DTD SVG 1.1//EN" "http://www.w3.org/Graphics/SVG/1.1/DTD/svg11.dtd">
<svg version="1.1" id="Layer_1" xmlns="http://www.w3.org/2000/svg" xmlns:xlink="http://www.w3.org/1999/xlink" x="0px" y="0px"
	 width="612px" height="570px" viewBox="0 111 612 570" enable-background="new 0 111 612 570" xml:space="preserve">
<g id="Layer_1_1_">
</g>
<g id="Layer_3" display="none">
</g>
<g id="Layer_5" display="none">
</g>
<g id="Layer_4">
	<g>
		<rect x="9.295" y="187.453" fill="#DEFFFE" width="592.259" height="57.981"/>
		<g>
			<circle fill="#04BFBF" cx="53.725" cy="205.711" r="5.977"/>
			<circle fill="#04BFBF" cx="96.658" cy="205.711" r="5.977"/>
			<circle fill="#04BFBF" cx="139.591" cy="205.711" r="5.977"/>
			<circle fill="#04BFBF" cx="560.138" cy="205.711" r="5.977"/>
		</g>
		<g>
			<g>
				<path fill="#004358" d="M580.922,159.652H31.078c-13.84,0-25.102,11.261-25.102,25.102v422.492
					c0,13.841,11.261,25.102,25.102,25.102h549.844c13.841,0,25.102-11.261,25.102-25.102V184.753
					C606.023,170.913,594.763,159.652,580.922,159.652z M580.922,620.395H31.078c-7.25,0-13.148-5.898-13.148-13.148V184.753
					c0-7.25,5.899-13.148,13.148-13.148h549.844c7.25,0,13.148,5.899,13.148,13.148v55.063H34.664c-3.301,0-5.977,2.675-5.977,5.977
					s2.675,5.977,5.977,5.977H594.07v355.475C594.07,614.496,588.172,620.395,580.922,620.395z"/>
			</g>
		</g>
	</g>
</g>
<path fill="#BEDB39" d="M447.764,406.879l-19.241-3.104c-2.302-7.379-5.279-14.558-8.882-21.421l11.416-15.809
	c3.663-5.072,3.11-11.964-1.313-16.388l-32.264-32.265c-4.424-4.424-11.317-4.975-16.389-1.315l-15.81,11.418
	c-6.863-3.604-14.041-6.581-21.421-8.884l-3.104-19.242c-0.997-6.176-6.262-10.659-12.518-10.659H282.61
	c-6.256,0-11.521,4.482-12.517,10.66l-3.104,19.241c-7.38,2.303-14.558,5.28-21.42,8.884l-15.809-11.418
	c-5.073-3.662-11.965-3.11-16.389,1.315l-32.266,32.266c-4.424,4.424-4.976,11.316-1.313,16.389l11.416,15.808
	c-3.604,6.863-6.58,14.041-8.883,21.421l-19.241,3.104c-6.176,0.997-10.658,6.261-10.658,12.519v45.63
	c0,6.256,4.482,11.521,10.66,12.519l19.241,3.104c2.304,7.381,5.28,14.559,8.884,21.422l-11.417,15.809
	c-3.663,5.072-3.11,11.965,1.313,16.389l32.265,32.265c4.424,4.424,11.317,4.978,16.389,1.315l15.809-11.418
	c6.863,3.603,14.042,6.578,21.42,8.883l3.104,19.242c0.997,6.177,6.261,10.659,12.517,10.659h45.628
	c6.256,0,11.521-4.482,12.518-10.66l3.104-19.241c7.38-2.305,14.558-5.28,21.421-8.883l15.81,11.418
	c5.074,3.662,11.965,3.109,16.389-1.315l32.265-32.265c4.424-4.424,4.977-11.316,1.314-16.39l-11.417-15.808
	c3.604-6.863,6.58-14.041,8.884-21.422l19.241-3.104c6.176-0.997,10.658-6.262,10.658-12.519v-45.63
	C458.424,413.14,453.941,407.875,447.764,406.879z M305.424,497.766c-30.632,0-55.555-24.922-55.555-55.555
	s24.921-55.555,55.555-55.555c30.633,0,55.555,24.922,55.555,55.555S336.057,497.766,305.424,497.766z"/>
<ellipse fill="#04BFBF" cx="305.424" cy="439.823" rx="43.603" ry="43.603"/>
</svg>
