<?xml version="1.0" encoding="utf-8"?>
<!-- Generator: Adobe Illustrator 16.0.0, SVG Export Plug-In . SVG Version: 6.00 Build 0)  -->
<!DOCTYPE svg PUBLIC "-//W3C//DTD SVG 1.1//EN" "http://www.w3.org/Graphics/SVG/1.1/DTD/svg11.dtd">
<svg version="1.1" id="Layer_1" xmlns="http://www.w3.org/2000/svg" xmlns:xlink="http://www.w3.org/1999/xlink" x="0px" y="0px"
	 width="612px" height="570px" viewBox="0 0 612 570" enable-background="new 0 0 612 570" xml:space="preserve">
<g id="Layer_1_1_">
</g>
<g id="Layer_3" display="none">
</g>
<g id="Layer_5" display="none">
</g>
<g transform="translate(0 -1028.4)">
	<path fill="#BDC3C7" d="M144.427,1180.281c-19.604,0-35.499,15.972-35.499,35.497v248.489c0,19.518,15.894,35.5,35.499,35.5
		h106.496h35.499h106.495c19.62,0,35.498-15.982,35.498-35.5v-248.489c0-19.525-15.878-35.497-35.498-35.497H286.421h-35.499
		H144.427z"/>
	<path fill="#ECF0F1" d="M144.427,1162.532c-19.604,0-35.499,15.894-35.499,35.499v248.489c0,19.621,15.894,35.498,35.499,35.498
		h106.496h35.499h106.495c19.62,0,35.498-15.877,35.498-35.498V1198.03c0-19.604-15.878-35.499-35.498-35.499H286.421h-35.499
		H144.427z"/>
	<path fill="#48A8D8" d="M144.427,1162.532c-19.604,0-35.499,15.894-35.499,35.499v53.247v17.75h319.486v-17.75v-53.247
		c0-19.604-15.878-35.499-35.498-35.499H286.421h-35.499H144.427z"/>
	<path fill="#466BD9" d="M188.799,1206.904c0,14.708-11.916,26.625-26.624,26.625c-14.707,0-26.623-11.917-26.623-26.625
		c0-14.706,11.916-26.623,26.623-26.623C176.883,1180.281,188.799,1192.198,188.799,1206.904z"/>
	<path fill="#BDC3C7" d="M162.176,1127.033c-9.802,0-17.749,7.947-17.749,17.749v53.248c0,9.802,7.947,17.748,17.749,17.748
		c9.802,0,17.75-7.946,17.75-17.748v-53.248C179.925,1134.981,171.978,1127.033,162.176,1127.033z"/>
	<path fill="#466BD9" d="M401.79,1206.904c0,14.708-11.925,26.625-26.624,26.625c-14.698,0-26.623-11.917-26.623-26.625
		c0-14.706,11.925-26.623,26.623-26.623C389.865,1180.281,401.79,1192.198,401.79,1206.904z"/>
	<g>
		<path fill="#BDC3C7" d="M375.166,1127.033c-9.793,0-17.748,7.098-17.748,17.749v53.248c0,8.874,7.955,17.748,17.748,17.748
			s17.75-8.874,17.75-17.748v-53.248C392.916,1134.131,384.959,1127.033,375.166,1127.033z"/>
		<path fill="#BDC3C7" d="M144.427,1304.526v35.5h35.499v-35.5H144.427z M197.674,1304.526v35.5h35.499v-35.5H197.674z
			 M250.922,1304.526v35.5h35.499v-35.5H250.922z M304.169,1304.526v35.5h35.498v-35.5H304.169z M357.418,1304.526v35.5h35.498
			v-35.5H357.418z"/>
		<path fill="#BDC3C7" d="M144.427,1357.773v35.498h35.499v-35.498H144.427z M197.674,1357.773v35.498h35.499v-35.498H197.674z
			 M250.922,1357.773v35.498h35.499v-35.498H250.922z M304.169,1357.773v35.498h35.498v-35.498H304.169z M357.418,1357.773v35.498
			h35.498v-35.498H357.418z"/>
		<path fill="#BDC3C7" d="M144.427,1411.019v35.5h35.499v-35.5H144.427z M197.674,1411.019v35.5h35.499v-35.5H197.674z
			 M250.922,1411.019v35.5h35.499v-35.5H250.922z M304.169,1411.019v35.5h35.498v-35.5H304.169z M357.418,1411.019v35.5h35.498
			v-35.5H357.418z"/>
	</g>
</g>
</svg>
