<?xml version="1.0" encoding="utf-8"?>
<!-- Generator: Adobe Illustrator 16.0.0, SVG Export Plug-In . SVG Version: 6.00 Build 0)  -->
<!DOCTYPE svg PUBLIC "-//W3C//DTD SVG 1.1//EN" "http://www.w3.org/Graphics/SVG/1.1/DTD/svg11.dtd">
<svg version="1.1" id="Layer_1" xmlns="http://www.w3.org/2000/svg" xmlns:xlink="http://www.w3.org/1999/xlink" x="0px" y="0px"
	 width="512px" height="512px" viewBox="0 0 512 512" enable-background="new 0 0 512 512" xml:space="preserve">
<title></title>
<desc></desc>
<g id="SVG">
	<g id="Cake">
		<g id="_x39_" transform="translate(0.000000, 50.000000)">
			<path id="Fill-1" fill="#FFFFFF" d="M39.528,259.96h431.704v106.46c0,17.704-14.343,32.052-32.04,32.052H71.568
				c-17.698,0-32.041-14.348-32.041-32.052V259.96L39.528,259.96z"/>
			<path id="Fill-3" fill="#EE64A4" d="M468.614,181.348H42.145c-17.698,0-32.041,11.686-32.041,26.102v48.818
				c0,18.102,18.008,32.773,40.226,32.773c22.218,0,40.226-14.672,40.226-32.773h1.569c0,18.102,18.008,32.773,40.226,32.773
				c22.218,0,40.226-14.672,40.226-32.773h1.563c0,18.102,18.014,32.773,40.232,32.773c22.211,0,40.226-14.672,40.226-32.773h1.563
				c0,18.102,18.015,32.773,40.226,32.773c22.218,0,40.232-14.672,40.232-32.773h1.563c0,18.102,18.008,32.773,40.227,32.773
				c22.218,0,40.226-14.672,40.226-32.773h1.569c0,18.102,18.008,32.773,40.226,32.773s40.226-14.672,40.226-32.773v-48.818
				C500.654,193.034,486.312,181.348,468.614,181.348"/>
			<polygon id="Fill-5" fill="#F8E6C4" points="233.762,181.069 277.559,181.069 277.559,111.911 233.762,111.911 			"/>
			<path id="Fill-7" fill="#FFF200" d="M277.459,70.83c0,12.043-9.762,21.808-21.801,21.808c-12.039,0-21.793-9.765-21.793-21.808
				s21.793-56.98,21.793-56.98S277.459,58.787,277.459,70.83"/>
			<path id="Fill-8" opacity="0.15" fill="#010202" enable-background="new    " d="M471.231,366.42v-78.607
				c16.963-3.855,29.427-16.498,29.427-31.539v-48.826c0-14.416-14.35-26.102-32.041-26.102H420.2v74.928
				c-1.119,128.133-102.178,142.198-102.178,142.198h121.169C456.889,398.472,471.231,384.123,471.231,366.42"/>
			<path id="Fill-9" fill="#2E2E30" d="M490.553,256.269c0,12.495-13.515,22.665-30.127,22.665
				c-16.606,0-30.114-10.17-30.114-22.665c0-5.58-4.527-10.108-10.105-10.108h-1.569c-5.578,0-10.105,4.528-10.105,10.108
				c0,12.495-13.514,22.665-30.12,22.665s-30.12-10.17-30.12-22.665c0-5.58-4.527-10.108-10.105-10.108h-1.569
				c-5.578,0-10.105,4.528-10.105,10.108c0,12.495-13.508,22.665-30.12,22.665c-16.607,0-30.121-10.17-30.121-22.665
				c0-5.58-4.527-10.108-10.105-10.108h-1.563c-5.585,0-10.105,4.528-10.105,10.108c0,12.495-13.514,22.665-30.127,22.665
				c-16.606,0-30.121-10.17-30.121-22.665c0-5.58-4.527-10.108-10.105-10.108h-1.563c-5.578,0-10.105,4.528-10.105,10.108
				c0,12.495-13.514,22.665-30.127,22.665c-16.606,0-30.121-10.17-30.121-22.665c0-5.58-4.521-10.108-10.105-10.108H90.56
				c-5.578,0-10.105,4.528-10.105,10.108c0,12.495-13.514,22.665-30.127,22.665c-16.606,0-30.114-10.17-30.114-22.665v-48.819
				c0-8.667,10.044-15.992,21.928-15.992H468.61c11.897,0,21.942,7.326,21.942,15.992V256.269z M461.126,299.123v67.299
				c0,12.097-9.843,21.943-21.935,21.943H71.568c-12.093,0-21.936-9.847-21.936-21.943v-67.299h-0.006
				c0.236,0,0.465,0.027,0.701,0.027c16.902,0,31.885-7.13,41.014-18.041c9.135,10.911,24.111,18.041,41.007,18.041
				s31.885-7.13,41.014-18.041c9.128,10.911,24.111,18.041,41.007,18.041c16.903,0,31.878-7.13,41.014-18.041
				c9.129,10.911,24.111,18.041,41.008,18.041c16.896,0,31.878-7.13,41.014-18.041c9.128,10.911,24.11,18.041,41.007,18.041
				c16.89,0,31.879-7.13,41.007-18.041c9.136,10.911,24.118,18.041,41.008,18.041C460.661,299.15,460.891,299.123,461.126,299.123
				L461.126,299.123L461.126,299.123z M243.87,170.957h23.585v-48.94H243.87V170.957z M243.964,70.825
				c0.014-4.043,5.181-17.819,11.695-32.78c6.515,14.954,11.682,28.729,11.695,32.78c0,6.449-5.248,11.706-11.695,11.706
				S243.964,77.274,243.964,70.825L243.964,70.825z M468.61,171.239H287.666v-59.332c0-5.58-4.527-10.109-10.105-10.109h-14.524
				c14.032-3.35,24.528-15.925,24.528-30.974c0-13.331-17.469-50.356-22.817-61.395c-1.69-3.484-5.222-5.694-9.088-5.694
				c-3.867,0-7.404,2.21-9.095,5.694c-5.349,11.039-22.811,48.064-22.811,61.395c0,15.048,10.496,27.624,24.529,30.974h-14.518
				c-5.578,0-10.105,4.529-10.105,10.109v59.332H42.142c-23.235,0-42.139,16.242-42.139,36.21v48.819
				c0,17.286,12.085,32.181,29.419,38.96v71.193c0,23.244,18.904,42.161,42.146,42.161h367.623
				c23.234,0,42.146-18.917,42.146-42.161v-71.193c17.334-6.779,29.426-21.674,29.426-38.96v-48.819
				C510.763,187.481,491.853,171.239,468.61,171.239L468.61,171.239z"/>
		</g>
	</g>
</g>
</svg>
