<?xml version="1.0" encoding="iso-8859-1"?>
<!-- Uploaded to: SVG Repo, www.svgrepo.com, Generator: SVG Repo Mixer Tools -->
<svg version="1.1" id="Layer_1" xmlns="http://www.w3.org/2000/svg" xmlns:xlink="http://www.w3.org/1999/xlink" 
	 viewBox="0 0 512 512" xml:space="preserve">
<path style="fill:#FA004B;" d="M348.29,157.295c25.428-35.895,22.065-85.936-10.088-118.088c-35.909-35.909-94.127-35.909-130.036,0
	l-19.788,19.788l-19.788-19.788c-35.909-35.909-94.127-35.909-130.036,0s-35.909,94.127,0,130.036l149.825,149.825l86.913-86.913"/>
<path style="fill:#36C9A3;" d="M474.699,167.709c-22.631-22.631-59.325-22.631-81.956,0l-12.471,12.471l-12.471-12.471
	c-22.631-22.631-59.325-22.631-81.956,0s-22.631,59.325,0,81.956l94.428,94.428l94.428-94.428
	C497.331,227.033,497.331,190.34,474.699,167.709z"/>
<path style="fill:#FFFFFF;" d="M332.106,104.056h-15.608c0-21.852-17.516-40.001-40.408-40.001V48.447
	C307.306,48.447,332.106,73.88,332.106,104.056z"/>
<path style="fill:#232323;" d="M499.477,208.687c0-17.565-6.84-34.077-19.26-46.498c-12.42-12.419-28.933-19.259-46.497-19.259
	c-17.565,0-34.077,6.84-46.498,19.259l-6.953,6.954l-6.954-6.954c-3.9-3.899-8.175-7.198-12.705-9.91
	c21.281-38.494,14.915-86.783-16.893-118.592c-38.895-38.893-102.178-38.893-141.073,0l-14.269,14.27l-14.269-14.27
	c-38.896-38.894-102.18-38.892-141.074,0c-38.893,38.895-38.893,102.179,0,141.073l147.324,147.323v15.059h15.608v-14.628
	l76.641-76.64c2.249,3.276,4.81,6.401,7.718,9.309l91.497,91.495v20.641h15.608v-19.348l92.788-92.787
	C492.638,242.764,499.477,226.251,499.477,208.687z M188.377,308.03L44.071,163.723c-32.808-32.807-32.808-86.19,0-118.998
	c32.809-32.808,86.192-32.808,118.999,0l25.307,25.305l25.307-25.305c32.808-32.808,86.19-32.808,118.998,0
	c27.152,27.151,32.342,68.536,13.621,101.183c-22.56-6.959-48.153-1.541-65.978,16.282c-18.656,18.656-23.721,45.823-15.226,69.117
	L188.377,308.03z M380.271,333.055l-88.909-88.908c-19.552-19.553-19.552-51.367-0.001-70.92
	c9.777-9.777,22.617-14.665,35.46-14.665c12.841,0,25.685,4.889,35.459,14.665l17.99,17.989l17.99-17.989
	c19.552-19.554,51.367-19.552,70.918,0h0.001c9.472,9.471,14.688,22.064,14.688,35.459c0,13.394-5.216,25.988-14.689,35.459
	L380.271,333.055z"/>
<rect x="363.499" y="360.035" style="fill:#36C9A3;" width="32.257" height="15.608"/>
<g>
	<path style="fill:#232323;" d="M388.076,512h-15.608v-19.989c0-10.915,8.881-19.797,19.797-19.797
		c6.719,0,12.185-5.466,12.185-12.185c0-6.719-5.466-12.185-12.185-12.185h-19.989c-13.12,0-23.795-10.674-23.795-23.795
		s10.674-23.796,23.795-23.796c0.106,0,0.193-0.085,0.193-0.191v-15.991h15.608v15.991c0,8.712-7.088,15.8-15.801,15.8
		c-4.514,0-8.186,3.672-8.186,8.187c0,4.514,3.672,8.186,8.186,8.186h19.989c15.325,0,27.793,12.468,27.793,27.793
		c0,15.325-12.468,27.793-27.793,27.793c-2.31,0-4.188,1.879-4.188,4.188V512z"/>
	<path style="fill:#232323;" d="M236.158,512H220.55v-29.566c0-10.255-8.343-18.599-18.598-18.599h-21.571
		c-17.53,0-31.791-14.261-31.791-31.791s14.261-31.791,31.791-31.791h15.991c4.515,0,8.187-3.672,8.187-8.187
		c0-4.514-3.672-8.186-8.187-8.186c-8.712,0-15.8-7.088-15.8-15.801v-15.99h15.608v15.99c0,0.106,0.085,0.193,0.191,0.193
		c13.12,0,23.796,10.674,23.796,23.795c0,13.12-10.675,23.796-23.796,23.796h-15.991c-8.923,0-16.183,7.26-16.183,16.183
		s7.26,16.183,16.183,16.183h21.571c18.861,0,34.206,15.345,34.206,34.207V512z"/>
</g>
<path style="fill:#FFFFFF;" d="M468.031,208.113h-15.608c0-9.365-7.763-16.128-16.087-16.128v-15.608
	C454.025,176.377,468.031,190.423,468.031,208.113z"/>
<rect x="21.151" y="255.979" style="fill:#FA004B;" width="15.608" height="24.974"/>
<rect x="107.521" y="464.091" style="fill:#36C9A3;" width="15.608" height="23.933"/>
<g>
	<rect x="308.35" y="472.416" style="fill:#FAEDD6;" width="15.608" height="23.933"/>
	<rect x="235.51" y="327.778" style="fill:#FAEDD6;" width="15.608" height="24.974"/>
</g>
<rect x="413.447" y="72.839" style="fill:#36C9A3;" width="15.608" height="23.933"/>
<rect x="100.237" y="319.453" style="fill:#232323;" width="15.608" height="17.69"/>
<rect x="45.087" y="208.113" style="fill:#FAEDD6;" width="15.608" height="16.649"/>
<rect x="261.524" y="295.52" style="fill:#232323;" width="15.608" height="16.649"/>
<rect x="333.323" y="360.035" style="fill:#36C9A3;" width="15.608" height="15.608"/>
<rect x="460.272" y="352.751" style="fill:#FA004B;" width="15.608" height="14.568"/>
<rect x="428.014" y="383.968" style="fill:#232323;" width="15.608" height="15.608"/>
<rect x="35.722" y="423.509" style="fill:#FAEDD6;" width="15.608" height="16.649"/>
<rect x="52.371" y="440.158" style="fill:#FA004B;" width="15.608" height="15.608"/>
<g>
	<rect x="371.824" y="8.325" style="fill:#FAEDD6;" width="15.608" height="15.608"/>
	<rect x="476.921" y="120.705" style="fill:#FAEDD6;" width="15.608" height="15.608"/>
</g>
<path style="fill:#36C9A3;" d="M51.437,387.561l-13.96-6.981l9.545-19.09c2.726-5.454,2.319-11.992-1.062-17.065
	c-6.482-9.722-7.262-22.253-2.037-32.706l9.546-19.091l13.96,6.981l-9.545,19.09c-2.726,5.454-2.319,11.994,1.062,17.065
	c6.482,9.723,7.262,22.255,2.036,32.707L51.437,387.561z"/>
<path style="fill:#FA004B;" d="M283.308,443.53l-13.96-6.981l9.545-19.09c2.726-5.453,2.319-11.992-1.062-17.067
	c-6.482-9.721-7.262-22.252-2.035-32.704l9.545-19.09l13.96,6.981l-9.545,19.09c-2.726,5.453-2.319,11.991,1.062,17.065
	c6.482,9.724,7.262,22.256,2.035,32.706L283.308,443.53z"/>
<path style="fill:#FAEDD6;" d="M467.207,491.504l-13.96-6.981l9.545-19.09c2.726-5.453,2.319-11.992-1.062-17.066
	c-6.482-9.723-7.262-22.255-2.035-32.705l9.545-19.09l13.96,6.981l-9.545,19.09c-2.726,5.453-2.319,11.991,1.062,17.065
	c6.482,9.723,7.262,22.256,2.036,32.706L467.207,491.504z"/>
<path style="fill:#FA004B;" d="M459.213,115.711l-13.96-6.981l9.545-19.09c2.726-5.454,2.319-11.993-1.062-17.065
	c-6.482-9.723-7.262-22.255-2.036-32.706l9.545-19.091l13.96,6.981l-9.545,19.09c-2.726,5.454-2.319,11.992,1.062,17.066
	c6.482,9.722,7.262,22.253,2.036,32.706L459.213,115.711z"/>
<rect x="492.529" style="fill:#232323;" width="15.608" height="15.608"/>
<rect x="172.036" y="328.818" style="fill:#FA004B;" width="32.257" height="15.608"/>
</svg>