<?xml version="1.0" encoding="utf-8"?>
<!-- Generator: Adobe Illustrator 16.0.0, SVG Export Plug-In . SVG Version: 6.00 Build 0)  -->
<!DOCTYPE svg PUBLIC "-//W3C//DTD SVG 1.1//EN" "http://www.w3.org/Graphics/SVG/1.1/DTD/svg11.dtd">
<svg version="1.1" id="Layer_1" xmlns="http://www.w3.org/2000/svg" xmlns:xlink="http://www.w3.org/1999/xlink" x="0px" y="0px"
	 width="612px" height="792px" viewBox="0 0 612 792" enable-background="new 0 0 612 792" xml:space="preserve">
<g id="Layer_1_1_">
</g>
<g id="Layer_2">
</g>
<g id="Layer_3">
</g>
<g id="Layer_4">
</g>
<g id="Layer_5">
</g>
<g id="Layer_6">
</g>
<g id="Layer_7">
</g>
<g id="Layer_8">
</g>
<g id="Layer_9">
</g>
<g id="Layer_10">
</g>
<g id="Layer_11">
</g>
<g id="Layer_12">
</g>
<g id="Layer_13">
</g>
<g id="Layer_14">
</g>
<g id="Layer_15">
</g>
<g id="Layer_16">
</g>
<g id="Layer_17">
</g>
<g id="Layer_18">
</g>
<g id="Layer_19">
</g>
<g id="Layer_20">
</g>
<g id="Layer_21">
</g>
<g id="Layer_22">
</g>
<g id="Layer_23">
</g>
<g id="Layer_24">
</g>
<g id="Layer_25">
</g>
<g id="Layer_26">
</g>
<g id="Layer_27">
</g>
<g id="Layer_28">
</g>
<g id="Layer_29">
</g>
<g id="Layer_30">
</g>
<g id="Layer_31">
</g>
<g id="Layer_32">
</g>
<g id="Layer_33">
</g>
<g id="Layer_34">
</g>
<g id="Layer_35">
</g>
<g id="Layer_36">
</g>
<g id="Layer_37">
</g>
<g id="Layer_38">
</g>
<g id="Layer_39">
</g>
<g id="Layer_40">
</g>
<g id="Layer_41">
</g>
<g id="Layer_42">
</g>
<g id="Layer_43">
</g>
<g id="Layer_44">
</g>
<g id="Layer_45">
</g>
<g id="Layer_46">
</g>
<g id="Layer_47">
</g>
<g id="Layer_48">
</g>
<g id="Layer_49">
</g>
<g id="Layer_50">
	<g>
		<g>
			<path fill="#FFAA00" d="M124.251,246.666c-4.952,0-8.965-4.013-8.965-8.965v-48.995c0-4.952,4.013-8.965,8.965-8.965
				s8.965,4.013,8.965,8.965v48.995C133.216,242.653,129.204,246.666,124.251,246.666z"/>
		</g>
		<g>
			<path fill="#FFAA00" d="M306,246.666c-4.952,0-8.965-4.013-8.965-8.965v-48.995c0-4.952,4.013-8.965,8.965-8.965
				s8.965,4.013,8.965,8.965v48.995C314.965,242.653,310.952,246.666,306,246.666z"/>
		</g>
		<g>
			<path fill="#FFAA00" d="M485.627,246.666c-4.952,0-8.965-4.013-8.965-8.965v-48.995c0-4.952,4.013-8.965,8.965-8.965
				s8.965,4.013,8.965,8.965v48.995C494.592,242.653,490.579,246.666,485.627,246.666z"/>
		</g>
		<path fill="#FFFFFF" d="M579.572,672.013H40.15c-3.3,0-5.977-2.676-5.977-5.977V399.308c0-3.3,2.676-5.977,5.977-5.977h539.423
			c3.301,0,5.977,2.676,5.977,5.977v266.729C585.549,669.338,582.874,672.013,579.572,672.013z"/>
		<path fill="#DDD8D3" d="M579.573,393.331h-23.906c3.301,0,5.977,2.676,5.977,5.977v266.729c0,3.302-2.676,5.977-5.977,5.977
			h23.906c3.301,0,5.977-2.675,5.977-5.977V399.308C585.55,396.007,582.874,393.331,579.573,393.331z"/>
		<path fill="#FF0C00" d="M585.549,513.857c-27.254,12.267-64.521-56.102-112.539-47.594c-33.475,5.932-38.594,42.565-66.529,42.116
			c-32.786-0.526-42.797-56.683-71.158-55.335c-28.361,1.349-31.997,58.149-74.419,67.931c-23.304,5.373-44.837-6.55-48.815-8.753
			c-36.065-19.972-37.983-61.592-53.751-60.492c-14.82,1.035-14,36.309-42.607,55.232c-15.921,10.533-34.072,11.446-47.172,10.489
			c-5.148-0.146-25.999-1.318-42.139-17.508c-10.784-10.818-17.454-25.764-17.454-42.271v-64.351c0-3.3,2.676-5.977,5.977-5.977
			h582.115c3.3,0,5.977,2.677,5.977,5.977v64.351C603.199,496.995,594.37,509.888,585.549,513.857z"/>
		<rect x="34.174" y="562.956" fill="#F40E03" width="551.376" height="50.32"/>
		<g>
			<path fill="#E83826" d="M134.431,451.731c-14.82,1.034-14,36.308-42.608,55.231c-9.23,6.106-19.204,8.968-28.513,10.117
				c2.331,0.261,4.15,0.341,5.249,0.372c13.1,0.957,31.25,0.044,47.172-10.489c19.162-12.675,25.121-32.672,31.421-44.816
				C143.272,455.606,139.593,451.37,134.431,451.731z"/>
			<path fill="#E83826" d="M311.416,453.046c-28.361,1.349-31.998,58.148-74.419,67.932c-0.261,0.06-0.52,0.105-0.779,0.162
				c7.42,1.434,15.927,1.857,24.686-0.162c36.327-8.376,44.215-51.227,63.539-64.215
				C320.493,454.243,316.219,452.818,311.416,453.046z"/>
			<path fill="#E83826" d="M597.057,387.346H573.15c3.3,0,5.977,2.677,5.977,5.977v64.351c0.143,33.719-6.33,47.996-13.739,53.885
				c7.243,3.7,13.962,5.09,20.161,2.3c8.821-3.969,17.65-16.862,17.484-56.184v-64.352
				C603.033,390.021,600.357,387.346,597.057,387.346z"/>
			<path fill="#E83826" d="M449.105,466.264c-27.808,4.929-36.06,31.024-54.066,39.467c3.505,1.621,7.29,2.583,11.442,2.649
				c26.956,0.433,32.678-33.649,63.117-41.372C462.997,465.435,456.168,465.013,449.105,466.264z"/>
		</g>
		<rect x="561.643" y="562.956" fill="#E83826" width="23.906" height="50.322"/>
		<path fill="#49537F" d="M321.805,233.33h-31.613c-3.3,0-5.977,2.676-5.977,5.977v148.039h43.566V239.307
			C327.781,236.006,325.105,233.33,321.805,233.33z"/>
		<path fill="#21316D" d="M321.805,233.33h-11.953c3.3,0,5.977,2.676,5.977,5.977v148.039h11.953V239.307
			C327.781,236.006,325.105,233.33,321.805,233.33z"/>
		<path fill="#49537F" d="M501.432,233.33h-31.613c-3.3,0-5.977,2.676-5.977,5.977v148.039h43.566V239.307
			C507.408,236.006,504.732,233.33,501.432,233.33z"/>
		<path fill="#49537F" d="M142.178,233.33h-31.611c-3.3,0-5.977,2.676-5.977,5.977v148.039h43.565V239.307
			C148.154,236.006,145.479,233.33,142.178,233.33z"/>
		<path fill="#21316D" d="M501.432,233.33h-11.953c3.3,0,5.977,2.676,5.977,5.977v148.039h11.953V239.307
			C507.408,236.006,504.732,233.33,501.432,233.33z"/>
		<path fill="#21316D" d="M142.178,233.33h-11.953c3.3,0,5.977,2.676,5.977,5.977v148.039h11.953V239.307
			C148.154,236.006,145.479,233.33,142.178,233.33z"/>
		<path fill="#FFE000" d="M152.669,157.369c-0.43-2.55-4.216-21.195-24.955-36.262c-2.055-1.493-4.871-1.493-6.926,0
			c-20.739,15.067-24.524,33.712-24.955,36.262c-0.031,0.182-0.052,0.361-0.068,0.545c-2.558,30.135,23.641,34.063,27.903,34.501
			c0.389,0.04,0.773,0.04,1.162,0c4.263-0.438,30.463-4.368,27.904-34.501C152.72,157.729,152.699,157.551,152.669,157.369z"/>
		<path fill="#FFE000" d="M334.416,157.369c-0.43-2.55-4.216-21.195-24.954-36.262c-2.055-1.493-4.871-1.493-6.926,0
			c-20.739,15.067-24.524,33.712-24.955,36.262c-0.031,0.182-0.053,0.361-0.068,0.545c-2.558,30.135,23.641,34.063,27.904,34.501
			c0.388,0.04,0.773,0.04,1.161,0c4.263-0.438,30.463-4.368,27.903-34.501C334.469,157.729,334.447,157.551,334.416,157.369z"/>
		<path fill="#FFE000" d="M514.043,157.369c-0.431-2.55-4.216-21.195-24.954-36.262c-2.056-1.493-4.871-1.493-6.926,0
			c-20.739,15.067-24.524,33.712-24.955,36.262c-0.031,0.182-0.053,0.361-0.068,0.545c-2.558,30.135,23.642,34.063,27.903,34.501
			c0.389,0.04,0.773,0.04,1.162,0c4.263-0.438,30.463-4.368,27.904-34.501C514.096,157.729,514.074,157.551,514.043,157.369z"/>
		<path fill="#FFAA00" d="M152.736,157.913c-0.016-0.184-0.037-0.362-0.068-0.545c-0.43-2.549-4.216-21.195-24.954-36.262
			c-2.055-1.493-4.871-1.493-6.927,0c-0.871,0.634-1.701,1.274-2.514,1.917c18.526,14.689,22.028,31.902,22.441,34.345
			c0.031,0.182,0.051,0.361,0.068,0.545c2,23.561-13.579,31.102-22.509,33.48c2.491,0.664,4.466,0.926,5.396,1.022
			c0.388,0.04,0.773,0.04,1.162,0C129.095,191.976,155.294,188.048,152.736,157.913z"/>
		<path fill="#FFAA00" d="M334.484,157.913c-0.016-0.184-0.037-0.362-0.068-0.545c-0.43-2.549-4.216-21.195-24.954-36.262
			c-2.055-1.493-4.871-1.493-6.926,0c-0.872,0.634-1.701,1.274-2.514,1.917c18.526,14.689,22.028,31.902,22.44,34.345
			c0.031,0.182,0.053,0.361,0.068,0.545c2,23.561-13.579,31.102-22.509,33.48c2.491,0.664,4.466,0.926,5.396,1.022
			c0.389,0.04,0.773,0.04,1.162,0C310.842,191.976,337.042,188.048,334.484,157.913z"/>
		<path fill="#FFAA00" d="M514.111,157.913c-0.016-0.184-0.037-0.362-0.068-0.545c-0.431-2.549-4.216-21.195-24.955-36.262
			c-2.055-1.493-4.87-1.493-6.925,0c-0.872,0.634-1.701,1.274-2.514,1.917c18.525,14.689,22.028,31.902,22.44,34.345
			c0.031,0.182,0.053,0.361,0.068,0.545c1.999,23.561-13.579,31.102-22.509,33.48c2.49,0.664,4.465,0.926,5.396,1.022
			c0.389,0.04,0.773,0.04,1.161,0C490.469,191.976,516.669,188.048,514.111,157.913z"/>
	</g>
	<g>
		<g>
			<path d="M579.565,681.608H40.144c-8.239,0-14.941-6.702-14.941-14.941v-159.61c0-4.952,4.013-8.965,8.965-8.965
				s8.965,4.013,8.965,8.965v156.622h533.444V514.491c0-4.952,4.012-8.965,8.965-8.965c4.952,0,8.965,4.013,8.965,8.965v152.176
				C594.507,674.906,587.804,681.608,579.565,681.608z"/>
		</g>
		<g>
			<path d="M248.448,531.962c-17.32,0-32.323-6.624-40.708-11.269c-22.317-12.357-32.68-31.708-40.248-45.839
				c-2.773-5.179-6.541-12.211-8.642-13.5c-1.833,1.049-5.079,8.153-7.239,12.886c-5.621,12.31-13.318,29.167-30.943,40.826
				c-14.235,9.417-31.92,13.447-52.576,11.968c-8.849-0.28-30.782-2.833-48.03-20.136C7.121,493.918-0.007,476.657-0.007,458.3
				v-64.351c0-8.239,6.702-14.941,14.941-14.941h582.115c8.239,0,14.941,6.702,14.941,14.941V458.3
				c0.154,36.329-7.296,57.396-22.77,64.36l0,0c-17.489,7.87-34.885-5.713-53.303-20.09c-18.458-14.409-39.381-30.748-61.351-26.853
				c-13.686,2.425-21.713,11.247-30.21,20.587c-9.363,10.292-19.961,22.001-38.027,21.666
				c-21.274-0.342-33.932-17.744-45.099-33.097c-8.48-11.659-16.464-22.698-25.488-22.246c-7.919,0.377-13.873,9.073-22.737,23.351
				c-10.592,17.061-23.776,38.293-50.092,44.361C257.979,531.478,253.128,531.961,248.448,531.962z M159.081,443.368
				c11.89,0,17.884,11.195,24.219,23.023c6.877,12.841,15.434,28.82,33.126,38.617c14.302,7.92,29.773,10.784,42.458,7.86
				c19.048-4.392,29.133-20.637,38.888-36.347c9.446-15.217,19.216-30.952,37.118-31.802c18.687-0.887,30.446,15.315,40.842,29.609
				c9.544,13.123,18.561,25.519,30.887,25.717c0.123,0.003,0.245,0.004,0.367,0.004c9.272,0,14.954-5.743,24.111-15.81
				c9.194-10.104,20.639-22.682,40.345-26.174c29.833-5.285,55.161,14.486,75.513,30.373c14.034,10.955,27.287,21.294,34.91,17.874
				l0,0c3.721-1.675,12.36-9.703,12.198-47.973V396.94H17.924v61.362c0,13.579,5.27,26.343,14.838,35.941
				c12.828,12.868,29.48,14.69,36.045,14.875c0.132,0.004,0.267,0.011,0.399,0.021c16.678,1.217,30.677-1.816,41.572-9.023
				c13.34-8.825,19.282-21.84,24.524-33.32c5.057-11.078,10.287-22.533,22.404-23.378
				C158.173,443.385,158.631,443.368,159.081,443.368z"/>
		</g>
		<g>
			<path d="M585.543,622.87H34.167c-4.952,0-8.965-4.013-8.965-8.965v-50.32c0-4.952,4.013-8.965,8.965-8.965h551.375
				c4.952,0,8.965,4.013,8.965,8.965v50.32C594.508,618.856,590.494,622.87,585.543,622.87z M43.132,604.94h533.445V572.55H43.132
				V604.94z"/>
		</g>
		<g>
			<path d="M321.799,396.938h-31.613c-8.239,0-14.941-6.702-14.941-14.941V239.934c0-8.239,6.702-14.941,14.941-14.941h31.613
				c8.239,0,14.941,6.702,14.941,14.941v142.063C336.74,390.236,330.038,396.938,321.799,396.938z M293.174,379.009h25.636V242.922
				h-25.636V379.009z M321.799,242.923h0.012H321.799z"/>
		</g>
		<g>
			<path d="M501.425,396.938h-31.61c-8.24,0-14.941-6.702-14.941-14.941V239.934c0-8.239,6.701-14.941,14.941-14.941h31.61
				c8.239,0,14.941,6.702,14.941,14.941v142.063C516.366,390.236,509.663,396.938,501.425,396.938z M472.801,379.009h25.635V242.922
				h-25.635V379.009L472.801,379.009z M501.425,242.923h0.013H501.425z"/>
		</g>
		<g>
			<path d="M142.172,396.938h-31.611c-8.239,0-14.941-6.702-14.941-14.941V239.934c0-8.239,6.702-14.941,14.941-14.941h31.611
				c8.239,0,14.941,6.702,14.941,14.941v142.063C157.113,390.236,150.41,396.938,142.172,396.938z M113.549,379.009h25.635V242.922
				h-25.635V379.009z M142.172,242.923h0.012H142.172z"/>
		</g>
		<g>
			<path d="M124.244,236.938c-4.952,0-8.965-4.013-8.965-8.965v-28.285c0-4.952,4.013-8.965,8.965-8.965
				c4.953,0,8.965,4.013,8.965,8.965v28.285C133.209,232.925,129.195,236.938,124.244,236.938z"/>
		</g>
		<g>
			<path d="M124.243,202.037c-0.499,0-0.996-0.025-1.489-0.075c-14.615-1.505-38.617-12.5-35.926-44.179
				c0.032-0.411,0.085-0.831,0.156-1.261c0.687-4.067,5.271-25.144,28.529-42.04c5.22-3.795,12.24-3.795,17.462-0.001
				c23.246,16.89,27.841,37.969,28.526,42.022c0.001,0.006,0.002,0.013,0.004,0.019c0.071,0.429,0.124,0.85,0.159,1.284
				c2.688,31.654-21.313,42.651-35.92,44.155C125.245,202.012,124.743,202.037,124.243,202.037z M104.687,159.383
				c-1.642,19.967,12.851,23.937,19.559,24.706c6.7-0.766,21.212-4.734,19.559-24.705c-0.378-2.117-3.474-16.501-19.561-29.038
				C108.145,142.894,105.06,157.276,104.687,159.383z M143.797,159.301c0,0.002,0,0.003,0,0.006
				C143.797,159.303,143.797,159.303,143.797,159.301z M104.694,159.277c0,0.003,0,0.007-0.001,0.011
				C104.694,159.284,104.694,159.28,104.694,159.277z"/>
		</g>
		<g>
			<path d="M305.993,236.938c-4.952,0-8.965-4.013-8.965-8.965v-28.285c0-4.952,4.013-8.965,8.965-8.965s8.965,4.013,8.965,8.965
				v28.285C314.958,232.925,310.943,236.938,305.993,236.938z"/>
		</g>
		<g>
			<path d="M305.99,202.037c-0.498,0-0.995-0.025-1.489-0.075c-14.614-1.505-38.616-12.502-35.926-44.178
				c0.041-0.468,0.093-0.888,0.167-1.317c0.676-4.013,5.262-25.089,28.518-41.985c5.224-3.795,12.242-3.794,17.464-0.001
				c23.214,16.866,27.824,37.893,28.521,42.003c0.072,0.423,0.124,0.838,0.162,1.267c2.692,31.709-21.31,42.707-35.915,44.211
				C306.993,202.012,306.491,202.037,305.99,202.037z M286.43,159.397c-1.66,19.949,12.85,23.923,19.561,24.691
				c6.699-0.766,21.208-4.732,19.561-24.692c-0.364-2.063-3.427-16.478-19.561-29.051
				C289.857,142.919,286.794,157.339,286.43,159.397z M325.574,159.52c0,0.002,0,0.003,0.001,0.006
				C325.574,159.523,325.574,159.522,325.574,159.52z M286.419,159.468c-0.001,0.006-0.002,0.012-0.003,0.018
				C286.417,159.481,286.418,159.475,286.419,159.468z"/>
		</g>
		<g>
			<path d="M485.619,236.938c-4.952,0-8.965-4.013-8.965-8.965v-28.285c0-4.952,4.013-8.965,8.965-8.965
				c4.953,0,8.965,4.013,8.965,8.965v28.285C494.584,232.925,490.572,236.938,485.619,236.938z"/>
		</g>
		<g>
			<path d="M485.617,202.037c-0.498,0-0.996-0.025-1.489-0.075c-14.614-1.505-38.616-12.5-35.927-44.178
				c0.039-0.449,0.089-0.851,0.157-1.262c0.688-4.072,5.283-25.152,28.528-42.04c5.226-3.798,12.243-3.793,17.465,0
				c23.256,16.896,27.841,37.973,28.523,42.024c0.001,0.005,0.003,0.011,0.004,0.016c0.071,0.429,0.124,0.85,0.159,1.284
				c2.688,31.654-21.314,42.651-35.921,44.155C486.619,202.012,486.117,202.037,485.617,202.037z M466.06,159.386
				c-1.666,19.96,12.846,23.934,19.56,24.703c6.701-0.766,21.215-4.732,19.56-24.706c-0.374-2.105-3.457-16.49-19.56-29.037
				C469.528,142.885,466.436,157.271,466.06,159.386z M505.172,159.301c0,0.002,0,0.003,0,0.006
				C505.172,159.303,505.172,159.303,505.172,159.301z"/>
		</g>
	</g>
</g>
</svg>
