<?xml version="1.0" encoding="iso-8859-1"?>
<!-- Uploaded to: SVG Repo, www.svgrepo.com, Generator: SVG Repo Mixer Tools -->
<svg height="800px" width="800px" version="1.1" id="Layer_1" xmlns="http://www.w3.org/2000/svg" xmlns:xlink="http://www.w3.org/1999/xlink" 
	 viewBox="0 0 512 512" xml:space="preserve">
<path style="fill:#E7C05C;" d="M379.878,62.898l0.022,276.4c1.906-0.773,123.853-50.944,123.853-152.526
	C503.752,118.361,448.289,62.898,379.878,62.898z"/>
<path style="fill:#FFD875;" d="M379.878,62.898c50.366,0,91.204,55.463,91.204,123.874c0,101.582-89.788,151.753-91.182,152.526
	c-0.022,0.011-123.896-43.495-123.896-152.526C256.003,118.361,311.455,62.898,379.878,62.898z"/>
<polygon style="fill:#E7C05C;" points="379.874,339.309 356.46,385.047 403.287,385.047 "/>
<path style="fill:#0DCD9B;" d="M132.126,62.895l0.022,276.4C134.053,338.523,256,288.352,256,186.77
	C256,118.358,200.537,62.895,132.126,62.895z"/>
<path style="fill:#12F8BC;" d="M132.126,62.895c50.366,0,91.204,55.463,91.204,123.874c0,101.582-89.788,151.753-91.182,152.526
	C132.126,339.307,8.251,295.801,8.251,186.77C8.251,118.358,63.704,62.895,132.126,62.895z"/>
<polygon style="fill:#0DCD9B;" points="132.122,339.307 108.708,385.045 155.535,385.045 "/>
<g>
	<polygon style="fill:#D23ACB;" points="256,302.283 232.585,348.02 279.413,348.021 	"/>
	<path style="fill:#D23ACB;" d="M256.003,8.251l0.022,294.02c2.026-0.828,131.748-54.2,131.748-162.251
		C387.773,67.243,328.771,8.251,256.003,8.251z"/>
</g>
<path style="fill:#F95FF2;" d="M256.003,8.251c54.723,0,99.099,58.991,99.099,131.77c0,108.051-97.553,161.423-99.078,162.251
	c-0.022,0.011-131.791-46.261-131.791-162.251C124.234,67.243,183.225,8.251,256.003,8.251z"/>
<circle style="fill:#E7C05C;" cx="24.503" cy="389.406" r="16.335"/>
<circle style="fill:#12F8BC;" cx="193.974" cy="438.412" r="16.335"/>
<circle style="fill:#F95FF2;" cx="69.936" cy="487.417" r="16.335"/>
<circle style="fill:#0DCD9B;" cx="442.06" cy="487.417" r="16.335"/>
<circle style="fill:#FFD875;" cx="317.848" cy="438.412" r="16.335"/>
<circle style="fill:#D23ACB;" cx="487.493" cy="389.406" r="16.335"/>
<path d="M267.188,306.216c12.074-5.734,35.858-18.26,59.868-37.905c45.062-36.868,68.881-81.231,68.881-128.29
	C395.937,62.86,333.161,0.084,256,0.084S116.063,62.86,116.063,140.021c0,50.01,23.855,95.319,68.984,131.03
	c23.775,18.814,47.331,30.234,59.597,35.49l-19.329,37.757c-1.296,2.532-1.182,5.556,0.303,7.982
	c1.483,2.427,4.123,3.906,6.967,3.906h15.246v147.561c0,4.511,3.657,8.168,8.168,8.168c4.512,0,8.168-3.657,8.168-8.168v-147.56
	h15.245c2.843,0,5.484-1.48,6.967-3.906s1.599-5.45,0.302-7.982L267.188,306.216z M132.398,140.021
	c0-68.154,55.448-123.602,123.602-123.602s123.602,55.448,123.602,123.602c0,42.477-21.048,81.295-62.561,115.378
	c-26.13,21.454-52.641,34.211-61.236,38.066c-8.612-3.428-34.994-14.857-60.989-35.515
	C153.398,225.035,132.398,185.358,132.398,140.021z M245.942,339.852l10.057-19.646l10.057,19.646H245.942z"/>
<path d="M143.308,343.228c10.771-5.149,30.829-15.759,51.662-32.071c3.552-2.781,4.176-7.915,1.396-11.466
	c-2.781-3.551-7.915-4.176-11.466-1.396c-22.878,17.913-45.219,28.704-52.975,32.195c-8.201-3.269-32.49-13.836-56.669-32.967
	c-39.042-30.894-58.838-68.156-58.838-110.754c0-55.924,39.863-103.791,94.787-113.817c4.438-0.81,7.378-5.064,6.568-9.502
	c-0.809-4.438-5.062-7.378-9.502-6.568C45.584,68.326,0.084,122.952,0.084,186.77c0,47.168,22.489,89.896,65.036,123.563
	c22.081,17.472,43.967,28.178,55.656,33.221l-19.335,37.771c-1.296,2.532-1.182,5.556,0.303,7.982
	c1.484,2.426,4.124,3.906,6.967,3.906h15.079v110.534c0,4.511,3.657,8.168,8.168,8.168c4.511,0,8.168-3.657,8.168-8.168V393.214
	h15.413c2.844,0,5.484-1.48,6.967-3.906c1.484-2.426,1.599-5.45,0.303-7.982L143.308,343.228z M122.068,376.88l10.057-19.647
	l10.057,19.647L122.068,376.88L122.068,376.88z"/>
<path d="M391.056,343.23c11.509-5.496,33.611-17.221,55.926-35.48c42.48-34.756,64.933-76.591,64.933-120.982
	c0-63.818-45.499-118.442-108.187-129.887c-4.432-0.813-8.691,2.13-9.502,6.568c-0.81,4.438,2.13,8.691,6.568,9.502
	c54.923,10.026,94.785,57.894,94.785,113.817c0,39.772-19.72,76.131-58.614,108.071c-24.347,19.994-49.053,31.943-57.291,35.651
	c-8.086-3.226-31.809-13.547-55.645-32.17c-3.555-2.777-8.686-2.148-11.464,1.407c-2.777,3.555-2.147,8.688,1.408,11.465
	c21.704,16.958,43.06,27.397,54.553,32.36l-19.336,37.772c-1.296,2.532-1.182,5.556,0.302,7.982
	c1.483,2.427,4.123,3.906,6.967,3.906h15.079l-0.001,110.534c0,4.511,3.656,8.168,8.168,8.168c4.511,0,8.168-3.657,8.168-8.168
	l0.001-110.534h15.413c2.844,0,5.484-1.48,6.967-3.906s1.599-5.45,0.302-7.982L391.056,343.23z M369.816,376.88l10.057-19.647
	l10.057,19.647L369.816,376.88L369.816,376.88z"/>
<path d="M24.503,364.9C10.991,364.9,0,375.892,0,389.403c0,13.511,10.991,24.503,24.503,24.503s24.503-10.991,24.503-24.503
	C49.005,375.892,38.014,364.9,24.503,364.9z M24.503,397.571c-4.504,0-8.168-3.663-8.168-8.168c0-4.504,3.663-8.168,8.168-8.168
	s8.168,3.663,8.168,8.168C32.67,393.907,29.007,397.571,24.503,397.571z"/>
<path d="M193.979,413.906c-13.511,0-24.503,10.991-24.503,24.503c0,13.511,10.991,24.503,24.503,24.503
	c13.511,0,24.503-10.991,24.503-24.503C218.482,424.897,207.489,413.906,193.979,413.906z M193.979,446.576
	c-4.504,0-8.168-3.663-8.168-8.168c0-4.504,3.663-8.168,8.168-8.168c4.504,0,8.168,3.663,8.168,8.168
	C202.147,442.912,198.482,446.576,193.979,446.576z"/>
<path d="M69.937,462.911c-13.511,0-24.503,10.991-24.503,24.503c0,13.511,10.991,24.503,24.503,24.503s24.503-10.991,24.503-24.503
	C94.44,473.902,83.447,462.911,69.937,462.911z M69.937,495.581c-4.504,0-8.168-3.663-8.168-8.168c0-4.504,3.663-8.168,8.168-8.168
	s8.168,3.663,8.168,8.168C78.105,491.918,74.44,495.581,69.937,495.581z"/>
<path d="M442.062,462.911c-13.51,0-24.503,10.991-24.503,24.503c0,13.511,10.992,24.503,24.503,24.503
	c13.51,0,24.503-10.991,24.503-24.503C466.565,473.902,455.572,462.911,442.062,462.911z M442.062,495.581
	c-4.504,0-8.168-3.663-8.168-8.168c0-4.504,3.663-8.168,8.168-8.168c4.504,0,8.168,3.663,8.168,8.168
	C450.229,491.918,446.566,495.581,442.062,495.581z"/>
<path d="M317.853,413.906c-13.51,0-24.503,10.991-24.503,24.503c0,13.511,10.992,24.503,24.503,24.503s24.503-10.991,24.503-24.503
	C342.356,424.897,331.363,413.906,317.853,413.906z M317.853,446.576c-4.504,0-8.168-3.663-8.168-8.168
	c0-4.504,3.663-8.168,8.168-8.168s8.168,3.663,8.168,8.168C326.021,442.912,322.356,446.576,317.853,446.576z"/>
<path d="M487.497,364.9c-13.51,0-24.503,10.991-24.503,24.503c0,13.511,10.992,24.503,24.503,24.503S512,402.914,512,389.403
	C512,375.892,501.008,364.9,487.497,364.9z M487.497,397.571c-4.504,0-8.168-3.663-8.168-8.168c0-4.504,3.663-8.168,8.168-8.168
	s8.168,3.663,8.168,8.168C495.665,393.907,492.002,397.571,487.497,397.571z"/>
</svg>