<?xml version="1.0" encoding="utf-8"?>
<!-- Generator: Adobe Illustrator 16.0.0, SVG Export Plug-In . SVG Version: 6.00 Build 0)  -->
<!DOCTYPE svg PUBLIC "-//W3C//DTD SVG 1.1//EN" "http://www.w3.org/Graphics/SVG/1.1/DTD/svg11.dtd">
<svg version="1.1" id="Layer_1" xmlns="http://www.w3.org/2000/svg" xmlns:xlink="http://www.w3.org/1999/xlink" x="0px" y="0px"
	 width="612px" height="792px" viewBox="0 0 612 792" enable-background="new 0 0 612 792" xml:space="preserve">
<g id="Layer_1_1_">
</g>
<g id="Layer_3" display="none">
</g>
<g id="Layer_5" display="none">
</g>
<g id="Layer_4">
	<g>
		<path fill="#DEFFFE" d="M572.865,407.927L549.946,550.88H325.321l-6.435,23.34v34.819h253.979V574.22l27.597-157.413
			C600.461,416.807,585.494,401.234,572.865,407.927z"/>
		<g>
			<g>
				<path fill="#466BD9" d="M358.878,338.414v13.111c0,4.86,2.704,9.224,7.057,11.386c1.808,0.9,3.748,1.343,5.676,1.343
					c2.71,0,5.397-0.875,7.662-2.59l23.313-17.646h148.829c13.842,0,25.102-11.261,25.102-25.102V202.842
					c0-13.84-11.26-25.102-25.102-25.102H374.667c-13.842,0-25.102,11.261-25.102,25.102v116.074
					C349.565,326.613,352.991,333.678,358.878,338.414z"/>
				<path fill="#466BD9" d="M601.543,408.268c-2.954-3.434-7.248-5.404-11.779-5.404H353.507c-7.747,0-14.209,5.56-15.365,13.221
					l-23.261,154.042h-23.956l-1.009-5.303c-2.155-11.052-6.218-21.338-11.801-30.552c42.08-35.117,33.77-64.211,24.989-94.957
					c-3.457-12.104-6.978-24.479-8.129-38.23c2.736-7.223,4.243-15.043,4.243-23.213v-18.346c1.38-7.014,2.142-14.563,2.241-22.478
					c0.042-3.3-2.6-6.009-5.901-6.051c-0.025,0-0.051,0-0.076,0c-1.615,0-3.081,0.646-4.159,1.691
					c-0.778-1.174-1.606-2.317-2.491-3.418c-2.065-2.573-5.827-2.986-8.402-0.922c-2.575,2.065-2.988,5.827-0.922,8.402
					c5.074,6.326,7.756,13.965,7.756,22.089c0,18.739-14.666,34.111-33.12,35.258v-56.524c0-3.302-2.676-5.977-5.977-5.977
					c-3.3,0-5.977,2.675-5.977,5.977v68.14c0,8.98-1.447,17.625-4.093,25.735c-1.525,0.13-3.064,0.212-4.623,0.212h-23.621
					c-3.3,0-5.977,2.675-5.977,5.977c0,3.301,2.676,5.977,5.977,5.977h23.166c-13.812,26.874-41.807,45.313-74.044,45.313
					c-45.885,0-83.215-37.329-83.215-83.214v-77.606c0-3.302-2.676-5.977-5.977-5.977s-5.977,2.675-5.977,5.977v65.989
					c-18.456-1.147-33.121-16.518-33.121-35.258c0-8.93,3.36-17.46,9.462-24.023c2.248-2.416,2.111-6.199-0.307-8.446
					c-2.416-2.246-6.199-2.111-8.446,0.309c-1.745,1.876-3.313,3.881-4.714,5.979c-1.082-1.075-2.57-1.739-4.211-1.739
					c-0.024,0-0.049,0-0.073,0c-3.3,0.04-5.944,2.748-5.903,6.049c0.095,7.983,0.864,15.603,2.263,22.675
					c0.102,6.064,1.345,11.854,3.533,17.161c3.468,24.273-2.069,43.713-7.438,62.512c-8.782,30.746-17.091,59.84,24.993,94.959
					c-5.585,9.22-9.652,19.515-11.809,30.576l-8.164,42.893c-0.333,1.749,0.131,3.557,1.267,4.928
					c1.136,1.372,2.824,2.165,4.604,2.165h50.925v-26.584c0-3.302,2.676-5.977,5.977-5.977s5.977,2.675,5.977,5.977v26.584h477.231
					c8.568,0,15.539-6.971,15.539-15.539c0-3.301-2.677-5.977-5.977-5.977c-3.301,0-5.977,2.676-5.977,5.977
					c0,1.978-1.609,3.586-3.586,3.586H325.998v-10.402c0-3.302-2.677-5.977-5.977-5.977c-3.301,0-5.977,2.675-5.977,5.977v10.402
					h-93.432c-1.977,0-3.586-1.608-3.586-3.586v-13.632c0-1.978,1.609-3.586,3.586-3.586h355.008c2.955,0,5.468-2.161,5.909-5.085
					l23.598-156.271C605.805,416.242,604.498,411.703,601.543,408.268z M254.135,406.069c10.877-0.502,20.792-4.711,28.543-11.372
					c0.036,1.484,0.096,2.953,0.183,4.404c-5.917,13.712-17.361,24.496-31.53,29.498
					C253.123,421.374,254.106,413.834,254.135,406.069z M246.829,442.245c15.57-3.225,29.132-11.98,38.56-24.103
					c1.728,8.673,4.028,16.773,6.221,24.454c8.584,30.053,14.875,52.108-20.357,81.83c-16.02-20.106-40.012-33.297-66.66-35.233
					C223.467,478.833,238.473,462.266,246.829,442.245z M46.705,524.429c-35.235-29.723-28.945-51.779-20.36-81.833
					c4.053-14.193,8.492-29.789,8.93-47.877c7.753,6.652,17.671,10.849,28.544,11.351c0.133,35.799,20.135,66.993,49.525,83.126
					C86.705,491.136,62.72,504.324,46.705,524.429z M593.309,418.938l-22.83,151.187H326.968l22.992-152.259
					c0.267-1.769,1.759-3.051,3.547-3.051h236.257c1.432,0,2.317,0.781,2.718,1.248S593.522,417.521,593.309,418.938z"/>
			</g>
			<g>
				<g>
					<g>
						<path fill="#E6BA2C" d="M529.013,244.315H397.068c-3.3,0-5.977-2.675-5.977-5.977s2.677-5.977,5.977-5.977h131.943
							c3.301,0,5.977,2.675,5.977,5.977S532.313,244.315,529.013,244.315z"/>
					</g>
					<g>
						<path fill="#E6BA2C" d="M469.256,289.398h-72.188c-3.3,0-5.977-2.675-5.977-5.977s2.677-5.977,5.977-5.977h72.188
							c3.3,0,5.977,2.675,5.977,5.977S472.556,289.398,469.256,289.398z"/>
					</g>
					<g>
						<path fill="#E6BA2C" d="M529.013,289.398H505.4c-3.3,0-5.977-2.675-5.977-5.977s2.677-5.977,5.977-5.977h23.612
							c3.301,0,5.977,2.675,5.977,5.977S532.313,289.398,529.013,289.398z"/>
					</g>
				</g>
				<g>
					<path fill="#04BFBF" d="M459.674,517.307c-6.78,0-12.765-2.685-16.846-7.56c-4.086-4.882-5.739-11.563-4.532-18.328
						c2.381-13.337,14.729-23.785,28.11-23.785c6.782,0,12.765,2.685,16.846,7.558c4.087,4.882,5.739,11.563,4.532,18.328v0.001
						C485.404,506.858,473.057,517.307,459.674,517.307z M466.407,479.587c-7.51,0-14.994,6.381-16.342,13.934
						c-0.593,3.321,0.092,6.359,1.929,8.553c1.771,2.115,4.498,3.28,7.682,3.28c7.511,0,14.995-6.381,16.342-13.935
						c0.593-3.321-0.092-6.358-1.929-8.553C472.318,480.751,469.589,479.587,466.407,479.587z M481.901,492.47h0.012H481.901z"/>
				</g>
			</g>
			<g>
				<path fill="#04BFBF" d="M195.199,458.268h-9.354c-11.377,0-20.632-9.256-20.632-20.633s9.255-20.632,20.632-20.632h9.354
					c11.377,0,20.632,9.255,20.632,20.632S206.576,458.268,195.199,458.268z M185.845,428.956c-4.785,0-8.679,3.893-8.679,8.679
					s3.893,8.68,8.679,8.68h9.354c4.786,0,8.679-3.894,8.679-8.68s-3.893-8.679-8.679-8.679H185.845z"/>
			</g>
			<g>
				<path fill="#E6BA2C" d="M158.977,557.857c-29.458,0-55.329-19.862-62.913-48.303c-0.85-3.189,1.046-6.463,4.234-7.314
					c3.194-0.847,6.464,1.045,7.315,4.235c6.192,23.215,27.313,39.429,51.364,39.429s45.173-16.214,51.364-39.429
					c0.85-3.189,4.119-5.086,7.315-4.235c3.189,0.852,5.085,4.125,4.234,7.314C214.305,537.995,188.435,557.857,158.977,557.857z"/>
			</g>
			<path fill="#E6BA2C" d="M266.17,233.331c-18.281-22.832-51.718-50.05-107.193-50.05c-55.488,0-88.928,27.228-107.209,50.07
				c-21.312,26.626-34.144,62.123-35.208,97.386c-0.049,1.601,0.552,3.154,1.66,4.312c1.108,1.157,2.638,1.82,4.24,1.844
				c0.963,0.014,23.872,0.293,47.718-2.809c26.931-3.502,44.433-9.731,53.035-18.931c22.007,23.425,61.142,29.705,96.816,29.703
				c36.728-0.001,69.784-6.663,76.646-8.139c2.821-0.607,4.806-3.141,4.718-6.025C300.318,295.435,287.48,259.948,266.17,233.331z"
				/>
		</g>
	</g>
</g>
</svg>
