<?xml version="1.0" encoding="utf-8"?>
<!-- Generator: Adobe Illustrator 16.0.0, SVG Export Plug-In . SVG Version: 6.00 Build 0)  -->
<!DOCTYPE svg PUBLIC "-//W3C//DTD SVG 1.1//EN" "http://www.w3.org/Graphics/SVG/1.1/DTD/svg11.dtd">
<svg version="1.1" id="Layer_1" xmlns="http://www.w3.org/2000/svg" xmlns:xlink="http://www.w3.org/1999/xlink" x="0px" y="0px"
	 width="612px" height="570px" viewBox="0 0 612 570" enable-background="new 0 0 612 570" xml:space="preserve">
<g id="Layer_1_1_">
</g>
<g id="Layer_3" display="none">
</g>
<g id="Layer_5" display="none">
</g>
<g id="Layer_4">
	<g>
		<path fill="#DEFFFE" d="M573.137,288.375l-22.918,142.953H325.594l-6.438,23.34v34.819h253.98v-34.819l27.596-157.413
			C600.732,297.255,585.766,281.683,573.137,288.375z"/>
		<g>
			<g>
				<path fill="#466BD9" d="M359.15,218.862v13.111c0,4.859,2.703,9.224,7.057,11.386c1.809,0.899,3.748,1.343,5.678,1.343
					c2.709,0,5.395-0.875,7.662-2.59l23.313-17.646h148.828c13.842,0,25.102-11.261,25.102-25.102V83.29
					c0-13.84-11.26-25.102-25.102-25.102H374.939c-13.842,0-25.102,11.261-25.102,25.102v116.074
					C349.838,207.062,353.264,214.126,359.15,218.862z"/>
				<path fill="#466BD9" d="M601.814,288.716c-2.953-3.434-7.248-5.402-11.779-5.402H353.779c-7.748,0-14.209,5.56-15.365,13.221
					l-23.262,154.042h-23.956l-1.009-5.303c-2.155-11.052-6.218-21.338-11.801-30.552c42.08-35.117,33.769-64.212,24.989-94.957
					c-3.457-12.104-6.979-24.479-8.129-38.23c2.736-7.223,4.243-15.043,4.243-23.213v-18.346c1.38-7.014,2.144-14.563,2.241-22.479
					c0.042-3.3-2.6-6.009-5.901-6.051c-0.025,0-0.051,0-0.076,0c-1.615,0-3.081,0.646-4.159,1.691
					c-0.778-1.174-1.606-2.317-2.491-3.418c-2.065-2.573-5.827-2.986-8.402-0.922c-2.575,2.064-2.988,5.826-0.922,8.401
					c5.074,6.326,7.756,13.965,7.756,22.089c0,18.739-14.666,34.111-33.12,35.258v-56.523c0-3.303-2.676-5.977-5.977-5.977
					c-3.3,0-5.977,2.674-5.977,5.977v68.14c0,8.979-1.447,17.625-4.093,25.735c-1.525,0.13-3.064,0.212-4.623,0.212h-23.621
					c-3.3,0-5.977,2.675-5.977,5.977c0,3.303,2.676,5.979,5.977,5.979h23.166c-13.812,26.874-41.807,45.313-74.044,45.313
					c-45.885,0-83.215-37.329-83.215-83.214v-77.605c0-3.303-2.676-5.978-5.977-5.978c-3.301,0-5.977,2.675-5.977,5.978v65.988
					c-18.456-1.146-33.121-16.518-33.121-35.258c0-8.93,3.36-17.46,9.462-24.023c2.248-2.416,2.111-6.198-0.307-8.445
					c-2.416-2.246-6.199-2.111-8.446,0.309c-1.745,1.877-3.313,3.881-4.714,5.979c-1.082-1.075-2.57-1.739-4.211-1.739
					c-0.024,0-0.049,0-0.073,0c-3.3,0.04-5.944,2.748-5.903,6.049c0.095,7.983,0.864,15.604,2.263,22.676
					c0.102,6.063,1.345,11.854,3.533,17.16c3.468,24.273-2.069,43.713-7.438,62.514c-8.782,30.744-17.091,59.84,24.993,94.959
					c-5.585,9.22-9.652,19.515-11.809,30.574l-8.164,42.895c-0.333,1.749,0.131,3.557,1.267,4.928
					c1.136,1.372,2.824,2.165,4.604,2.165h50.925v-26.584c0-3.302,2.676-5.977,5.977-5.977c3.301,0,5.977,2.675,5.977,5.977v26.584
					h477.23c8.568,0,15.539-6.971,15.539-15.539c0-3.301-2.678-5.977-5.977-5.977c-3.301,0-5.977,2.676-5.977,5.977
					c0,1.979-1.609,3.586-3.588,3.586H326.27v-10.4c0-3.304-2.676-5.979-5.977-5.979c-3.303,0-5.979,2.675-5.979,5.979v10.4h-93.432
					c-1.977,0-3.586-1.606-3.586-3.586v-13.632c0-1.979,1.609-3.586,3.586-3.586h355.01c2.955,0,5.467-2.161,5.908-5.085
					l23.598-156.271C606.076,296.69,604.77,292.151,601.814,288.716z M254.407,286.517c10.877-0.502,20.792-4.711,28.543-11.373
					c0.036,1.484,0.096,2.955,0.183,4.406c-5.917,13.711-17.361,24.494-31.53,29.496
					C253.395,301.822,254.378,294.282,254.407,286.517z M247.101,322.693c15.57-3.227,29.132-11.98,38.56-24.103
					c1.728,8.673,4.028,16.771,6.221,24.452c8.584,30.055,14.876,52.108-20.357,81.83c-16.02-20.104-40.012-33.297-66.66-35.231
					C223.739,359.281,238.745,342.714,247.101,322.693z M46.977,404.877c-35.235-29.723-28.945-51.777-20.36-81.833
					c4.053-14.191,8.492-29.789,8.93-47.877c7.753,6.652,17.671,10.85,28.544,11.352c0.133,35.8,20.135,66.993,49.525,83.127
					C86.977,371.584,62.992,384.772,46.977,404.877z M593.58,299.386l-22.83,151.188H327.24l22.992-152.259
					c0.266-1.77,1.758-3.053,3.547-3.053h236.256c1.434,0,2.318,0.781,2.721,1.248C593.154,296.978,593.793,297.97,593.58,299.386z"
					/>
			</g>
			<g>
				<g>
					<g>
						<path fill="#E6BA2C" d="M529.285,124.763H397.34c-3.301,0-5.979-2.675-5.979-5.977s2.678-5.978,5.979-5.978h131.941
							c3.303,0,5.979,2.676,5.979,5.978S532.584,124.763,529.285,124.763z"/>
					</g>
					<g>
						<path fill="#E6BA2C" d="M469.527,169.847H397.34c-3.301,0-5.979-2.676-5.979-5.978s2.678-5.978,5.979-5.978h72.188
							c3.301,0,5.979,2.676,5.979,5.978S472.828,169.847,469.527,169.847z"/>
					</g>
					<g>
						<path fill="#E6BA2C" d="M529.285,169.847h-23.613c-3.301,0-5.979-2.676-5.979-5.978s2.678-5.978,5.979-5.978h23.611
							c3.301,0,5.979,2.676,5.979,5.978S532.584,169.847,529.285,169.847z"/>
					</g>
				</g>
				<g>
					<path fill="#04BFBF" d="M459.945,397.755c-6.779,0-12.764-2.685-16.846-7.56c-4.086-4.882-5.738-11.563-4.531-18.328
						c2.381-13.337,14.729-23.785,28.109-23.785c6.783,0,12.766,2.687,16.846,7.56c4.088,4.882,5.74,11.563,4.533,18.327v0.002
						C485.676,387.307,473.328,397.755,459.945,397.755z M466.68,360.035c-7.51,0-14.994,6.381-16.342,13.934
						c-0.596,3.321,0.092,6.359,1.928,8.555c1.771,2.115,4.498,3.279,7.682,3.279c7.512,0,14.996-6.382,16.342-13.936
						c0.596-3.321-0.092-6.358-1.928-8.553C472.59,361.199,469.861,360.035,466.68,360.035z M482.174,372.918h0.012H482.174z"/>
				</g>
			</g>
			<g>
				<path fill="#04BFBF" d="M195.471,338.716h-9.354c-11.377,0-20.632-9.256-20.632-20.633s9.255-20.632,20.632-20.632h9.354
					c11.377,0,20.632,9.255,20.632,20.632S206.848,338.716,195.471,338.716z M186.117,309.404c-4.785,0-8.679,3.893-8.679,8.679
					s3.893,8.682,8.679,8.682h9.354c4.786,0,8.679-3.896,8.679-8.682s-3.893-8.679-8.679-8.679H186.117z"/>
			</g>
			<g>
				<path fill="#E6BA2C" d="M159.249,438.306c-29.458,0-55.329-19.862-62.913-48.305c-0.85-3.188,1.046-6.463,4.234-7.313
					c3.194-0.849,6.464,1.045,7.315,4.233c6.192,23.217,27.313,39.431,51.364,39.431c24.051,0,45.173-16.214,51.364-39.431
					c0.85-3.188,4.119-5.086,7.315-4.233c3.189,0.852,5.085,4.125,4.234,7.313C214.577,418.443,188.707,438.306,159.249,438.306z"/>
			</g>
			<path fill="#E6BA2C" d="M266.442,113.779c-18.281-22.832-51.718-50.05-107.193-50.05c-55.488,0-88.928,27.228-107.209,50.069
				c-21.312,26.626-34.144,62.124-35.208,97.386c-0.049,1.602,0.552,3.154,1.66,4.313c1.108,1.157,2.638,1.82,4.24,1.844
				c0.963,0.015,23.872,0.293,47.718-2.809c26.931-3.502,44.433-9.73,53.035-18.932c22.007,23.426,61.142,29.705,96.816,29.703
				c36.728,0,69.784-6.662,76.646-8.139c2.821-0.607,4.808-3.141,4.718-6.025C300.59,175.884,287.752,140.396,266.442,113.779z"/>
		</g>
	</g>
</g>
</svg>
