<?xml version="1.0" encoding="utf-8"?>
<!-- Generator: Adobe Illustrator 16.0.0, SVG Export Plug-In . SVG Version: 6.00 Build 0)  -->
<!DOCTYPE svg PUBLIC "-//W3C//DTD SVG 1.1//EN" "http://www.w3.org/Graphics/SVG/1.1/DTD/svg11.dtd">
<svg version="1.1" id="Layer_1" xmlns="http://www.w3.org/2000/svg" xmlns:xlink="http://www.w3.org/1999/xlink" x="0px" y="0px"
	 width="571px" height="483px" viewBox="0 0 571 483" enable-background="new 0 0 571 483" xml:space="preserve">
<rect x="49.518" y="76.398" fill="#E0E0D1" width="428.677" height="322.152"/>
<g>
	<g id="Icon-Envelope" transform="translate(78.000000, 232.000000)">
		<path id="Fill-3" fill="#087233" d="M409.633-125.176l-18.168-18.17L223.164,24.955c-21.037,21.037-56.418,21.037-77.456,0
			l-168.3-167.344l-18.169,18.168L84.508,1.048L-40.76,126.316l18.168,18.17L102.677,19.216l24.862,24.863
			c15.3,15.299,35.381,23.903,56.419,23.903c21.037,0,41.119-8.604,56.419-23.903l24.861-24.863l125.27,125.271l18.168-18.17
			L283.408,1.048L409.633-125.176"/>
		<path id="Fill-4" fill="#087233" d="M374.252,176.998H-3.466c-21.994,0-40.163-18.168-40.163-40.162v-269.663
			c0-21.994,18.169-40.162,40.163-40.162h377.718c21.994,0,40.162,18.168,40.162,40.162v269.663
			C414.414,158.83,396.246,176.998,374.252,176.998L374.252,176.998z M-4.422-147.17c-7.65,0-13.388,5.736-13.388,13.388V135.88
			c0,7.649,5.738,13.39,13.388,13.39h377.717c7.65,0,13.389-5.734,13.389-13.39v-269.662c0-7.649-5.733-13.388-13.389-13.388H-4.422
			L-4.422-147.17z"/>
	</g>
</g>
<g transform="translate(0 -1028.4)">
	<path fill="#087233" d="M562,1330.632c0,95.431-82.821,172.768-184.997,172.768C274.824,1503.4,192,1426.065,192,1330.632
		c0-95.416,82.824-172.771,185.003-172.771C479.179,1157.868,562,1235.216,562,1330.632z"/>
	<path fill="#19994C" d="M562,1313.361c0,95.426-82.821,172.767-184.997,172.767c-102.179,0-185.003-77.339-185.003-172.767
		c0-95.426,82.824-172.771,185.003-172.771C479.179,1140.591,562,1217.935,562,1313.361z"/>
	<path fill="#27AE60" d="M450.997,1261.529l-110.999,103.657l-46.256-43.193l-39.31,36.272l46.257,43.197l36.994,34.554l2.313,1.739
		l150.308-139.942L450.997,1261.529z"/>
	<path fill="#E0E0D1" d="M450.997,1244.246l-110.999,103.665l-46.256-43.19l-39.31,36.271l46.257,43.2l36.994,34.548l2.313,1.738
		l150.308-139.94L450.997,1244.246z"/>
</g>
</svg>
