<?xml version="1.0" encoding="utf-8"?>
<!-- Generator: Adobe Illustrator 16.0.0, SVG Export Plug-In . SVG Version: 6.00 Build 0)  -->
<!DOCTYPE svg PUBLIC "-//W3C//DTD SVG 1.1//EN" "http://www.w3.org/Graphics/SVG/1.1/DTD/svg11.dtd">
<svg version="1.1" id="Layer_1" xmlns="http://www.w3.org/2000/svg" xmlns:xlink="http://www.w3.org/1999/xlink" x="0px" y="0px"
	 width="571px" height="483px" viewBox="0 0 571 483" enable-background="new 0 0 571 483" xml:space="preserve">
<g>
	<g>
		<g id="Icon-Envelope" transform="translate(78.000000, 232.000000)">
			<path id="Fill-3" fill="#134563" d="M405.252-132.82l-18.168-18.17L218.783,17.311c-21.037,21.039-56.418,21.039-77.456,0
				l-168.3-167.344l-18.169,18.168L80.127-6.595L-45.141,118.674l18.168,18.17L98.296,11.574l24.862,24.861
				c15.3,15.301,35.381,23.905,56.419,23.905c21.037,0,41.119-8.604,56.419-23.905l24.861-24.861l125.27,125.27l18.168-18.17
				L279.027-6.595L405.252-132.82"/>
			<path id="Fill-4" fill="#134563" d="M369.871,169.355H-7.847c-21.994,0-40.163-18.17-40.163-40.164V-140.47
				c0-21.994,18.169-40.162,40.163-40.162h377.718c21.994,0,40.162,18.168,40.162,40.162v269.661
				C410.033,151.186,391.865,169.355,369.871,169.355L369.871,169.355z M-8.803-154.814c-7.65,0-13.388,5.736-13.388,13.388v269.662
				c0,7.65,5.738,13.388,13.388,13.388h377.717c7.65,0,13.389-5.735,13.389-13.388v-269.662c0-7.649-5.735-13.388-13.389-13.388
				H-8.803L-8.803-154.814z"/>
		</g>
	</g>
	<g id="Layer_1_1_">
		<g>
			<circle fill="#E0E0D1" cx="440.5" cy="341.517" r="112.501"/>
		</g>
		<g opacity="0.2">
			<path fill="#231F20" d="M440.5,285.265c34.893,0,63.284,28.393,63.284,63.282c0,34.891-28.392,63.281-63.284,63.281
				c-34.89,0-63.28-28.391-63.28-63.281C377.22,313.657,405.609,285.265,440.5,285.265z M440.5,271.203
				c-42.713,0-77.342,34.629-77.342,77.344c0,42.716,34.629,77.347,77.342,77.347c42.717,0,77.346-34.631,77.346-77.347
				C517.846,305.832,483.216,271.203,440.5,271.203L440.5,271.203z"/>
		</g>
		<g>
			<path fill="#134563" d="M440.5,278.235c34.893,0,63.284,28.387,63.284,63.28c0,34.891-28.392,63.28-63.284,63.28
				c-34.89,0-63.28-28.39-63.28-63.28C377.22,306.622,405.609,278.235,440.5,278.235 M440.5,264.171
				c-42.713,0-77.342,34.632-77.342,77.345c0,42.717,34.629,77.346,77.342,77.346c42.717,0,77.346-34.629,77.346-77.346
				C517.845,298.803,483.216,264.171,440.5,264.171L440.5,264.171z"/>
		</g>
		<g opacity="0.2">
			<g>
				<path fill="#231F20" d="M468.625,383.702c-1.797,0-3.595-0.688-4.97-2.058l-30.185-30.184v-31.039
					c0-3.881,3.148-7.032,7.027-7.032c3.881,0,7.032,3.151,7.032,7.032v25.21l26.066,26.068c2.747,2.747,2.747,7.196,0,9.944
					C472.224,383.015,470.426,383.702,468.625,383.702z"/>
			</g>
		</g>
		<g>
			<path fill="#4F5D73" d="M468.625,376.67c-1.797,0-3.595-0.685-4.97-2.058l-30.185-30.183v-31.043c0-3.879,3.148-7.03,7.027-7.03
				c3.881,0,7.032,3.151,7.032,7.03v25.21l26.066,26.07c2.747,2.745,2.747,7.194,0,9.945
				C472.224,375.985,470.426,376.67,468.625,376.67z"/>
		</g>
	</g>
	<g id="Layer_2">
	</g>
</g>
</svg>
