<?xml version="1.0" encoding="utf-8"?>
<!-- Generator: Adobe Illustrator 16.0.0, SVG Export Plug-In . SVG Version: 6.00 Build 0)  -->
<!DOCTYPE svg PUBLIC "-//W3C//DTD SVG 1.1//EN" "http://www.w3.org/Graphics/SVG/1.1/DTD/svg11.dtd">
<svg version="1.1" id="Layer_1" xmlns="http://www.w3.org/2000/svg" xmlns:xlink="http://www.w3.org/1999/xlink" x="0px" y="0px"
	 width="612px" height="570px" viewBox="0 0 612 570" enable-background="new 0 0 612 570" xml:space="preserve">
<g id="Layer_1_1_">
</g>
<g id="Layer_3" display="none">
</g>
<g id="Layer_5" display="none">
</g>
<g>
	<path fill="#DEFFFE" d="M439.366,280.914v76.293c0,10.563-8.563,19.125-19.125,19.125H259.217v32.637h187.479
		c13.841,0,25.102-11.26,25.102-25.102V280.913L439.366,280.914L439.366,280.914z"/>
	<g>
		<path fill="#04BFBF" d="M528.409,382.412h-104.13c-3.303,0-5.979-2.676-5.979-5.979c0-3.302,2.677-5.978,5.979-5.978h104.13
			c9.505,0,17.237-7.733,17.237-17.238s-7.732-17.239-17.237-17.239h-85.657c-3.3,0-5.977-2.674-5.977-5.977
			c0-3.301,2.677-5.979,5.977-5.979h85.657c16.097,0,29.188,13.098,29.188,29.191C557.6,369.316,544.506,382.412,528.409,382.412z"
			/>
	</g>
	<g>
		<path fill="#04BFBF" d="M528.409,480.033h-19.163c-16.096,0-29.19-13.099-29.19-29.191c0-16.097,13.099-29.189,29.19-29.189
			h19.163c16.097,0,29.188,13.096,29.188,29.189C557.6,466.938,544.506,480.033,528.409,480.033z M509.246,433.605
			c-9.505,0-17.237,7.731-17.237,17.236s7.732,17.239,17.237,17.239h19.163c9.505,0,17.237-7.734,17.237-17.239
			s-7.732-17.236-17.237-17.236H509.246z"/>
	</g>
	<g>
		<path fill="#04BFBF" d="M411.155,480.033H334.24c-16.099,0-29.19-13.099-29.19-29.191c0-16.097,13.097-29.189,29.19-29.189h76.915
			c16.096,0,29.188,13.096,29.188,29.189C440.346,466.938,427.25,480.033,411.155,480.033z M334.239,433.605
			c-9.505,0-17.237,7.731-17.237,17.236s7.732,17.239,17.237,17.239h76.915c9.505,0,17.234-7.734,17.234-17.239
			s-7.729-17.236-17.234-17.236H334.239z"/>
	</g>
	<g>
		<g id="Icon-Envelope" transform="translate(78.000000, 232.000000)">
			<path id="Fill-3" fill="#466BD9" d="M375.368-115.917l-16.381-16.378L207.266,19.427c-18.965,18.964-50.86,18.964-69.826,0
				l-151.721-150.86l-16.379,16.379L82.269-2.125L-30.661,110.804l16.378,16.38L98.647,14.254l22.413,22.413
				c13.793,13.793,31.896,21.551,50.861,21.551c18.964,0,37.068-7.758,50.861-21.551l22.412-22.413l112.93,112.93l16.379-16.38
				L261.577-2.126L375.368-115.917"/>
			<path id="Fill-4" fill="#466BD9" d="M343.473,156.493H2.959c-19.827,0-36.207-16.379-36.207-36.206v-243.1
				c0-19.826,16.379-36.205,36.207-36.205h340.512c19.825,0,36.206,16.378,36.206,36.205v243.098
				C379.678,140.114,363.298,156.493,343.473,156.493L343.473,156.493z M2.098-135.742c-6.896,0-12.069,5.171-12.069,12.068v243.1
				c0,6.896,5.173,12.069,12.069,12.069h340.511c6.897,0,12.069-5.172,12.069-12.069v-243.1c0-6.896-5.172-12.07-12.069-12.07H2.098
				V-135.742z"/>
		</g>
	</g>
	<g>
		<ellipse fill="#466BD9" cx="327.813" cy="143.502" rx="36.638" ry="36.638"/>
		<path fill="#E6BA2C" d="M447.409,113.815l-16.168-2.608c-1.934-6.201-4.433-12.233-7.463-18l9.593-13.283
			c3.078-4.262,2.613-10.053-1.104-13.77l-27.11-27.111c-3.718-3.717-9.508-4.18-13.771-1.105l-13.285,9.594
			c-5.767-3.028-11.799-5.53-17.999-7.465l-2.608-16.168c-0.837-5.189-5.26-8.957-10.518-8.957h-38.34
			c-5.257,0-9.681,3.767-10.518,8.958l-2.608,16.167c-6.2,1.935-12.232,4.437-17.998,7.465l-13.284-9.594
			c-4.263-3.077-10.054-2.613-13.771,1.105l-27.112,27.112c-3.717,3.717-4.181,9.508-1.103,13.77l9.592,13.283
			c-3.028,5.767-5.529,11.798-7.464,18l-16.167,2.608c-5.189,0.837-8.956,5.261-8.956,10.519v38.34c0,5.257,3.766,9.681,8.958,10.52
			l16.167,2.609c1.936,6.202,4.437,12.233,7.465,18l-9.593,13.284c-3.078,4.262-2.613,10.053,1.103,13.771l27.111,27.112
			c3.717,3.717,9.509,4.182,13.771,1.104l13.283-9.594c5.767,3.027,11.799,5.528,17.999,7.464l2.608,16.168
			c0.838,5.19,5.261,8.954,10.518,8.954h38.34c5.258,0,9.68-3.764,10.518-8.955l2.609-16.167c6.199-1.938,12.231-4.437,17.998-7.464
			l13.285,9.594c4.263,3.075,10.054,2.61,13.771-1.104l27.113-27.112c3.718-3.718,4.182-9.508,1.104-13.771l-9.594-13.283
			c3.028-5.768,5.528-11.8,7.467-18l16.165-2.608c5.192-0.838,8.956-5.261,8.956-10.52v-38.34
			C456.366,119.077,452.6,114.652,447.409,113.815z M327.807,190.184c-25.739,0-46.681-20.942-46.681-46.681
			s20.939-46.681,46.681-46.681c25.739,0,46.68,20.941,46.68,46.681C374.486,169.243,353.545,190.184,327.807,190.184z"/>
	</g>
	<g>
		<path fill="#466BD9" d="M574.832,561c-3.529,0-7.026-1.142-9.977-3.372l-37.5-28.384H288.509
			c-17.581,0-31.882-14.305-31.882-31.884V396.393c0-3.303,2.676-5.978,5.977-5.978s5.977,2.675,5.977,5.978V497.36
			c0,10.989,8.94,19.933,19.929,19.933h240.854c1.302,0,2.565,0.425,3.604,1.213l39.104,29.596c2.053,1.557,4.062,0.832,4.829,0.452
			c0.769-0.382,2.555-1.549,2.555-4.123v-23.746c0-2.288,1.308-4.378,3.368-5.378c6.938-3.361,11.248-10.238,11.248-17.94v-190.41
			c0-10.989-8.939-19.931-19.933-19.931H462.741c-3.3,0-5.979-2.675-5.979-5.979c0-3.301,2.68-5.978,5.979-5.978H574.14
			c17.581,0,31.886,14.305,31.886,31.884v190.401c0,10.84-5.633,20.98-14.616,26.804v20.267c0,6.327-3.521,12.009-9.188,14.825
			C579.866,560.423,577.341,561,574.832,561z"/>
	</g>
</g>
</svg>
