<?xml version="1.0" encoding="utf-8"?>
<!-- Generator: Adobe Illustrator 16.0.0, SVG Export Plug-In . SVG Version: 6.00 Build 0)  -->
<!DOCTYPE svg PUBLIC "-//W3C//DTD SVG 1.1//EN" "http://www.w3.org/Graphics/SVG/1.1/DTD/svg11.dtd">
<svg version="1.1" id="Layer_1" xmlns="http://www.w3.org/2000/svg" xmlns:xlink="http://www.w3.org/1999/xlink" x="0px" y="0px"
	 width="571px" height="483px" viewBox="0 0 571 483" enable-background="new 0 0 571 483" xml:space="preserve">
<g>
	<g id="Icon-Envelope" transform="translate(78.000000, 232.000000)">
		<path id="Fill-3" fill="#087233" d="M409.633-125.176l-18.168-18.17L223.164,24.955c-21.037,21.037-56.418,21.037-77.456,0
			l-168.3-167.344l-18.169,18.168L84.508,1.048L-40.76,126.316l18.168,18.17L102.677,19.216l24.862,24.863
			c15.3,15.299,35.381,23.903,56.419,23.903c21.037,0,41.119-8.604,56.419-23.903l24.861-24.863l125.27,125.271l18.168-18.17
			L283.408,1.048L409.633-125.176"/>
		<path id="Fill-4" fill="#087233" d="M374.252,176.998H-3.466c-21.994,0-40.163-18.168-40.163-40.162v-269.663
			c0-21.994,18.169-40.162,40.163-40.162h377.718c21.994,0,40.162,18.168,40.162,40.162v269.663
			C414.414,158.83,396.246,176.998,374.252,176.998L374.252,176.998z M-4.422-147.17c-7.65,0-13.388,5.736-13.388,13.388V135.88
			c0,7.649,5.738,13.39,13.388,13.39h377.717c7.65,0,13.389-5.736,13.389-13.39v-269.662c0-7.649-5.735-13.388-13.389-13.388H-4.422
			L-4.422-147.17z"/>
	</g>
</g>
<g transform="translate(0 -1028.4)">
	<path fill="#087233" d="M556,1381.622c0,58.032-50.364,105.061-112.498,105.061c-62.136,0-112.502-47.028-112.502-105.061
		c0-58.023,50.366-105.063,112.502-105.063C505.636,1276.562,556,1323.598,556,1381.622z"/>
	<path fill="#169E4D" d="M556,1371.119c0,58.029-50.364,105.06-112.498,105.06c-62.136,0-112.502-47.03-112.502-105.06
		c0-58.03,50.366-105.063,112.502-105.063C505.636,1266.056,556,1313.089,556,1371.119z"/>
	<path fill="#27AE60" d="M488.498,1339.599l-67.499,63.035l-28.129-26.266l-23.904,22.058l28.129,26.268l22.497,21.013l1.407,1.057
		l91.403-85.1L488.498,1339.599z"/>
	<path fill="#ECF0F1" d="M488.498,1329.09l-67.499,63.038l-28.129-26.264l-23.904,22.058l28.129,26.27l22.497,21.009l1.407,1.057
		l91.403-85.099L488.498,1329.09z"/>
</g>
</svg>
