<?xml version="1.0" encoding="utf-8"?>
<!-- Generator: Adobe Illustrator 16.0.0, SVG Export Plug-In . SVG Version: 6.00 Build 0)  -->
<!DOCTYPE svg PUBLIC "-//W3C//DTD SVG 1.1//EN" "http://www.w3.org/Graphics/SVG/1.1/DTD/svg11.dtd">
<svg version="1.1" id="Layer_1" xmlns="http://www.w3.org/2000/svg" xmlns:xlink="http://www.w3.org/1999/xlink" x="0px" y="0px"
	 width="571px" height="483px" viewBox="0 0 571 483" enable-background="new 0 0 571 483" xml:space="preserve">
<rect x="45.518" y="67.398" fill="#E0E0D1" width="428.677" height="322.152"/>
<g>
	<g id="Icon-Envelope" transform="translate(78.000000, 232.000000)">
		<path id="Fill-3" fill="#134563" d="M405.252-132.82l-18.168-18.17L218.783,17.311c-21.037,21.039-56.418,21.039-77.456,0
			l-168.3-167.344l-18.169,18.168L80.127-6.595L-45.141,118.674l18.168,18.17L98.296,11.574l24.862,24.861
			c15.3,15.301,35.381,23.903,56.419,23.903c21.037,0,41.119-8.604,56.419-23.903l24.861-24.861l125.27,125.27l18.168-18.17
			L279.027-6.595L405.252-132.82"/>
		<path id="Fill-4" fill="#134563" d="M369.871,169.355H-7.847c-21.994,0-40.163-18.17-40.163-40.164V-140.47
			c0-21.994,18.169-40.162,40.163-40.162h377.718c21.994,0,40.162,18.168,40.162,40.162v269.661
			C410.033,151.186,391.865,169.355,369.871,169.355L369.871,169.355z M-8.803-154.814c-7.65,0-13.388,5.736-13.388,13.388v269.662
			c0,7.648,5.738,13.388,13.388,13.388h377.717c7.65,0,13.389-5.735,13.389-13.388v-269.662c0-7.649-5.733-13.388-13.389-13.388
			H-8.803L-8.803-154.814z"/>
	</g>
</g>
<g id="Layer_1_1_">
	<g>
		<circle fill="#E0E0D1" cx="391.953" cy="292.781" r="164.295"/>
	</g>
	<g opacity="0.2">
		<path fill="#231F20" d="M383.999,157.552c78.949,0,143.188,64.24,143.188,143.182c0,78.943-64.242,143.183-143.188,143.183
			c-78.941,0-143.179-64.239-143.179-143.183C240.82,221.792,305.055,157.552,383.999,157.552z M383.999,125.733
			c-96.644,0-174.996,78.352-174.996,175c0,96.653,78.352,175.006,174.996,175.006c96.652,0,175.004-78.353,175.004-175.006
			C559.003,204.085,480.648,125.733,383.999,125.733L383.999,125.733z"/>
	</g>
	<g>
		<path fill="#134563" d="M383.999,141.644c78.949,0,143.188,64.231,143.188,143.182c0,78.944-64.242,143.179-143.188,143.179
			c-78.941,0-143.179-64.238-143.179-143.179C240.82,205.874,305.055,141.644,383.999,141.644 M383.999,109.822
			c-96.644,0-174.996,78.359-174.996,175.002c0,96.652,78.352,175.004,174.996,175.004c96.652,0,175.004-78.352,175.004-175.004
			C559,188.181,480.648,109.822,383.999,109.822L383.999,109.822z"/>
	</g>
	<g opacity="0.2">
		<g>
			<path fill="#231F20" d="M447.636,380.276c-4.066,0-8.135-1.558-11.245-4.657l-68.298-68.297v-70.226
				c0-8.782,7.123-15.912,15.899-15.912c8.781,0,15.91,7.132,15.91,15.912v57.039l58.976,58.982c6.218,6.213,6.218,16.28,0,22.498
				C455.777,378.724,451.71,380.276,447.636,380.276z"/>
		</g>
	</g>
	<g>
		<path fill="#4F5D73" d="M447.636,364.364c-4.066,0-8.135-1.55-11.245-4.657l-68.298-68.289v-70.241
			c0-8.776,7.123-15.907,15.899-15.907c8.781,0,15.91,7.131,15.91,15.907v57.04l58.976,58.986c6.218,6.214,6.218,16.277,0,22.503
			C455.777,362.814,451.71,364.364,447.636,364.364z"/>
	</g>
</g>
<g id="Layer_2">
</g>
</svg>
