<?xml version="1.0" encoding="utf-8"?>
<!-- Generator: Adobe Illustrator 16.0.0, SVG Export Plug-In . SVG Version: 6.00 Build 0)  -->
<!DOCTYPE svg PUBLIC "-//W3C//DTD SVG 1.1//EN" "http://www.w3.org/Graphics/SVG/1.1/DTD/svg11.dtd">
<svg version="1.1" id="Layer_1" xmlns="http://www.w3.org/2000/svg" xmlns:xlink="http://www.w3.org/1999/xlink" x="0px" y="0px"
	 width="571px" height="483px" viewBox="0 0 571 483" enable-background="new 0 0 571 483" xml:space="preserve">
<rect x="47.518" y="60.398" fill="#E0E0D1" width="428.677" height="322.152"/>
<g id="Layer_2">
</g>
<g id="Layer_2_1_">
</g>
<g>
	<g id="Icon-Envelope" transform="translate(78.000000, 232.000000)">
		<path id="Fill-3" fill="#3A98DD" d="M404.523-138.033l-18.172-18.168L218.053,12.1c-21.037,21.037-56.418,21.037-77.456,0
			l-168.3-167.345l-18.169,18.169L79.397-11.806L-45.872,113.461l18.168,18.17L97.565,6.362l24.862,24.861
			c15.3,15.301,35.381,23.906,56.418,23.906c21.037,0,41.119-8.605,56.417-23.906l24.861-24.861l125.27,125.269l18.168-18.17
			L278.299-11.808L404.523-138.033"/>
		<path id="Fill-4" fill="#3A98DD" d="M369.143,164.143H-8.578c-21.994,0-40.163-18.168-40.163-40.162v-269.664
			c0-21.993,18.169-40.161,40.163-40.161h377.72c21.992,0,40.162,18.168,40.162,40.161v269.662
			C409.305,145.975,391.135,164.143,369.143,164.143L369.143,164.143z M-9.534-160.025c-7.65,0-13.388,5.736-13.388,13.387v269.664
			c0,7.648,5.738,13.389,13.388,13.389h377.719c7.65,0,13.389-5.736,13.389-13.389v-269.664c0-7.65-5.736-13.389-13.389-13.389
			H-9.534V-160.025z"/>
	</g>
</g>
<g id="Layer_1_1_">
	<g>
		<ellipse fill="#3A98DD" cx="376.155" cy="292.882" rx="185" ry="182.154"/>
	</g>
	<g opacity="0.2">
		<g>
			<path fill="#231F20" d="M468.653,292.883c0-50.304-41.42-91.079-92.504-91.079c-43.348,0-79.626,29.401-89.655,69.03
				c-27.78,4.146-49.099,27.693-49.099,56.201c0,31.443,25.886,56.927,57.813,56.927h46.252c6.389,0,11.564-5.093,11.564-11.387
				v-31.312c0-4.713-3.887-8.533-8.675-8.533h-17.696c-8.506,0-10.882-5.746-5.283-12.777l44.595-55.952
				c5.602-7.03,14.765-7.03,20.367,0l44.595,55.952c5.595,7.031,3.228,12.777-5.287,12.777h-17.693c-4.784,0-8.671,3.82-8.671,8.533
				v31.312c0,6.294,5.167,11.387,11.563,11.387h57.812c25.547,0,46.25-20.389,46.25-45.537
				C514.899,313.271,494.2,292.883,468.653,292.883z"/>
		</g>
	</g>
	<g>
		<g>
			<path fill="#E0E0D1" d="M468.653,281.5c0-50.307-41.42-91.081-92.504-91.081c-43.348,0-79.626,29.401-89.655,69.028
				c-27.78,4.143-49.099,27.693-49.099,56.208c0,31.438,25.886,56.92,57.813,56.92h46.252c6.389,0,11.564-5.089,11.564-11.384
				v-31.31c0-4.714-3.887-8.538-8.675-8.538h-17.696c-8.506,0-10.882-5.746-5.283-12.781l44.595-55.947
				c5.602-7.03,14.765-7.03,20.367,0l44.595,55.947c5.595,7.035,3.228,12.781-5.287,12.781h-17.693
				c-4.784,0-8.671,3.824-8.671,8.538v31.31c0,6.291,5.167,11.384,11.563,11.384h57.812c25.547,0,46.25-20.388,46.25-45.54
				C514.905,301.889,494.2,281.5,468.653,281.5z"/>
		</g>
	</g>
</g>
<g id="Layer_2_2_">
</g>
</svg>
