<?xml version="1.0" encoding="utf-8"?>
<!-- Generator: Adobe Illustrator 16.0.0, SVG Export Plug-In . SVG Version: 6.00 Build 0)  -->
<!DOCTYPE svg PUBLIC "-//W3C//DTD SVG 1.1//EN" "http://www.w3.org/Graphics/SVG/1.1/DTD/svg11.dtd">
<svg version="1.1" id="Layer_1" xmlns="http://www.w3.org/2000/svg" xmlns:xlink="http://www.w3.org/1999/xlink" x="0px" y="0px"
	 width="571px" height="483px" viewBox="0 0 571 483" enable-background="new 0 0 571 483" xml:space="preserve">
<g>
	<g id="Icon-Envelope" transform="translate(78.000000, 232.000000)">
		<path id="Fill-3" fill="#134563" d="M405.252-132.82l-18.168-18.17L218.783,17.311c-21.037,21.039-56.418,21.039-77.456,0
			l-168.3-167.344l-18.169,18.168L80.127-6.595L-45.141,118.674l18.168,18.17L98.296,11.574l24.862,24.861
			c15.3,15.301,35.381,23.904,56.419,23.904c21.037,0,41.119-8.604,56.419-23.904l24.861-24.861l125.27,125.27l18.168-18.17
			L279.027-6.595L405.252-132.82"/>
		<path id="Fill-4" fill="#134563" d="M369.871,169.355H-7.847c-21.994,0-40.163-18.17-40.163-40.164V-140.47
			c0-21.994,18.169-40.162,40.163-40.162h377.718c21.994,0,40.162,18.168,40.162,40.162v269.661
			C410.033,151.186,391.865,169.355,369.871,169.355L369.871,169.355z M-8.803-154.814c-7.65,0-13.388,5.736-13.388,13.388v269.662
			c0,7.649,5.738,13.388,13.388,13.388h377.717c7.65,0,13.389-5.735,13.389-13.388v-269.662c0-7.649-5.734-13.388-13.389-13.388
			H-8.803L-8.803-154.814z"/>
	</g>
</g>
<g id="Layer_1_1_">
	<g>
		<circle fill="#E0E0D1" cx="378" cy="289" r="185"/>
	</g>
	<g opacity="0.2">
		<path fill="#231F20" d="M378,196.499c57.379,0,104.066,46.689,104.066,104.062c0,57.375-46.689,104.062-104.066,104.062
			c-57.373,0-104.06-46.687-104.06-104.062C273.94,243.188,320.625,196.499,378,196.499z M378,173.374
			c-70.238,0-127.184,56.945-127.184,127.187c0,70.245,56.945,127.191,127.184,127.191c70.245,0,127.189-56.946,127.189-127.191
			C505.189,230.319,448.243,173.374,378,173.374L378,173.374z"/>
	</g>
	<g>
		<path fill="#134563" d="M378,184.937c57.379,0,104.066,46.682,104.066,104.062c0,57.375-46.689,104.059-104.066,104.059
			c-57.373,0-104.06-46.687-104.06-104.059C273.94,231.618,320.625,184.937,378,184.937 M378,161.81
			c-70.238,0-127.184,56.95-127.184,127.188c0,70.245,56.945,127.189,127.184,127.189c70.245,0,127.189-56.944,127.189-127.189
			C505.188,218.76,448.243,161.81,378,161.81L378,161.81z"/>
	</g>
	<g opacity="0.2">
		<g>
			<path fill="#231F20" d="M424.25,358.371c-2.955,0-5.912-1.132-8.173-3.384l-49.638-49.637V254.31
				c0-6.382,5.177-11.564,11.556-11.564c6.382,0,11.564,5.183,11.564,11.564v41.456l42.862,42.867
				c4.518,4.516,4.518,11.832,0,16.352C430.167,357.242,427.211,358.371,424.25,358.371z"/>
		</g>
	</g>
	<g>
		<path fill="#4F5D73" d="M424.25,346.807c-2.955,0-5.912-1.127-8.173-3.385l-49.638-49.632v-51.05
			c0-6.378,5.177-11.561,11.556-11.561c6.382,0,11.564,5.183,11.564,11.561v41.456l42.862,42.871c4.518,4.515,4.518,11.829,0,16.354
			C430.167,345.68,427.211,346.807,424.25,346.807z"/>
	</g>
</g>
<g id="Layer_2">
</g>
</svg>
