<?xml version="1.0" encoding="utf-8"?>
<!-- Generator: Adobe Illustrator 16.0.0, SVG Export Plug-In . SVG Version: 6.00 Build 0)  -->
<!DOCTYPE svg PUBLIC "-//W3C//DTD SVG 1.1//EN" "http://www.w3.org/Graphics/SVG/1.1/DTD/svg11.dtd">
<svg version="1.1" id="Layer_1" xmlns="http://www.w3.org/2000/svg" xmlns:xlink="http://www.w3.org/1999/xlink" x="0px" y="0px"
	 width="571px" height="483px" viewBox="0 0 571 483" enable-background="new 0 0 571 483" xml:space="preserve">
<rect x="47.518" y="60.398" fill="#E0E0D1" width="428.677" height="322.152"/>
<g id="Layer_2">
</g>
<g id="Layer_2_1_">
</g>
<g>
	<g id="Icon-Envelope" transform="translate(78.000000, 232.000000)">
		<path id="Fill-3" fill="#CC9900" d="M404.523-138.033l-18.173-18.168L218.053,12.1c-21.037,21.037-56.418,21.037-77.456,0
			l-168.3-167.345l-18.169,18.169L79.397-11.806L-45.872,113.461l18.168,18.17L97.565,6.362l24.862,24.861
			c15.3,15.301,35.381,23.906,56.418,23.906c21.037,0,41.119-8.605,56.417-23.906l24.861-24.861l125.27,125.269l18.168-18.17
			L278.299-11.808L404.523-138.033"/>
		<path id="Fill-4" fill="#CC9900" d="M369.143,164.143H-8.578c-21.994,0-40.163-18.168-40.163-40.162v-269.664
			c0-21.993,18.169-40.161,40.163-40.161h377.72c21.992,0,40.162,18.168,40.162,40.161v269.662
			C409.305,145.975,391.135,164.143,369.143,164.143L369.143,164.143z M-9.534-160.025c-7.65,0-13.388,5.736-13.388,13.387v269.664
			c0,7.648,5.738,13.39,13.388,13.39h377.719c7.65,0,13.39-5.735,13.39-13.39v-269.664c0-7.65-5.736-13.389-13.39-13.389H-9.534
			V-160.025z"/>
	</g>
</g>
<g>
	<ellipse fill="#CC9900" cx="376.155" cy="292.882" rx="185" ry="182.154"/>
</g>
<g id="Layer_2_2_">
</g>
<g>
	<circle fill="#E0E0D1" cx="375.675" cy="294" r="160"/>
	<g>
		<path fill="#464646" d="M378.156,171.247c-35.318-0.009-68.854,15.504-91.715,42.424l-16.676-14.836
			c-3.611-3.167-8.739-3.934-13.12-1.962c-4.394,1.975-7.224,6.341-7.234,11.159v49.045c0,6.771,5.49,12.262,12.261,12.262h55.177
			c5.056-0.016,9.583-3.131,11.403-7.848c1.851-4.783,0.53-10.212-3.311-13.61l-20.232-18.024
			c18.318-21.627,45.227-34.095,73.569-34.086c54.174-0.009,98.099,43.901,98.106,98.074c0.01,54.175-43.899,98.099-98.074,98.108
			c-41.56,0.006-78.613-26.178-92.483-65.354c-2.235-6.399-9.234-9.775-15.634-7.542c-6.399,2.236-9.775,9.235-7.541,15.634
			c22.55,63.853,92.593,97.335,156.446,74.785c63.854-22.549,97.335-92.593,74.785-156.446
			C476.563,203.979,430.176,171.199,378.156,171.247z"/>
		<path fill="#464646" d="M424.138,342.906c-2.653,0-5.234-0.86-7.358-2.453l-49.045-36.784c-3.087-2.314-4.905-5.95-4.905-9.809
			v-49.045c0-6.772,5.491-12.262,12.262-12.262c6.772,0,12.263,5.489,12.263,12.262v42.914l44.141,33.106
			c5.417,4.062,6.516,11.749,2.452,17.167C431.631,341.089,427.996,342.906,424.138,342.906z"/>
	</g>
</g>
</svg>
