<?xml version="1.0" encoding="utf-8"?>
<!-- Generator: Adobe Illustrator 16.0.0, SVG Export Plug-In . SVG Version: 6.00 Build 0)  -->
<!DOCTYPE svg PUBLIC "-//W3C//DTD SVG 1.1//EN" "http://www.w3.org/Graphics/SVG/1.1/DTD/svg11.dtd">
<svg version="1.1" id="Layer_1" xmlns="http://www.w3.org/2000/svg" xmlns:xlink="http://www.w3.org/1999/xlink" x="0px" y="0px"
	 width="571px" height="483px" viewBox="0 0 571 483" enable-background="new 0 0 571 483" xml:space="preserve">
<g id="Layer_2">
</g>
<g>
	<g>
		<g id="Icon-Envelope" transform="translate(78.000000, 232.000000)">
			<path id="Fill-3" fill="#C75C5C" d="M404.627-142.365l-18.168-18.17L218.158,7.766c-21.037,21.037-56.418,21.037-77.456,0
				l-168.3-167.344l-18.169,18.168L79.502-16.141L-45.766,109.127l18.168,18.17L97.671,2.028l24.862,24.862
				c15.3,15.299,35.381,23.904,56.419,23.904c21.037,0,41.119-8.605,56.419-23.904l24.861-24.862l125.27,125.269l18.168-18.17
				L278.402-16.141L404.627-142.365"/>
			<path id="Fill-4" fill="#C75C5C" d="M369.246,159.809H-8.472c-21.994,0-40.163-18.168-40.163-40.162v-269.662
				c0-21.994,18.169-40.162,40.163-40.162h377.718c21.994,0,40.162,18.168,40.162,40.162v269.662
				C409.408,141.641,391.24,159.809,369.246,159.809L369.246,159.809z M-9.428-164.359c-7.65,0-13.388,5.736-13.388,13.388v269.661
				c0,7.65,5.738,13.389,13.388,13.389h377.717c7.65,0,13.389-5.736,13.389-13.389v-269.661c0-7.649-5.736-13.388-13.389-13.388
				H-9.428L-9.428-164.359z"/>
		</g>
	</g>
	<g id="Layer_1_2_">
		<g>
			<path fill="#E0E0D1" d="M467.199,291.305c46.082,0,83.436,37.359,83.436,83.436c0,46.084-37.354,83.438-83.436,83.438
				c-46.084,0-83.438-37.354-83.438-83.438C383.762,328.666,421.115,291.305,467.199,291.305z"/>
		</g>
		<g opacity="0.2">
			<path fill="#231F20" d="M467.199,322.594c-31.682,0-57.363,25.686-57.363,57.361c0,31.682,25.684,57.361,57.363,57.361
				c31.682,0,57.363-25.68,57.363-57.361C524.563,348.279,498.881,322.594,467.199,322.594z M508.918,379.955
				c0,8.686-2.67,16.75-7.227,23.434l-57.924-57.924c6.682-4.557,14.748-7.227,23.432-7.227
				C490.203,338.238,508.918,356.953,508.918,379.955z M425.48,379.955c0-8.676,2.668-16.742,7.225-23.426l57.926,57.918
				c-6.688,4.559-14.754,7.227-23.432,7.227C444.195,421.674,425.48,402.959,425.48,379.955z"/>
		</g>
		<g>
			<path fill="#C75C5C" d="M467.199,333.023c23.004,0,41.719,18.715,41.719,41.717c0,23.004-18.715,41.719-41.719,41.719
				s-41.719-18.715-41.719-41.719C425.48,351.738,444.195,333.023,467.199,333.023 M467.199,317.379
				c-31.682,0-57.363,25.686-57.363,57.361c0,31.682,25.684,57.363,57.363,57.363c31.682,0,57.363-25.684,57.363-57.363
				C524.563,343.064,498.881,317.379,467.199,317.379L467.199,317.379z"/>
		</g>
		<g>
			
				<rect x="459.382" y="323.128" transform="matrix(0.707 -0.7072 0.7072 0.707 -128.1422 440.1761)" fill="#C75C5C" width="15.641" height="103.243"/>
		</g>
	</g>
	<g id="Layer_2_1_">
	</g>
</g>
</svg>
