<?xml version="1.0" encoding="utf-8"?>
<!-- Generator: Adobe Illustrator 16.0.0, SVG Export Plug-In . SVG Version: 6.00 Build 0)  -->
<!DOCTYPE svg PUBLIC "-//W3C//DTD SVG 1.1//EN" "http://www.w3.org/Graphics/SVG/1.1/DTD/svg11.dtd">
<svg version="1.1" id="Layer_1" xmlns="http://www.w3.org/2000/svg" xmlns:xlink="http://www.w3.org/1999/xlink" x="0px" y="0px"
	 width="571px" height="483px" viewBox="43.5 172.5 571 483" enable-background="new 43.5 172.5 571 483" xml:space="preserve">
<g id="Layer_2">
</g>
<g id="Layer_2_1_">
</g>
<g>
	<g>
		<g id="Icon-Envelope" transform="translate(78.000000, 232.000000)">
			<path id="Fill-3" fill="#3A98DD" d="M448.023,34.467l-18.17-18.168l-168.299,168.3c-21.037,21.038-56.419,21.038-77.457,0
				L15.798,17.255L-2.371,35.424l125.269,125.269L-2.371,285.961l18.168,18.169l125.269-125.269l24.862,24.862
				c15.3,15.3,35.381,23.906,56.419,23.906c21.037,0,41.119-8.606,56.419-23.906l24.861-24.862l125.27,125.269l18.168-18.169
				L321.799,160.692L448.023,34.467"/>
			<path id="Fill-4" fill="#3A98DD" d="M412.643,336.643H34.923c-21.994,0-40.163-18.169-40.163-40.163V26.817
				c0-21.994,18.169-40.162,40.163-40.162h377.72c21.992,0,40.162,18.168,40.162,40.162v269.662
				C452.805,318.474,434.635,336.643,412.643,336.643L412.643,336.643z M33.967,12.474c-7.65,0-13.388,5.737-13.388,13.388v269.662
				c0,7.65,5.738,13.388,13.388,13.388h377.719c7.65,0,13.387-5.737,13.387-13.388V25.861c0-7.65-5.736-13.388-13.387-13.388H33.967
				L33.967,12.474z"/>
		</g>
	</g>
	<g id="Layer_1_1_">
		<g>
			<ellipse fill="#3A98DD" cx="510.805" cy="544.192" rx="83.436" ry="82.152"/>
		</g>
		<g opacity="0.2">
			<g>
				<path fill="#231F20" d="M552.521,544.192c0-22.687-18.678-41.076-41.717-41.076c-19.551,0-35.912,13.26-40.436,31.131
					c-12.527,1.869-22.143,12.49-22.143,25.349c0,14.181,11.674,25.673,26.074,25.673h20.859c2.881,0,5.215-2.297,5.215-5.135
					v-14.12c0-2.126-1.752-3.851-3.912-3.851h-7.98c-3.836,0-4.908-2.592-2.383-5.764l20.111-25.234c2.527-3.17,6.66-3.17,9.186,0
					l20.113,25.234c2.523,3.172,1.455,5.764-2.385,5.764h-7.98c-2.158,0-3.91,1.725-3.91,3.851v14.12
					c0,2.838,2.33,5.135,5.215,5.135h26.072c11.521,0,20.859-9.196,20.859-20.538S564.043,544.192,552.521,544.192z"/>
			</g>
		</g>
		<g>
			<g>
				<path fill="#FFFFFF" d="M552.521,539.058c0-22.687-18.678-41.076-41.717-41.076c-19.551,0-35.912,13.26-40.436,31.131
					c-12.527,1.869-22.143,12.49-22.143,25.35c0,14.18,11.674,25.672,26.074,25.672h20.859c2.881,0,5.215-2.296,5.215-5.135V560.88
					c0-2.126-1.752-3.852-3.912-3.852h-7.98c-3.836,0-4.908-2.592-2.383-5.764l20.111-25.233c2.527-3.171,6.66-3.171,9.186,0
					l20.113,25.233c2.523,3.172,1.455,5.764-2.385,5.764h-7.98c-2.158,0-3.91,1.726-3.91,3.852v14.119
					c0,2.839,2.33,5.135,5.215,5.135h26.072c11.521,0,20.859-9.195,20.859-20.538C573.381,548.254,564.043,539.058,552.521,539.058z
					"/>
			</g>
		</g>
	</g>
	<g id="Layer_2_2_">
	</g>
</g>
</svg>
