<?xml version="1.0" encoding="utf-8"?>
<!-- Generator: Adobe Illustrator 16.0.0, SVG Export Plug-In . SVG Version: 6.00 Build 0)  -->
<!DOCTYPE svg PUBLIC "-//W3C//DTD SVG 1.1//EN" "http://www.w3.org/Graphics/SVG/1.1/DTD/svg11.dtd">
<svg version="1.1" id="Layer_1" xmlns="http://www.w3.org/2000/svg" xmlns:xlink="http://www.w3.org/1999/xlink" x="0px" y="0px"
	 width="571px" height="483px" viewBox="0 0 571 483" enable-background="new 0 0 571 483" xml:space="preserve">
<g>
	<g>
		<g id="Icon-Envelope" transform="translate(78.000000, 232.000000)">
			<path id="Fill-3" fill="#134563" d="M405.252-132.82l-18.168-18.17l-168.301,168.3c-21.037,21.039-56.418,21.039-77.456,0
				l-168.3-167.343l-18.169,18.168L80.127-6.595L-45.141,118.674l18.168,18.17L98.296,11.574l24.862,24.861
				c15.3,15.301,35.381,23.906,56.419,23.906c21.037,0,41.119-8.605,56.419-23.906l24.861-24.861l125.27,125.27l18.168-18.17
				L279.027-6.595L405.252-132.82"/>
			<path id="Fill-4" fill="#134563" d="M369.871,169.355H-7.847c-21.994,0-40.163-18.17-40.163-40.164V-140.47
				c0-21.994,18.169-40.162,40.163-40.162h377.718c21.994,0,40.162,18.168,40.162,40.162v269.662
				C410.033,151.186,391.865,169.355,369.871,169.355L369.871,169.355z M-8.803-154.814c-7.65,0-13.388,5.736-13.388,13.388v269.663
				c0,7.65,5.738,13.387,13.388,13.387h377.717c7.65,0,13.389-5.736,13.389-13.387v-269.663c0-7.649-5.736-13.388-13.389-13.388
				H-8.803L-8.803-154.814z"/>
		</g>
	</g>
	<g id="Layer_1_1_">
		<g>
			<circle fill="#E0E0D1" cx="466.895" cy="365.517" r="83.116"/>
		</g>
		<g opacity="0.2">
			<path fill="#231F20" d="M466.895,323.957c25.779,0,46.754,20.977,46.754,46.754s-20.975,46.752-46.754,46.752
				c-25.777,0-46.752-20.975-46.752-46.752S441.117,323.957,466.895,323.957z M466.895,313.568
				c-31.557,0-57.141,25.584-57.141,57.143s25.584,57.143,57.141,57.143c31.559,0,57.143-25.584,57.143-57.143
				S498.453,313.568,466.895,313.568L466.895,313.568z"/>
		</g>
		<g>
			<path fill="#134563" d="M466.895,318.764c25.779,0,46.754,20.973,46.754,46.752c0,25.777-20.975,46.752-46.754,46.752
				c-25.777,0-46.752-20.975-46.752-46.752C420.143,339.736,441.117,318.764,466.895,318.764 M466.895,308.373
				c-31.557,0-57.141,25.586-57.141,57.143c0,31.559,25.584,57.143,57.141,57.143c31.559,0,57.143-25.584,57.143-57.143
				C524.037,333.959,498.453,308.373,466.895,308.373L466.895,308.373z"/>
		</g>
		<g opacity="0.2">
			<g>
				<path fill="#231F20" d="M487.674,396.684c-1.328,0-2.656-0.508-3.672-1.521l-22.301-22.299v-22.932
					c0-2.867,2.326-5.195,5.193-5.195s5.195,2.328,5.195,5.195v18.625l19.258,19.26c2.029,2.029,2.029,5.316,0,7.346
					C490.332,396.176,489.004,396.684,487.674,396.684z"/>
			</g>
		</g>
		<g>
			<path fill="#4F5D73" d="M487.674,391.488c-1.328,0-2.656-0.506-3.672-1.52l-22.301-22.299v-22.934
				c0-2.867,2.326-5.195,5.193-5.195s5.195,2.328,5.195,5.195v18.625l19.258,19.26c2.029,2.029,2.029,5.316,0,7.348
				C490.332,390.982,489.004,391.488,487.674,391.488z"/>
		</g>
	</g>
	<g id="Layer_2">
	</g>
</g>
</svg>
