<?xml version="1.0" encoding="utf-8"?>
<!-- Generator: Adobe Illustrator 16.0.0, SVG Export Plug-In . SVG Version: 6.00 Build 0)  -->
<!DOCTYPE svg PUBLIC "-//W3C//DTD SVG 1.1//EN" "http://www.w3.org/Graphics/SVG/1.1/DTD/svg11.dtd">
<svg version="1.1" id="Layer_1" xmlns="http://www.w3.org/2000/svg" xmlns:xlink="http://www.w3.org/1999/xlink" x="0px" y="0px"
	 width="571px" height="483px" viewBox="0 0 571 483" enable-background="new 0 0 571 483" xml:space="preserve">
<g id="Layer_2">
</g>
<g>
	<g id="Icon-Envelope" transform="translate(78.000000, 232.000000)">
		<path id="Fill-3" fill="#C75C5C" d="M404.627-142.365l-18.168-18.17L218.158,7.766c-21.037,21.037-56.418,21.037-77.456,0
			l-168.3-167.344l-18.169,18.168L79.502-16.141L-45.766,109.127l18.168,18.17L97.671,2.028l24.862,24.863
			c15.3,15.299,35.381,23.903,56.419,23.903c21.037,0,41.119-8.604,56.419-23.903l24.861-24.863l125.27,125.269l18.168-18.17
			L278.402-16.141L404.627-142.365"/>
		<path id="Fill-4" fill="#C75C5C" d="M369.246,159.809H-8.472c-21.994,0-40.163-18.168-40.163-40.162v-269.662
			c0-21.994,18.169-40.162,40.163-40.162h377.718c21.994,0,40.162,18.168,40.162,40.162v269.662
			C409.408,141.641,391.24,159.809,369.246,159.809L369.246,159.809z M-9.428-164.359c-7.65,0-13.388,5.736-13.388,13.388v269.661
			c0,7.65,5.738,13.391,13.388,13.391h377.717c7.65,0,13.389-5.736,13.389-13.391v-269.661c0-7.649-5.734-13.388-13.389-13.388
			H-9.428L-9.428-164.359z"/>
	</g>
</g>
<g id="Layer_1_2_">
	<g>
		<path fill="#E0E0D1" d="M378.005,103.001C480.179,103.001,563,185.835,563,288c0,102.179-82.821,185-184.995,185
			C275.824,473,193,390.179,193,288C193.003,185.84,275.823,103.001,378.005,103.001z"/>
	</g>
	<g opacity="0.2">
		<path fill="#231F20" d="M378.005,172.376c-70.249,0-127.189,56.949-127.189,127.184c0,70.245,56.947,127.183,127.189,127.183
			c70.245,0,127.188-56.94,127.188-127.183C505.192,229.325,448.25,172.376,378.005,172.376z M470.505,299.561
			c0,19.257-5.921,37.138-16.023,51.957L326.049,223.084c14.816-10.103,32.699-16.021,51.956-16.021
			C429.01,207.063,470.505,248.561,470.505,299.561z M285.503,299.561c0-19.237,5.916-37.122,16.02-51.941l128.435,128.418
			c-14.827,10.107-32.712,16.023-51.952,16.023C326.998,392.061,285.503,350.565,285.503,299.561z"/>
	</g>
	<g>
		<path fill="#C75C5C" d="M378.005,195.501c51.005,0,92.5,41.493,92.5,92.495c0,51.009-41.495,92.502-92.5,92.502
			c-51.009,0-92.502-41.493-92.502-92.502C285.503,236.994,326.998,195.501,378.005,195.501 M378.005,160.814
			c-70.249,0-127.189,56.95-127.189,127.182c0,70.247,56.947,127.188,127.189,127.188c70.245,0,127.188-56.946,127.188-127.188
			C505.192,217.764,448.25,160.814,378.005,160.814L378.005,160.814z"/>
	</g>
	<g>
		
			<rect x="360.661" y="173.502" transform="matrix(0.707 -0.7072 0.7072 0.707 -92.8948 351.6831)" fill="#C75C5C" width="34.677" height="228.91"/>
	</g>
</g>
<g id="Layer_2_1_">
</g>
</svg>
