<?xml version="1.0" encoding="utf-8"?>
<!-- Generator: Adobe Illustrator 16.0.0, SVG Export Plug-In . SVG Version: 6.00 Build 0)  -->
<!DOCTYPE svg PUBLIC "-//W3C//DTD SVG 1.1//EN" "http://www.w3.org/Graphics/SVG/1.1/DTD/svg11.dtd">
<svg version="1.1" id="Layer_1" xmlns="http://www.w3.org/2000/svg" xmlns:xlink="http://www.w3.org/1999/xlink" x="0px" y="0px"
	 width="571px" height="483px" viewBox="0 0 571 483" enable-background="new 0 0 571 483" xml:space="preserve">
<g>
	<g>
		<g id="Icon-Envelope" transform="translate(78.000000, 232.000000)">
			<path id="Fill-3" fill="#087233" d="M409.633-125.176l-18.168-18.17L223.164,24.955c-21.037,21.037-56.418,21.037-77.456,0
				l-168.3-167.344l-18.169,18.168L84.508,1.048L-40.76,126.316l18.168,18.17l125.269-125.27l24.862,24.863
				c15.3,15.299,35.381,23.904,56.419,23.904c21.037,0,41.119-8.605,56.419-23.904l24.861-24.863l125.27,125.27l18.168-18.17
				L283.408,1.048L409.633-125.176"/>
			<path id="Fill-4" fill="#087233" d="M374.252,176.998H-3.466c-21.994,0-40.163-18.168-40.163-40.162v-269.663
				c0-21.994,18.169-40.162,40.163-40.162h377.718c21.994,0,40.162,18.168,40.162,40.162v269.663
				C414.414,158.83,396.246,176.998,374.252,176.998L374.252,176.998z M-4.422-147.17c-7.65,0-13.388,5.736-13.388,13.388v269.662
				c0,7.65,5.738,13.389,13.388,13.389h377.717c7.65,0,13.389-5.736,13.389-13.389v-269.662c0-7.649-5.736-13.388-13.389-13.388
				H-4.422L-4.422-147.17z"/>
		</g>
	</g>
	<g transform="translate(0 -1028.4)">
		<path fill="#087233" d="M545.629,1393.179c0,42.096-36.533,76.209-81.605,76.209s-81.607-34.113-81.607-76.209
			c0-42.09,36.535-76.211,81.607-76.211C509.096,1316.97,545.629,1351.089,545.629,1393.179z"/>
		<path fill="#169E4D" d="M545.629,1385.56c0,42.094-36.533,76.209-81.605,76.209s-81.607-34.115-81.607-76.209
			s36.535-76.211,81.607-76.211S545.629,1343.466,545.629,1385.56z"/>
		<path fill="#27AE60" d="M496.664,1362.697l-48.963,45.725l-20.404-19.053l-17.34,16l20.404,19.055l16.32,15.242l1.02,0.766
			l66.303-61.73L496.664,1362.697z"/>
		<path fill="#ECF0F1" d="M496.664,1355.074l-48.963,45.727l-20.404-19.051l-17.34,16l20.404,19.055l16.32,15.24l1.02,0.766
			l66.303-61.73L496.664,1355.074z"/>
	</g>
</g>
</svg>
