<?xml version="1.0" encoding="utf-8"?>
<!-- Generator: Adobe Illustrator 16.0.0, SVG Export Plug-In . SVG Version: 6.00 Build 0)  -->
<!DOCTYPE svg PUBLIC "-//W3C//DTD SVG 1.1//EN" "http://www.w3.org/Graphics/SVG/1.1/DTD/svg11.dtd">
<svg version="1.1" id="Layer_1" xmlns="http://www.w3.org/2000/svg" xmlns:xlink="http://www.w3.org/1999/xlink" x="0px" y="0px"
	 width="571px" height="483px" viewBox="0 0 571 483" enable-background="new 0 0 571 483" xml:space="preserve">
<rect x="42.518" y="52.398" fill="#E0E0D1" width="428.677" height="322.152"/>
<g id="Layer_2">
</g>
<g>
	<g id="Icon-Envelope" transform="translate(78.000000, 232.000000)">
		<path id="Fill-3" fill="#C75C5C" d="M404.627-142.365l-18.168-18.17L218.158,7.766c-21.037,21.037-56.418,21.037-77.456,0
			l-168.3-167.344l-18.169,18.168L79.502-16.141L-45.766,109.127l18.168,18.17L97.671,2.028l24.862,24.863
			c15.3,15.299,35.381,23.903,56.419,23.903c21.037,0,41.119-8.604,56.419-23.903l24.861-24.863l125.27,125.269l18.168-18.17
			L278.402-16.141L404.627-142.365"/>
		<path id="Fill-4" fill="#C75C5C" d="M369.246,159.809H-8.472c-21.994,0-40.163-18.168-40.163-40.162v-269.662
			c0-21.994,18.169-40.162,40.163-40.162h377.718c21.994,0,40.162,18.168,40.162,40.162v269.662
			C409.408,141.641,391.24,159.809,369.246,159.809L369.246,159.809z M-9.428-164.359c-7.65,0-13.388,5.736-13.388,13.388v269.661
			c0,7.65,5.738,13.392,13.388,13.392h377.717c7.65,0,13.389-5.735,13.389-13.392v-269.66c0-7.649-5.733-13.388-13.389-13.388
			H-9.428L-9.428-164.359z"/>
	</g>
</g>
<g id="Layer_1_2_">
	<g>
		<path fill="#E0E0D1" d="M384.217,123.99c90.861,0,164.515,74.882,164.515,167.239c0,92.369-73.653,167.237-164.515,167.237
			c-90.869,0-164.525-74.868-164.525-167.237C219.695,198.876,293.348,123.99,384.217,123.99z"/>
	</g>
	<g opacity="0.2">
		<path fill="#231F20" d="M385.005,126.74c-96.657,0-175,78.356-175,174.994c0,96.649,78.354,174.991,175,174.991
			c96.651,0,175-78.345,175-174.991C560.004,205.097,481.656,126.74,385.005,126.74z M512.276,301.734
			c0,26.497-8.146,51.1-22.046,71.487L313.519,196.509c20.386-13.901,44.99-22.043,71.486-22.043
			C455.183,174.466,512.276,231.563,512.276,301.734z M257.731,301.734c0-26.468,8.14-51.076,22.043-71.465L456.487,406.96
			c-20.401,13.905-45.008,22.046-71.481,22.046C314.824,429.006,257.731,371.91,257.731,301.734z"/>
	</g>
	<g>
		<path fill="#C75C5C" d="M385.005,158.558c70.178,0,127.271,57.091,127.271,127.264c0,70.184-57.094,127.273-127.271,127.273
			c-70.184,0-127.274-57.09-127.274-127.273C257.731,215.649,314.824,158.558,385.005,158.558 M385.005,110.832
			c-96.657,0-175,78.358-175,174.991c0,96.653,78.354,174.999,175,174.999c96.651,0,175-78.353,175-174.999
			C560.004,189.19,481.656,110.832,385.005,110.832L385.005,110.832z"/>
	</g>
	<g>
		
			<rect x="361.134" y="128.277" transform="matrix(-0.707 0.7072 -0.7072 -0.707 859.2688 215.5171)" fill="#C75C5C" width="47.712" height="314.956"/>
	</g>
</g>
<g id="Layer_2_1_">
</g>
</svg>
