<?xml version="1.0" encoding="utf-8"?>
<!-- Generator: Adobe Illustrator 16.0.0, SVG Export Plug-In . SVG Version: 6.00 Build 0)  -->
<!DOCTYPE svg PUBLIC "-//W3C//DTD SVG 1.1//EN" "http://www.w3.org/Graphics/SVG/1.1/DTD/svg11.dtd">
<svg version="1.1" id="Layer_1" xmlns="http://www.w3.org/2000/svg" xmlns:xlink="http://www.w3.org/1999/xlink" x="0px" y="0px"
	 width="612px" height="792px" viewBox="0 0 612 792" enable-background="new 0 0 612 792" xml:space="preserve">
<g id="Layer_1_1_">
</g>
<g id="Layer_3" display="none">
</g>
<g id="Layer_5" display="none">
</g>
<g id="Layer_4">
	<g>
		<path fill="#DEFFFE" d="M439.366,390.699v76.293c0,10.563-8.563,19.125-19.125,19.125H259.217v32.637h187.478
			c13.841,0,25.102-11.26,25.102-25.102V390.698L439.366,390.699L439.366,390.699z"/>
		<g>
			<path fill="#04BFBF" d="M528.409,492.197h-104.13c-3.3,0-5.977-2.675-5.977-5.977c0-3.301,2.677-5.977,5.977-5.977h104.13
				c9.505,0,17.237-7.733,17.237-17.238s-7.732-17.239-17.237-17.239h-85.657c-3.3,0-5.977-2.675-5.977-5.977
				c0-3.301,2.677-5.977,5.977-5.977h85.657c16.097,0,29.19,13.096,29.19,29.192C557.6,479.102,544.506,492.197,528.409,492.197z"/>
		</g>
		<g>
			<path fill="#04BFBF" d="M528.409,589.818h-19.163c-16.096,0-29.19-13.096-29.19-29.191c0-16.097,13.096-29.19,29.19-29.19h19.163
				c16.097,0,29.19,13.094,29.19,29.19C557.6,576.723,544.506,589.818,528.409,589.818z M509.246,543.391
				c-9.505,0-17.237,7.732-17.237,17.237s7.732,17.239,17.237,17.239h19.163c9.505,0,17.238-7.734,17.238-17.239
				s-7.733-17.237-17.238-17.237H509.246z"/>
		</g>
		<g>
			<path fill="#04BFBF" d="M411.155,589.818H334.24c-16.096,0-29.19-13.096-29.19-29.191c0-16.097,13.096-29.19,29.19-29.19h76.915
				c16.096,0,29.19,13.094,29.19,29.19C440.346,576.723,427.25,589.818,411.155,589.818z M334.239,543.391
				c-9.505,0-17.237,7.732-17.237,17.237s7.732,17.239,17.237,17.239h76.915c9.505,0,17.237-7.734,17.237-17.239
				s-7.732-17.237-17.237-17.237H334.239z"/>
		</g>
		<path fill="#466BD9" d="M423.627,171.051H31.078c-13.842,0-25.102,11.261-25.102,25.102v270.976
			c0,11.715,7.832,21.451,18.659,24.266v21.874c0,7.446,4.142,14.132,10.811,17.449c2.772,1.377,5.744,2.057,8.697,2.056
			c4.152,0,8.268-1.341,11.738-3.967l48.319-36.574h319.427c13.842,0,25.102-11.262,25.102-25.102V196.152
			C448.729,182.312,437.469,171.051,423.627,171.051z M238.795,334.815c-33.417,0-60.605-27.188-60.605-60.604
			c0-33.417,27.188-60.605,60.605-60.605c33.417,0,60.604,27.188,60.604,60.605C299.399,307.628,272.212,334.815,238.795,334.815z"
			/>
		<g>
			<ellipse fill="#466BD9" cx="238.802" cy="274.209" rx="43.603" ry="43.603"/>
			<path fill="#E6BA2C" d="M381.135,238.878l-19.241-3.104c-2.302-7.379-5.279-14.558-8.882-21.421l11.416-15.809
				c3.663-5.072,3.11-11.964-1.313-16.388l-32.264-32.265c-4.424-4.424-11.317-4.975-16.389-1.315l-15.81,11.418
				c-6.863-3.604-14.041-6.581-21.421-8.884l-3.104-19.242c-0.997-6.176-6.261-10.659-12.517-10.659h-45.629
				c-6.256,0-11.521,4.482-12.517,10.66l-3.104,19.241c-7.38,2.303-14.558,5.28-21.42,8.884l-15.809-11.418
				c-5.073-3.662-11.965-3.11-16.389,1.315l-32.266,32.266c-4.424,4.424-4.976,11.316-1.313,16.389l11.416,15.808
				c-3.604,6.863-6.58,14.041-8.883,21.421l-19.241,3.104c-6.176,0.997-10.658,6.261-10.658,12.519v45.63
				c0,6.256,4.482,11.521,10.66,12.519l19.241,3.104c2.304,7.38,5.28,14.558,8.884,21.421l-11.417,15.809
				c-3.663,5.072-3.11,11.964,1.313,16.388l32.265,32.265c4.424,4.424,11.317,4.978,16.389,1.315l15.809-11.418
				c6.863,3.603,14.042,6.579,21.42,8.883l3.104,19.242c0.997,6.177,6.261,10.659,12.517,10.659h45.629
				c6.256,0,11.52-4.482,12.517-10.66l3.104-19.241c7.379-2.304,14.558-5.28,21.421-8.883l15.81,11.418
				c5.074,3.662,11.965,3.109,16.389-1.315l32.265-32.265c4.424-4.424,4.977-11.316,1.314-16.389l-11.417-15.808
				c3.604-6.864,6.58-14.042,8.884-21.421l19.241-3.104c6.176-0.997,10.658-6.261,10.658-12.519v-45.63
				C391.795,245.14,387.313,239.875,381.135,238.878z M238.795,329.765c-30.632,0-55.555-24.922-55.555-55.554
				s24.921-55.555,55.555-55.555c30.633,0,55.554,24.922,55.554,55.555S269.427,329.765,238.795,329.765z"/>
		</g>
		<g>
			<path fill="#466BD9" d="M574.832,670.785c-3.529,0-7.026-1.14-9.976-3.372l-37.5-28.384H288.509
				c-17.581,0-31.882-14.303-31.882-31.884V506.177c0-3.302,2.676-5.977,5.977-5.977s5.977,2.675,5.977,5.977v100.969
				c0,10.99,8.94,19.931,19.929,19.931h240.854c1.302,0,2.568,0.425,3.607,1.213l39.101,29.596c2.053,1.554,4.062,0.832,4.829,0.452
				c0.769-0.382,2.555-1.549,2.555-4.123v-23.745c0-2.289,1.308-4.378,3.368-5.378c6.938-3.364,11.248-10.24,11.248-17.943V416.741
				c0-10.989-8.939-19.93-19.93-19.93H462.741c-3.3,0-5.977-2.675-5.977-5.977c0-3.301,2.677-5.977,5.977-5.977H574.14
				c17.581,0,31.883,14.304,31.883,31.883v190.404c0,10.837-5.63,20.98-14.616,26.801v20.267c0,6.327-3.521,12.009-9.187,14.825
				C579.866,670.208,577.341,670.785,574.832,670.785z"/>
		</g>
	</g>
</g>
</svg>
