<?xml version="1.0" encoding="utf-8"?>
<!-- Generator: Adobe Illustrator 16.0.0, SVG Export Plug-In . SVG Version: 6.00 Build 0)  -->
<!DOCTYPE svg PUBLIC "-//W3C//DTD SVG 1.1//EN" "http://www.w3.org/Graphics/SVG/1.1/DTD/svg11.dtd">
<svg version="1.1" id="Layer_1" xmlns="http://www.w3.org/2000/svg" xmlns:xlink="http://www.w3.org/1999/xlink" x="0px" y="0px"
	 width="571px" height="483px" viewBox="0 0 571 483" enable-background="new 0 0 571 483" xml:space="preserve">
<g id="Layer_2">
</g>
<g>
	<g id="Icon-Envelope" transform="translate(78.000000, 232.000000)">
		<path id="Fill-3" fill="#C75C5C" d="M404.627-142.365l-18.168-18.17L218.158,7.766c-21.037,21.037-56.418,21.037-77.456,0
			l-168.3-167.344l-18.169,18.168L79.502-16.141L-45.766,109.127l18.168,18.17L97.671,2.028l24.862,24.863
			c15.3,15.299,35.381,23.903,56.419,23.903c21.037,0,41.119-8.604,56.419-23.903l24.861-24.863l125.27,125.269l18.168-18.17
			L278.402-16.141L404.627-142.365"/>
		<path id="Fill-4" fill="#C75C5C" d="M369.246,159.809H-8.472c-21.994,0-40.163-18.168-40.163-40.162v-269.662
			c0-21.994,18.169-40.162,40.163-40.162h377.718c21.994,0,40.162,18.168,40.162,40.162v269.662
			C409.408,141.641,391.24,159.809,369.246,159.809L369.246,159.809z M-9.428-164.359c-7.65,0-13.388,5.736-13.388,13.388v269.661
			c0,7.65,5.738,13.39,13.388,13.39h377.717c7.65,0,13.389-5.736,13.389-13.39v-269.661c0-7.649-5.735-13.388-13.389-13.388H-9.428
			L-9.428-164.359z"/>
	</g>
</g>
<g id="Layer_1_2_">
	<g>
		<path fill="#E0E0D1" d="M441.2,227.084c62.133,0,112.497,50.372,112.497,112.499c0,62.136-50.364,112.5-112.497,112.5
			c-62.137,0-112.503-50.364-112.503-112.5C328.699,277.459,379.063,227.084,441.2,227.084z"/>
	</g>
	<g opacity="0.2">
		<path fill="#231F20" d="M441.2,269.271c-42.719,0-77.345,34.632-77.345,77.342c0,42.717,34.63,77.341,77.345,77.341
			c42.717,0,77.344-34.626,77.344-77.341C518.544,303.903,483.917,269.271,441.2,269.271z M497.45,346.613
			c0,11.71-3.6,22.584-9.744,31.596l-78.101-78.101c9.01-6.144,19.885-9.743,31.595-9.743
			C472.217,290.365,497.45,315.599,497.45,346.613z M384.949,346.613c0-11.698,3.598-22.574,9.741-31.586l78.103,78.092
			c-9.017,6.146-19.893,9.744-31.593,9.744C410.183,402.863,384.949,377.63,384.949,346.613z"/>
	</g>
	<g>
		<path fill="#C75C5C" d="M441.2,283.334c31.017,0,56.25,25.233,56.25,56.247c0,31.018-25.233,56.251-56.25,56.251
			c-31.018,0-56.251-25.233-56.251-56.251C384.949,308.567,410.183,283.334,441.2,283.334 M441.2,262.24
			c-42.719,0-77.345,34.632-77.345,77.341c0,42.718,34.63,77.344,77.345,77.344c42.717,0,77.344-34.63,77.344-77.344
			C518.544,296.872,483.917,262.24,441.2,262.24L441.2,262.24z"/>
	</g>
	<g>
		
			<rect x="430.648" y="269.949" transform="matrix(-0.707 0.7072 -0.7072 -0.707 993.2501 267.6078)" fill="#C75C5C" width="21.088" height="139.203"/>
	</g>
</g>
<g id="Layer_2_1_">
</g>
</svg>
