<?xml version="1.0" encoding="utf-8"?>
<!-- Generator: Adobe Illustrator 16.0.0, SVG Export Plug-In . SVG Version: 6.00 Build 0)  -->
<!DOCTYPE svg PUBLIC "-//W3C//DTD SVG 1.1//EN" "http://www.w3.org/Graphics/SVG/1.1/DTD/svg11.dtd">
<svg version="1.1" id="Layer_1" xmlns="http://www.w3.org/2000/svg" xmlns:xlink="http://www.w3.org/1999/xlink" x="0px" y="0px"
	 width="571px" height="483px" viewBox="0 0 571 483" enable-background="new 0 0 571 483" xml:space="preserve">
<g id="Layer_2">
</g>
<g id="Layer_2_1_">
</g>
<g>
	<g>
		<g id="Icon-Envelope" transform="translate(78.000000, 232.000000)">
			<path id="Fill-3" fill="#3A98DD" d="M404.523-138.033l-18.17-18.168L218.053,12.1c-21.037,21.037-56.418,21.037-77.456,0
				L-27.703-155.245l-18.169,18.169L79.397-11.806L-45.872,113.461l18.168,18.17L97.565,6.362l24.862,24.861
				c15.3,15.301,35.381,23.906,56.418,23.906c21.037,0,41.119-8.605,56.419-23.906l24.861-24.861l125.27,125.269l18.168-18.17
				L278.299-11.808L404.523-138.033"/>
			<path id="Fill-4" fill="#3A98DD" d="M369.143,164.143H-8.578c-21.994,0-40.163-18.168-40.163-40.162v-269.664
				c0-21.993,18.169-40.161,40.163-40.161h377.72c21.992,0,40.162,18.168,40.162,40.161v269.662
				C409.305,145.975,391.135,164.143,369.143,164.143L369.143,164.143z M-9.534-160.025c-7.65,0-13.388,5.736-13.388,13.387v269.664
				c0,7.648,5.738,13.387,13.388,13.387h377.719c7.65,0,13.387-5.736,13.387-13.387v-269.664c0-7.65-5.736-13.389-13.387-13.389
				H-9.534V-160.025z"/>
		</g>
	</g>
	<g id="Layer_1_1_">
		<g>
			<ellipse fill="#3A98DD" cx="437.518" cy="342.363" rx="112.5" ry="110.769"/>
		</g>
		<g opacity="0.2">
			<g>
				<path fill="#231F20" d="M493.766,342.364c0-30.591-25.187-55.385-56.252-55.385c-26.36,0-48.421,17.879-54.521,41.976
					c-16.892,2.521-29.856,16.841-29.856,34.177c0,19.122,15.741,34.617,35.157,34.617h28.126c3.885,0,7.032-3.097,7.032-6.924
					v-19.04c0-2.865-2.363-5.189-5.275-5.189h-10.761c-5.173,0-6.618-3.494-3.214-7.771l27.119-34.024
					c3.406-4.275,8.979-4.275,12.385,0l27.119,34.024c3.402,4.277,1.962,7.771-3.215,7.771H456.85c-2.91,0-5.273,2.324-5.273,5.189
					v19.04c0,3.827,3.143,6.924,7.032,6.924h35.155c15.535,0,28.125-12.398,28.125-27.691
					C521.889,354.762,509.301,342.364,493.766,342.364z"/>
			</g>
		</g>
		<g>
			<g>
				<path fill="#FFFFFF" d="M493.766,335.441c0-30.591-25.187-55.386-56.252-55.386c-26.36,0-48.421,17.879-54.521,41.976
					c-16.892,2.52-29.856,16.841-29.856,34.181c0,19.118,15.741,34.613,35.157,34.613h28.126c3.885,0,7.032-3.094,7.032-6.922
					v-19.039c0-2.867-2.363-5.192-5.275-5.192h-10.761c-5.173,0-6.618-3.495-3.214-7.774l27.119-34.021
					c3.406-4.275,8.979-4.275,12.385,0l27.119,34.021c3.402,4.279,1.962,7.774-3.215,7.774H456.85c-2.91,0-5.273,2.325-5.273,5.192
					v19.039c0,3.825,3.143,6.922,7.032,6.922h35.155c15.535,0,28.125-12.397,28.125-27.693
					C521.893,347.84,509.301,335.441,493.766,335.441z"/>
			</g>
		</g>
	</g>
	<g id="Layer_2_2_">
	</g>
</g>
</svg>
