<?xml version="1.0" encoding="utf-8"?>
<!-- Generator: Adobe Illustrator 16.0.0, SVG Export Plug-In . SVG Version: 6.00 Build 0)  -->
<!DOCTYPE svg PUBLIC "-//W3C//DTD SVG 1.1//EN" "http://www.w3.org/Graphics/SVG/1.1/DTD/svg11.dtd">
<svg version="1.1" id="Layer_1" xmlns="http://www.w3.org/2000/svg" xmlns:xlink="http://www.w3.org/1999/xlink" x="0px" y="0px"
	 width="612px" height="570px" viewBox="0 0 612 570" enable-background="new 0 0 612 570" xml:space="preserve">
<g id="Layer_1_1_">
</g>
<g id="Layer_3" display="none">
</g>
<g id="Layer_5" display="none">
</g>
<g id="Layer_4">
	<g>
		<path fill="#DEFFFE" d="M439.366,280.914v76.293c0,10.563-8.563,19.125-19.125,19.125H259.217v32.637h187.479
			c13.841,0,25.102-11.26,25.102-25.102V280.913L439.366,280.914L439.366,280.914z"/>
		<g>
			<path fill="#04BFBF" d="M528.409,382.412h-104.13c-3.302,0-5.979-2.675-5.979-5.979c0-3.301,2.677-5.977,5.979-5.977h104.13
				c9.505,0,17.237-7.733,17.237-17.238s-7.732-17.239-17.237-17.239h-85.657c-3.3,0-5.977-2.675-5.977-5.977
				c0-3.301,2.677-5.979,5.977-5.979h85.657c16.097,0,29.188,13.098,29.188,29.192C557.6,369.316,544.506,382.412,528.409,382.412z"
				/>
		</g>
		<g>
			<path fill="#04BFBF" d="M528.409,480.033h-19.163c-16.096,0-29.19-13.098-29.19-29.191c0-16.097,13.098-29.19,29.19-29.19h19.163
				c16.097,0,29.188,13.096,29.188,29.19C557.6,466.938,544.506,480.033,528.409,480.033z M509.246,433.605
				c-9.505,0-17.237,7.732-17.237,17.237s7.732,17.239,17.237,17.239h19.163c9.505,0,17.237-7.734,17.237-17.239
				s-7.732-17.237-17.237-17.237H509.246z"/>
		</g>
		<g>
			<path fill="#04BFBF" d="M411.155,480.033H334.24c-16.098,0-29.19-13.098-29.19-29.191c0-16.097,13.097-29.19,29.19-29.19h76.915
				c16.096,0,29.188,13.096,29.188,29.19C440.346,466.938,427.25,480.033,411.155,480.033z M334.239,433.605
				c-9.505,0-17.237,7.732-17.237,17.237s7.732,17.239,17.237,17.239h76.915c9.505,0,17.235-7.734,17.235-17.239
				s-7.73-17.237-17.235-17.237H334.239z"/>
		</g>
		<path fill="#466BD9" d="M423.627,61.266H31.078c-13.842,0-25.102,11.261-25.102,25.102v270.976
			c0,11.715,7.832,21.451,18.659,24.268v21.872c0,7.446,4.142,14.134,10.811,17.449c2.772,1.377,5.744,2.059,8.697,2.058
			c4.152,0,8.268-1.343,11.738-3.969l48.319-36.572h319.427c13.842,0,25.102-11.264,25.102-25.104V86.367
			C448.729,72.527,437.469,61.266,423.627,61.266z M238.795,225.029c-33.417,0-60.605-27.188-60.605-60.604
			c0-33.417,27.188-60.605,60.605-60.605s60.604,27.188,60.604,60.605S272.212,225.029,238.795,225.029z"/>
		<g>
			<ellipse fill="#466BD9" cx="238.802" cy="164.424" rx="43.603" ry="43.603"/>
			<path fill="#E6BA2C" d="M381.135,129.093l-19.241-3.104c-2.302-7.379-5.277-14.558-8.882-21.421l11.416-15.809
				c3.663-5.072,3.11-11.964-1.313-16.388L330.85,40.106c-4.424-4.424-11.315-4.975-16.389-1.315l-15.81,11.418
				c-6.863-3.604-14.042-6.581-21.421-8.884l-3.104-19.242c-0.997-6.176-6.261-10.659-12.517-10.659H215.98
				c-6.256,0-11.521,4.482-12.517,10.66l-3.104,19.241c-7.38,2.303-14.558,5.28-21.42,8.884L163.13,38.791
				c-5.073-3.662-11.965-3.11-16.389,1.315l-32.266,32.266c-4.424,4.424-4.976,11.316-1.313,16.389l11.416,15.808
				c-3.604,6.863-6.58,14.041-8.883,21.421l-19.241,3.104c-6.176,0.997-10.658,6.261-10.658,12.519v45.629
				c0,6.257,4.482,11.521,10.66,12.52l19.241,3.104c2.304,7.381,5.28,14.559,8.884,21.422l-11.417,15.809
				c-3.663,5.072-3.11,11.964,1.313,16.389l32.265,32.265c4.424,4.424,11.317,4.978,16.389,1.315l15.809-11.418
				c6.863,3.603,14.042,6.578,21.42,8.883l3.104,19.242c0.997,6.177,6.261,10.657,12.517,10.657h45.629
				c6.256,0,11.52-4.48,12.517-10.659l3.104-19.24c7.379-2.306,14.558-5.28,21.421-8.883l15.81,11.418
				c5.074,3.66,11.965,3.107,16.389-1.315l32.267-32.265c4.424-4.425,4.977-11.316,1.313-16.39l-11.417-15.808
				c3.604-6.864,6.58-14.043,8.886-21.422l19.239-3.104c6.178-0.997,10.658-6.261,10.658-12.52v-45.629
				C391.795,135.355,387.313,130.09,381.135,129.093z M238.795,219.98c-30.632,0-55.555-24.923-55.555-55.555
				s24.921-55.555,55.555-55.555c30.633,0,55.554,24.922,55.554,55.555S269.427,219.98,238.795,219.98z"/>
		</g>
		<g>
			<path fill="#466BD9" d="M574.832,561c-3.529,0-7.026-1.142-9.977-3.372l-37.5-28.384H288.509
				c-17.581,0-31.882-14.305-31.882-31.884V396.392c0-3.302,2.676-5.977,5.977-5.977s5.977,2.675,5.977,5.977V497.36
				c0,10.99,8.94,19.933,19.929,19.933h240.854c1.302,0,2.566,0.425,3.605,1.213l39.103,29.596c2.053,1.556,4.062,0.832,4.829,0.452
				c0.769-0.382,2.555-1.549,2.555-4.123v-23.746c0-2.289,1.308-4.378,3.368-5.378c6.938-3.362,11.248-10.239,11.248-17.941V306.956
				c0-10.989-8.939-19.931-19.932-19.931H462.741c-3.3,0-5.979-2.675-5.979-5.978c0-3.301,2.679-5.978,5.979-5.978H574.14
				c17.581,0,31.885,14.305,31.885,31.884v190.402c0,10.839-5.632,20.98-14.616,26.803v20.267c0,6.327-3.521,12.009-9.188,14.825
				C579.866,560.423,577.341,561,574.832,561z"/>
		</g>
	</g>
</g>
</svg>
