<?xml version="1.0" ?><svg style="enable-background:new 0 0 512 512;" version="1.1" viewBox="0 0 512 512" xml:space="preserve" xmlns="http://www.w3.org/2000/svg" xmlns:xlink="http://www.w3.org/1999/xlink"><style type="text/css">
	.st0{display:none;}
	.st1{fill:#DEFFFE;}
	.st2{fill:#004358;}
	.st3{fill:#04BFBF;}
	.st4{fill:#BEDB39;}
</style><g id="Layer_1"/><g class="st0" id="Layer_3"/><g class="st0" id="Layer_5"/><g id="Layer_4"><g><path class="st1" d="M367.574,251.565v63.827c0,8.837-7.163,16-16,16H216.861v27.304h156.844c11.579,0,21-9.42,21-21v-86.132    H367.574z"/><g><path class="st3" d="M442.068,336.479h-87.115c-2.761,0-5-2.238-5-5s2.239-5,5-5h87.115c7.952,0,14.421-6.47,14.421-14.422     s-6.469-14.422-14.421-14.422h-71.661c-2.761,0-5-2.238-5-5s2.239-5,5-5h71.661c13.466,0,24.421,10.956,24.421,24.422     S455.534,336.479,442.068,336.479z"/></g><g><path class="st3" d="M442.068,418.149h-16.032c-13.466,0-24.421-10.956-24.421-24.422s10.956-24.421,24.421-24.421h16.032     c13.466,0,24.421,10.955,24.421,24.421S455.534,418.149,442.068,418.149z M426.036,379.307c-7.952,0-14.421,6.469-14.421,14.421     s6.469,14.422,14.421,14.422h16.032c7.952,0,14.421-6.47,14.421-14.422s-6.469-14.421-14.421-14.421H426.036z"/></g><g><path class="st3" d="M343.973,418.149h-64.347c-13.466,0-24.421-10.956-24.421-24.422s10.956-24.421,24.421-24.421h64.347     c13.466,0,24.421,10.955,24.421,24.421S357.438,418.149,343.973,418.149z M279.625,379.307c-7.952,0-14.421,6.469-14.421,14.421     s6.469,14.422,14.421,14.422h64.347c7.952,0,14.421-6.47,14.421-14.422s-6.469-14.421-14.421-14.421H279.625z"/></g><path class="st2" d="M354.407,67.807H26c-11.58,0-21,9.421-21,21v226.699c0,9.8,6.552,17.946,15.61,20.3v18.3    c0,6.23,3.465,11.823,9.044,14.598c2.319,1.152,4.805,1.721,7.276,1.72c3.474,0,6.917-1.122,9.82-3.319l40.424-30.598h267.233    c11.58,0,21-9.421,21-21V88.807C375.407,77.228,365.987,67.807,354.407,67.807z M199.776,204.813    c-27.957,0-50.702-22.745-50.702-50.702s22.745-50.702,50.702-50.702s50.702,22.745,50.702,50.702    S227.733,204.813,199.776,204.813z"/><g><ellipse class="st3" cx="199.776" cy="154.111" rx="36.477" ry="36.477" transform="matrix(0.3827 -0.9239 0.9239 0.3827 -19.0554 279.7043)"/><path class="st4" d="M318.858,124.552l-16.097-2.597c-1.926-6.173-4.417-12.179-7.431-17.921l9.551-13.226     c3.064-4.243,2.602-10.009-1.099-13.71L276.79,50.105c-3.701-3.701-9.468-4.162-13.711-1.1l-13.226,9.552     c-5.742-3.015-11.747-5.505-17.921-7.432l-2.597-16.098c-0.834-5.167-5.238-8.917-10.472-8.917h-38.173     c-5.234,0-9.638,3.75-10.472,8.918l-2.597,16.097c-6.174,1.927-12.179,4.417-17.92,7.432l-13.226-9.552     c-4.244-3.064-10.01-2.602-13.711,1.1L95.77,77.099c-3.701,3.701-4.163,9.467-1.099,13.711l9.551,13.225     c-3.015,5.742-5.505,11.747-7.432,17.921l-16.097,2.597c-5.167,0.834-8.917,5.238-8.917,10.473v38.174     c0,5.234,3.75,9.639,8.918,10.473l16.097,2.597c1.927,6.174,4.417,12.179,7.432,17.921l-9.551,13.226     c-3.064,4.243-2.602,10.009,1.099,13.71l26.993,26.993c3.701,3.701,9.468,4.164,13.711,1.1l13.226-9.552     c5.742,3.014,11.747,5.504,17.92,7.432l2.597,16.098c0.834,5.167,5.238,8.917,10.472,8.917h38.173     c5.234,0,9.638-3.75,10.472-8.918l2.597-16.097c6.174-1.928,12.179-4.418,17.921-7.432l13.226,9.552     c4.245,3.064,10.01,2.602,13.711-1.1l26.993-26.993c3.701-3.701,4.163-9.467,1.099-13.711l-9.551-13.225     c3.015-5.742,5.505-11.747,7.432-17.921l16.097-2.597c5.167-0.834,8.917-5.238,8.917-10.473v-38.174     C327.776,129.79,324.026,125.386,318.858,124.552z M199.776,200.588c-25.627,0-46.477-20.85-46.477-46.477     s20.849-46.477,46.477-46.477s46.477,20.85,46.477,46.477S225.403,200.588,199.776,200.588z"/></g><g><path class="st2" d="M480.905,485.886c-2.952,0-5.878-0.954-8.345-2.821l-31.373-23.746H241.367     c-14.708,0-26.673-11.966-26.673-26.674v-84.471c0-2.762,2.239-5,5-5s5,2.238,5,5v84.471c0,9.194,7.479,16.674,16.673,16.674     h201.498c1.089,0,2.149,0.355,3.018,1.014l32.712,24.76c1.717,1.3,3.398,0.696,4.04,0.378c0.643-0.319,2.137-1.295,2.137-3.449     v-19.865c0-1.915,1.094-3.663,2.818-4.499c5.804-2.815,9.41-8.567,9.41-15.012V273.352c0-9.193-7.479-16.673-16.673-16.673     H387.13c-2.761,0-5-2.238-5-5s2.239-5,5-5h93.196c14.708,0,26.673,11.966,26.673,26.673v159.293     c0,9.066-4.71,17.552-12.228,22.421v16.955c0,5.294-2.945,10.047-7.685,12.403C485.117,485.403,483.004,485.886,480.905,485.886z     "/></g></g></g></svg>