<?xml version="1.0" ?><!DOCTYPE svg  PUBLIC '-//W3C//DTD SVG 1.1//EN'  'http://www.w3.org/Graphics/SVG/1.1/DTD/svg11.dtd'><svg enable-background="new 0 0 512 512" height="512px" id="Layer_1" version="1.1" viewBox="0 0 512 512" width="512px" xml:space="preserve" xmlns="http://www.w3.org/2000/svg" xmlns:xlink="http://www.w3.org/1999/xlink"><g><path d="M510.689,478.854c0,17.561-14.275,31.836-31.836,31.836H33.146c-17.56,0-31.836-14.275-31.836-31.836   V33.146c0-17.56,14.276-31.836,31.836-31.836h445.707c17.561,0,31.836,14.276,31.836,31.836V478.854z" fill="#2172B9"/></g><path d="M285.981,85L86.856,123.531v261.73L285.981,427V85z M298.553,157.506v66.881l23.372,14.738  c0.617,0.18,1.943,0.193,2.56,0l100.631-67.837c0-8.028-7.474-13.781-11.699-13.781H298.553z M188.669,196.178  c13.14,0,23.76,5.352,31.865,16.115c8.118,10.764,12.178,24.971,12.178,42.582c0.013,18.098-4.186,32.689-12.6,43.762  c-8.413,11.073-19.396,16.623-32.934,16.623c-13.192,0-23.92-5.361-32.231-16.088c-8.298-10.738-12.487-24.725-12.487-41.963  c0-18.201,4.245-32.917,12.684-44.156C163.583,201.813,174.757,196.178,188.669,196.178z M425.144,198.315  c0,0-102.216,67.938-98.606,65.728c0,0-3.631,2.211-6.637,0l-21.348-14.652v90.9h108.366c9.634,0,18.225-5.629,18.225-19.014  V198.315z M188.078,218.538c-7.271,0-13.047,3.417-17.325,10.237c-4.277,6.821-6.44,15.844-6.44,27.084  c0,11.406,2.163,20.428,6.44,27.057c4.278,6.641,9.883,9.928,16.819,9.928c7.155,0,12.828-3.228,17.016-9.676  c4.188-6.447,6.3-15.414,6.3-26.859c0-11.932-2.031-21.202-6.104-27.843C200.712,221.837,195.143,218.538,188.078,218.538z" fill="#FFFFFF" id="rect2989-1"/></svg>