<?xml version="1.0" encoding="utf-8"?>
<!-- Generator: Adobe Illustrator 16.0.0, SVG Export Plug-In . SVG Version: 6.00 Build 0)  -->
<!DOCTYPE svg PUBLIC "-//W3C//DTD SVG 1.1//EN" "http://www.w3.org/Graphics/SVG/1.1/DTD/svg11.dtd">
<svg version="1.1" id="Layer_1" xmlns="http://www.w3.org/2000/svg" xmlns:xlink="http://www.w3.org/1999/xlink" x="0px" y="0px"
	 width="155.667px" height="128.064px" viewBox="0 0 155.667 128.064" enable-background="new 0 0 155.667 128.064"
	 xml:space="preserve">
<g>
	<g>
		<path fill="#079556" d="M119.625,53.018c1.619,3.207,4.455,3.004,7.266,2.408c2.219-0.471,3.783,0.042,5.219,1.847
			c13.688,17.206,4.293,39.347-9.744,47.529c-0.337,0.196-0.916-0.02-1.966-0.072c9.362-13.112,11.503-26.314,1.499-39.715
			c-10.514-14.079-24.777-15.977-41.189-11.983c2.205-3.535,5.332-4.915,8.438-6.287c4.792-2.115,9.809-3.038,15.059-2.942
			c6.002,0.108,12.375-0.688,14.441,7.221"/>
		<path fill="#E6BA2C" d="M137.057,96.883c-0.632-2.334,0.76-3.572,1.384-5.021c5.288-12.257,4.43-24.003-3.042-35.099
			c-1.849-2.743-3.108-5.218-2.153-8.745c0.822-3.044-1.164-5.38-3.609-7.104c-2.666-1.88-5.62-2.574-8.324-0.437
			c-2.77,2.19-5.441,2.363-8.781,1.539c-10.145-2.505-19.793-0.938-28.822,4.37c-1.069,0.629-2.012,1.868-4.004,0.843
			c5.392-7.972,13.094-11.977,22-14.124c1.547-0.373,2.271,0.988,3.203,1.941c5.012,5.116,8.397,5.501,14.424,1.307
			c2.349-1.634,4.42-1.706,6.969-0.684c21.589,8.655,29.561,41.437,14.254,58.812C139.682,95.47,138.805,96.466,137.057,96.883z"/>
		<path fill="#4A6FDC" d="M78.33,91.309c0.892,6.028-0.308,7.503-6.293,7.853c-9.488,0.553-16.599-6.021-16.898-15.617
			c-0.302-9.728,6.524-16.685,16.405-16.72c10.236-0.037,16.333,6.062,16.101,16.059c-0.088,3.826-0.071,7.654-0.127,11.479
			c-0.031,2.132,0.422,4.577-2.937,4.644c-3.819,0.073-3.012-2.756-3.058-4.941c-0.085-3.988,0.144-7.991-0.095-11.97
			c-0.352-5.854-3.893-9.475-9.264-9.894c-4.848-0.377-9.244,2.822-10.362,7.542c-1.32,5.567,1.419,11.346,6.109,13.407
			C71.86,94.886,74.918,92.256,78.33,91.309z"/>
		<path fill="#4A6FDC" d="M100.932,99.013c-2.162,0-4.324-0.01-6.485,0.004c-1.91,0.012-3.756,0.041-3.794-2.682
			c-0.039-2.822,1.728-3.218,3.951-3.197c3.326,0.03,6.655,0.109,9.978-0.031c2.155-0.091,5.217,1.037,5.887-2.117
			c0.75-3.531-2.805-3.581-4.869-4.521c-3.012-1.369-6.203-2.339-9.303-3.521c-3.873-1.477-5.928-4.213-5.443-8.449
			c0.501-4.395,3.121-7.044,7.449-7.362c4.96-0.365,9.961-0.158,14.941-0.281c1.879-0.047,2.821,0.782,2.864,2.59
			c0.05,2.028-1.032,3.067-3.051,3.083c-3.81,0.028-7.617,0.002-11.425,0.06c-1.645,0.023-3.537-0.094-3.959,2.101
			c-0.437,2.272,1.478,2.699,2.99,3.268c3.729,1.397,7.525,2.622,11.226,4.093c3.961,1.573,6.146,4.49,5.713,8.896
			c-0.453,4.63-3.328,7.229-7.709,7.849c-2.933,0.413-5.972,0.079-8.961,0.079C100.932,98.917,100.932,98.965,100.932,99.013z"/>
		<path fill="#4A6FDC" d="M23.654,87.531c0.001-2.164-0.051-4.329,0.01-6.491c0.248-8.823,5.993-14.604,14.399-14.531
			c7.976,0.069,13.193,5.522,13.435,14.225c0.129,4.657-0.004,9.32,0.035,13.98c0.021,2.376-0.229,4.408-3.373,4.301
			c-3.276-0.112-3.163-2.561-3.008-4.661c0.344-4.655,0.503-9.291-0.114-13.93c-0.693-5.209-3.658-8.354-7.716-8.212
			c-4.141,0.146-6.822,3.394-7.081,8.637c-0.221,4.476-0.6,8.935-0.076,13.436c0.271,2.325,0.153,4.82-3.421,4.75
			c-3.296-0.066-3.107-2.288-3.095-4.512C23.663,92.192,23.653,89.861,23.654,87.531z"/>
		<path fill="#4A6FDC" d="M16.543,82.912c0,4.157-0.051,8.316,0.02,12.475c0.042,2.479-0.932,3.7-3.518,3.662
			c-2.365-0.035-3.255-1.245-3.253-3.434c0.006-8.483,0.031-16.968-0.022-25.45c-0.015-2.296,0.926-3.351,3.244-3.365
			c2.525-0.018,3.603,1.112,3.552,3.637C16.482,74.594,16.542,78.753,16.543,82.912z"/>
		<path fill="#13995E" d="M121.686,52.151"/>
		<path fill="#FFFFFF" d="M12.812,56.11c2.312,0.163,3.646,1.43,3.841,3.692c0.22,2.548-1.439,3.598-3.646,3.612
			c-1.971,0.013-3.531-0.875-3.501-3.227C9.536,57.983,10.303,56.346,12.812,56.11z"/>
		<circle fill="#E5B929" cx="112.669" cy="30.249" r="6.904"/>
	</g>
</g>
<circle fill="#13995E" cx="125.199" cy="47.844" r="6.219"/>
</svg>
