<?xml version="1.0" encoding="utf-8"?>
<!-- Generator: Adobe Illustrator 27.6.1, SVG Export Plug-In . SVG Version: 6.00 Build 0)  -->
<svg version="1.1" id="Camada_1" xmlns="http://www.w3.org/2000/svg" xmlns:xlink="http://www.w3.org/1999/xlink" x="0px" y="0px"
	 viewBox="0 0 350 350" style="enable-background:new 0 0 350 350;" xml:space="preserve">
<style type="text/css">
	.st0{fill:#F9B415;}
	.st1{fill:#2FA736;}
	.st2{fill:#FFFFFF;}
</style>
<path class="st0" d="M261.46,96.22c0,6.02-4.87,10.9-10.89,10.9s-10.89-4.87-10.89-10.9c0-6.01,4.87-10.89,10.89-10.89
	S261.46,90.21,261.46,96.22z"/>
<path class="st1" d="M280.88,126.91c0,5.25-4.25,9.51-9.48,9.51c-5.23,0-9.48-4.26-9.48-9.51c0-5.25,4.25-9.5,9.48-9.5
	C276.64,117.41,280.88,121.66,280.88,126.91z"/>
<path class="st1" d="M259.16,227.51c11.4-10.35,18.02-24.81,18.02-40.01c0-30.41-25.92-55.15-57.77-55.15
	c-7.47,0-17.73,1.37-25.79,4.02c10.55-9.87,26.79-16.23,42.33-16.23c7.22,0,15.29,1.39,21.41,3.66c-0.2,0.96-0.3,1.92-0.3,2.88
	c0,7.98,6.48,14.48,14.45,14.48c2.77,0,5.42-0.78,7.74-2.26c10.03,11.12,14.91,22.77,14.91,35.58c0,12.49-4.36,25.01-12.28,35.24
	C275.77,217.6,267.89,223.74,259.16,227.51z"/>
<path class="st0" d="M279.16,221.85c13.32-11.53,21.14-27.97,21.14-45.65c0-15.4-5.96-30.08-16.8-41.48
	c1.58-2.36,2.45-5.18,2.45-8.05c0-7.98-6.48-14.47-14.44-14.47c-4.92,0-9.46,2.5-12.12,6.59c-7.56-2.85-15.52-4.29-23.69-4.29
	c-17.38,0-33.93,6.73-45.98,18.38c9.66-16.33,26.14-27.86,45.04-31.07c2.42,6.57,8.76,11.07,15.83,11.07
	c6.23,0,11.94-3.46,14.86-8.91c12.68,4.06,24.05,12.12,32.12,22.82c8.58,11.37,13.12,24.94,13.12,39.25
	c0,14.29-4.53,27.85-13.09,39.21C292.55,211.91,286.25,217.55,279.16,221.85z"/>
<g>
	<path class="st2" d="M33.91,136.48c0-4.51,3.33-7.84,7.84-7.84s7.84,3.32,7.84,7.84c0,4.51-3.32,7.95-7.84,7.95
		S33.91,140.99,33.91,136.48z M36.16,153.7h11.28v58.66H36.16V153.7z"/>
	<path class="st2" d="M61.1,181.84c0-19.59,11.64-29.68,28.97-29.68s28.97,9.97,28.97,29.68v30.52h-11.28v-30.52
		c0-12.71-7.01-19.24-17.69-19.24s-17.69,6.53-17.69,19.24v30.52H61.1V181.84z"/>
	<path class="st2" d="M128.3,183.5c0-18.4,13.06-31.35,31.7-31.35c18.4,0,31.23,12.59,31.23,31.35v28.85H180.9v-12.82
		c-3.92,9.5-12.59,14.37-22.8,14.37C142.79,213.89,128.3,202.85,128.3,183.5z M180.07,183.02c0-11.87-8.07-20.42-20.19-20.42
		c-12.11,0-20.19,8.55-20.19,20.42c0,11.87,8.07,20.42,20.19,20.42C172,203.45,180.07,194.9,180.07,183.02z"/>
	<path class="st2" d="M200.73,195.37h11.4c0.24,4.87,4.75,8.31,12.94,8.31c8.55,0,12.94-3.68,12.94-8.31
		c0-5.58-6.17-6.29-13.54-7.24c-10.21-1.31-22.56-3.21-22.56-16.62c0-11.52,9.02-19.35,23.03-19.35c14.01,0,22.68,7.95,22.92,18.05
		h-11.16c-0.36-4.51-4.51-7.84-11.64-7.84c-7.48,0-11.76,3.56-11.76,8.19c0,5.58,6.17,6.17,13.42,7.12
		c10.21,1.31,22.68,3.21,22.68,16.62c0,11.87-9.62,19.59-24.34,19.59C210.35,213.89,201.09,206.06,200.73,195.37z"/>
</g>
</svg>
