<?xml version="1.0" encoding="utf-8"?>
<!-- Generator: Adobe Illustrator 16.0.0, SVG Export Plug-In . SVG Version: 6.00 Build 0)  -->
<!DOCTYPE svg PUBLIC "-//W3C//DTD SVG 1.1//EN" "http://www.w3.org/Graphics/SVG/1.1/DTD/svg11.dtd">
<svg version="1.1" id="Layer_1" xmlns="http://www.w3.org/2000/svg" xmlns:xlink="http://www.w3.org/1999/xlink" x="0px" y="0px"
	 width="155.667px" height="128.065px" viewBox="0 0 155.667 128.065" enable-background="new 0 0 155.667 128.065"
	 xml:space="preserve">
<g>
	<g>
		<path fill-rule="evenodd" clip-rule="evenodd" fill="#079556" d="M119.624,53.018c1.62,3.207,4.455,3.004,7.266,2.408
			c2.219-0.471,3.783,0.042,5.219,1.847c13.688,17.206,4.293,39.346-9.744,47.529c-0.337,0.196-0.916-0.02-1.966-0.072
			c9.362-13.113,11.503-26.315,1.499-39.715C111.385,50.936,97.12,49.038,80.708,53.031c2.206-3.535,5.332-4.915,8.438-6.287
			c4.792-2.115,9.809-3.038,15.058-2.942c6.002,0.108,12.375-0.688,14.442,7.221"/>
		<path fill-rule="evenodd" clip-rule="evenodd" fill="#E6BA2C" d="M137.057,96.883c-0.631-2.334,0.76-3.572,1.384-5.021
			c5.288-12.257,4.429-24.003-3.042-35.099c-1.848-2.743-3.109-5.218-2.154-8.745c0.823-3.044-1.163-5.38-3.609-7.105
			c-2.666-1.88-5.62-2.574-8.324-0.436c-2.77,2.19-5.441,2.363-8.781,1.539c-10.145-2.505-19.793-0.938-28.822,4.37
			c-1.07,0.629-2.012,1.868-4.004,0.843c5.391-7.972,13.094-11.977,21.999-14.124c1.548-0.373,2.271,0.988,3.204,1.941
			c5.012,5.116,8.397,5.501,14.424,1.307c2.348-1.634,4.419-1.706,6.969-0.684c21.588,8.655,29.56,41.437,14.253,58.812
			C139.682,95.47,138.805,96.466,137.057,96.883z"/>
		<path fill-rule="evenodd" clip-rule="evenodd" fill="#FFFFFF" d="M78.33,91.309c0.892,6.028-0.308,7.503-6.293,7.852
			c-9.488,0.553-16.599-6.02-16.898-15.617c-0.302-9.727,6.524-16.684,16.405-16.72c10.236-0.037,16.332,6.062,16.101,16.059
			c-0.088,3.826-0.072,7.654-0.127,11.48c-0.031,2.131,0.422,4.577-2.936,4.643c-3.82,0.073-3.012-2.756-3.058-4.941
			c-0.085-3.989,0.144-7.992-0.095-11.97c-0.352-5.854-3.893-9.475-9.264-9.894c-4.848-0.377-9.244,2.823-10.362,7.542
			c-1.32,5.568,1.419,11.346,6.109,13.408C71.86,94.886,74.918,92.256,78.33,91.309z"/>
		<path fill-rule="evenodd" clip-rule="evenodd" fill="#FFFFFF" d="M100.932,99.013c-2.162,0-4.324-0.01-6.485,0.004
			c-1.911,0.012-3.756,0.041-3.794-2.682c-0.039-2.822,1.728-3.218,3.951-3.197c3.326,0.03,6.656,0.109,9.977-0.031
			c2.156-0.091,5.218,1.037,5.887-2.118c0.75-3.531-2.805-3.581-4.869-4.52c-3.012-1.369-6.203-2.339-9.302-3.521
			c-3.873-1.476-5.929-4.212-5.444-8.449c0.501-4.394,3.121-7.044,7.449-7.362c4.96-0.365,9.961-0.158,14.942-0.281
			c1.878-0.047,2.821,0.782,2.864,2.59c0.049,2.028-1.033,3.067-3.051,3.083c-3.809,0.028-7.617,0.001-11.424,0.059
			c-1.645,0.024-3.538-0.094-3.959,2.101c-0.437,2.272,1.477,2.699,2.989,3.267c3.729,1.398,7.526,2.622,11.226,4.093
			c3.961,1.573,6.145,4.49,5.713,8.896c-0.453,4.629-3.328,7.229-7.709,7.848c-2.933,0.413-5.971,0.079-8.961,0.079
			C100.932,98.917,100.932,98.965,100.932,99.013z"/>
		<path fill-rule="evenodd" clip-rule="evenodd" fill="#FFFFFF" d="M23.654,87.531c0.001-2.164-0.051-4.329,0.01-6.491
			c0.248-8.823,5.993-14.604,14.399-14.531c7.976,0.069,13.193,5.522,13.435,14.225c0.129,4.657-0.004,9.32,0.035,13.98
			c0.021,2.376-0.229,4.408-3.373,4.301c-3.276-0.112-3.163-2.561-3.008-4.661c0.344-4.656,0.503-9.291-0.114-13.93
			c-0.693-5.209-3.658-8.354-7.716-8.212c-4.141,0.146-6.822,3.394-7.081,8.637c-0.221,4.475-0.6,8.934-0.076,13.435
			c0.271,2.326,0.153,4.821-3.421,4.75c-3.296-0.066-3.107-2.288-3.095-4.511C23.663,92.192,23.653,89.861,23.654,87.531z"/>
		<path fill-rule="evenodd" clip-rule="evenodd" fill="#FFFFFF" d="M16.543,82.912c0,4.158-0.051,8.317,0.02,12.475
			c0.042,2.478-0.932,3.7-3.518,3.662c-2.365-0.035-3.255-1.245-3.253-3.434c0.006-8.483,0.031-16.967-0.022-25.45
			c-0.015-2.296,0.926-3.35,3.244-3.365c2.525-0.018,3.603,1.112,3.552,3.637C16.482,74.594,16.542,78.753,16.543,82.912z"/>
		<path fill-rule="evenodd" clip-rule="evenodd" fill="#13995E" d="M121.686,52.151"/>
		<path fill-rule="evenodd" clip-rule="evenodd" fill="#FFFFFF" d="M12.812,56.11c2.312,0.163,3.646,1.429,3.841,3.692
			c0.22,2.548-1.439,3.598-3.646,3.612c-1.971,0.013-3.531-0.875-3.501-3.226C9.536,57.983,10.303,56.346,12.812,56.11z"/>
		<circle fill-rule="evenodd" clip-rule="evenodd" fill="#E5B929" cx="112.67" cy="30.249" r="6.904"/>
	</g>
</g>
<circle fill-rule="evenodd" clip-rule="evenodd" fill="#13995E" cx="125.198" cy="47.844" r="6.219"/>
</svg>
