<?xml version="1.0" encoding="UTF-8"?>
<svg id="Camada_1" data-name="Camada 1" xmlns="http://www.w3.org/2000/svg" viewBox="0 0 334.67 171.92">
  <defs>
    <style>
      .cls-1 {
        fill: #f9b415;
      }

      .cls-2 {
        fill: #4169f1;
      }

      .cls-3 {
        fill: #2fa736;
      }
    </style>
  </defs>
  <path class="cls-1" d="m275.16,13.16c0,7.28-5.89,13.17-13.17,13.17s-13.17-5.89-13.17-13.17,5.89-13.16,13.17-13.16,13.17,5.89,13.17,13.16Z"/>
  <path class="cls-3" d="m298.65,50.27c0,6.35-5.13,11.49-11.47,11.49s-11.47-5.15-11.47-11.49,5.14-11.49,11.47-11.49,11.47,5.14,11.47,11.49Z"/>
  <path class="cls-3" d="m272.38,171.92c13.79-12.51,21.79-30,21.79-48.38,0-36.78-31.34-66.69-69.86-66.69-9.04,0-21.44,1.66-31.19,4.86,12.76-11.94,32.4-19.63,51.18-19.63,8.73,0,18.49,1.68,25.88,4.42-.24,1.16-.36,2.33-.36,3.49,0,9.65,7.84,17.5,17.47,17.5,3.34,0,6.55-.94,9.36-2.74,12.13,13.44,18.03,27.53,18.03,43.03s-5.27,30.24-14.84,42.62c-7.38,9.54-16.91,16.97-27.46,21.52Z"/>
  <path class="cls-1" d="m296.56,165.08c16.1-13.94,25.57-33.82,25.57-55.2,0-18.62-7.2-36.38-20.32-50.15,1.92-2.86,2.96-6.26,2.96-9.73,0-9.65-7.84-17.5-17.47-17.5-5.95,0-11.44,3.02-14.65,7.97-9.14-3.44-18.77-5.19-28.65-5.19-21.02,0-41.02,8.14-55.6,22.22,11.69-19.75,31.61-33.69,54.46-37.57,2.93,7.95,10.6,13.38,19.14,13.38,7.53,0,14.43-4.18,17.97-10.77,15.33,4.9,29.08,14.66,38.84,27.59,10.38,13.75,15.86,30.16,15.86,47.46s-5.47,33.67-15.83,47.42c-6.07,8.05-13.69,14.88-22.27,20.07Z"/>
  <g>
    <path class="cls-2" d="m0,61.85c0-5.46,4.02-9.48,9.48-9.48s9.48,4.02,9.48,9.48-4.02,9.62-9.48,9.62S0,67.3,0,61.85Zm2.73,20.82h13.64v70.93H2.73v-70.93Z"/>
    <path class="cls-2" d="m32.88,116.69c0-23.69,14.07-35.89,35.03-35.89s35.03,12.06,35.03,35.89v36.9h-13.64v-36.9c0-15.36-8.47-23.26-21.39-23.26s-21.39,7.9-21.39,23.26v36.9h-13.64v-36.9Z"/>
    <path class="cls-2" d="m114.15,118.7c0-22.25,15.79-37.9,38.34-37.9s37.76,15.22,37.76,37.9v34.89h-12.49v-15.51c-4.74,11.49-15.22,17.37-27.57,17.37-18.52,0-36.04-13.35-36.04-36.76Zm62.6-.57c0-14.36-9.76-24.7-24.41-24.7s-24.41,10.34-24.41,24.7,9.76,24.7,24.41,24.7,24.41-10.34,24.41-24.7Z"/>
    <path class="cls-2" d="m201.73,133.06h13.78c.29,5.89,5.74,10.05,15.65,10.05s15.65-4.45,15.65-10.05c0-6.75-7.47-7.61-16.37-8.76-12.35-1.58-27.28-3.88-27.28-20.1,0-13.93,10.91-23.4,27.85-23.4s27.42,9.62,27.71,21.82h-13.5c-.43-5.46-5.46-9.48-14.07-9.48-9.05,0-14.21,4.31-14.21,9.91,0,6.75,7.47,7.47,16.22,8.62,12.35,1.58,27.42,3.88,27.42,20.1,0,14.36-11.63,23.69-29.43,23.69s-29-9.48-29.43-22.4Z"/>
  </g>
</svg>