<?xml version="1.0" encoding="utf-8"?>
<!-- Generator: Adobe Illustrator 16.0.0, SVG Export Plug-In . SVG Version: 6.00 Build 0)  -->
<!DOCTYPE svg PUBLIC "-//W3C//DTD SVG 1.1//EN" "http://www.w3.org/Graphics/SVG/1.1/DTD/svg11.dtd">
<svg version="1.1" id="Layer_1" xmlns="http://www.w3.org/2000/svg" xmlns:xlink="http://www.w3.org/1999/xlink" x="0px" y="0px"
	 width="612px" height="570px" viewBox="0 0 612 570" enable-background="new 0 0 612 570" xml:space="preserve">
<g id="Layer_1_1_">
</g>
<g id="Layer_3" display="none">
</g>
<g id="Layer_5" display="none">
</g>
<path fill="#466BD9" d="M538.173,264.697l-0.212-0.484l0.122-0.092l-1.528-2.927l-82.306-156.7c-2.239-4.09-10.065-16.1-25.109-16.1
	H153.451c-16.786,0-25.186,16.536-25.372,16.921L47.253,259.21l-0.031,0.068l-0.575,1.085c-1.354,2.679-4.362,9.962-1.376,17.157
	c20.534,33.34,57.142,55.702,99.166,55.702c41.085,0,76.925-21.433,97.694-53.535c3.178-7.292-1.248-16.426-1.248-16.426
	l-76.467-145.623l-0.745-1.411c-1.03-2.373-1.945-6.891,6.254-6.891h100.26c2.842,0.094,10.772,1.502,10.772,14.779V469.1
	c-0.189,3.411-1.483,10.336-8.59,14.717l-50.191,31.045c0,0-13.164,8.308,0,8.308h142.428c9.709,0,0-6.735,0-6.735l-51.704-31.648
	c-0.03-0.015-0.03-0.029-0.045-0.045c-8.506-5.206-10.095-11.759-10.321-15.072V122.645c0-11.999,8.597-13.236,11.624-13.308h98.029
	c2.566,0.049,10.385,0.901,5.465,10.313l-76.767,146.136c0,0-2.406,5.752,0.303,12.06c20.555,33.15,57.023,55.376,98.908,55.376
	c41.97,0,78.567-22.271,99.105-55.532C541.253,272.328,538.946,266.377,538.173,264.697z M216.057,260.092l0.007,0.008l1.053,2.023
	c1.627,3.361,4.083,9.763-1.053,9.763L70.315,271.87c-4.836,0-3.875-4.427-2.335-8l2.313-4.384l0.022-0.038l69.479-132.294
	c0,0,3.549-5.487,6.432,0h0.008L216.057,260.092z M366.236,261.696l1.029-1.96c0-0.007,0.038-0.08,0.038-0.08l67.935-129.342
	c0.091-0.141,4.698-8.911,9.399,0.023l67.73,128.941c1.399,2.773,5.682,12.622-4.367,12.622l-135.264-0.023
	c-0.021,0-0.021,0-0.021,0C362.86,271.87,364.64,265.157,366.236,261.696z"/>
</svg>
