<?xml version="1.0" encoding="utf-8"?>
<!-- Generator: Adobe Illustrator 16.0.0, SVG Export Plug-In . SVG Version: 6.00 Build 0)  -->
<!DOCTYPE svg PUBLIC "-//W3C//DTD SVG 1.1//EN" "http://www.w3.org/Graphics/SVG/1.1/DTD/svg11.dtd">
<svg version="1.1" id="Layer_1" xmlns="http://www.w3.org/2000/svg" xmlns:xlink="http://www.w3.org/1999/xlink" x="0px" y="0px"
	 width="612px" height="792px" viewBox="0 0 612 792" enable-background="new 0 0 612 792" xml:space="preserve">
<g id="Layer_1_1_">
</g>
<g id="Layer_3" display="none">
</g>
<g id="Layer_5" display="none">
</g>
<g id="Layer_4">
	<g>
		<rect x="79.254" y="211.03" fill="#DEFFFE" width="520.341" height="50.94"/>
		<g>
			<g>
				<path fill="#04BFBF" d="M543.594,414.085c-2.887-14.799-13.768-26.399-27.611-30.668c8.44-7.45,13.779-18.338,13.779-30.457
					v-15.092c0-22.405-18.229-40.632-40.633-40.632c-22.403,0-40.632,18.229-40.632,40.632v15.092
					c0,12.117,5.338,23.005,13.778,30.457c-13.843,4.269-24.724,15.869-27.61,30.668l-3.173,16.266
					c-0.342,1.753,0.118,1.176,1.254,2.554s2.827,2.177,4.613,2.177h103.539c1.785,0,3.477-0.799,4.612-2.177
					c1.136-1.379,1.595-0.801,1.254-2.554L543.594,414.085z M460.45,337.87c0-15.814,12.865-28.679,28.679-28.679
					c15.814,0,28.68,12.865,28.68,28.679v15.092c0,15.814-12.865,28.679-28.68,28.679c-15.813,0-28.679-12.865-28.679-28.679V337.87
					z M444.614,425.52l1.783-9.146c2.574-13.198,14.203-22.78,27.651-22.78h30.16c13.447,0,25.076,9.58,27.651,22.78l1.783,9.146
					H444.614z"/>
				<path fill="#04BFBF" d="M543.594,582.597c-2.887-14.799-13.768-26.399-27.611-30.668c8.44-7.45,13.779-18.339,13.779-30.456
					v-15.092c0-22.404-18.229-40.632-40.633-40.632c-22.403,0-40.632,18.228-40.632,40.632v15.092
					c0,12.117,5.338,23.006,13.778,30.456c-13.843,4.269-24.724,15.869-27.61,30.668l-3.173,16.267
					c-0.342,1.753,0.118,1.176,1.254,2.554s2.827,2.177,4.613,2.177h103.539c1.785,0,3.477-0.799,4.612-2.177
					s1.595-0.801,1.254-2.554L543.594,582.597z M460.45,506.381c0-15.813,12.865-28.679,28.679-28.679
					c15.814,0,28.68,12.865,28.68,28.679v15.093c0,15.813-12.865,28.679-28.68,28.679c-15.813,0-28.679-12.865-28.679-28.679
					V506.381z M444.614,594.031l1.783-9.146c2.574-13.199,14.203-22.78,27.651-22.78h30.16c13.447,0,25.076,9.58,27.651,22.78
					l1.783,9.146H444.614z"/>
				<circle fill="#04BFBF" cx="192.285" cy="227.488" r="5.977"/>
				<circle fill="#04BFBF" cx="563.824" cy="227.488" r="5.977"/>
				<circle fill="#04BFBF" cx="398.626" cy="303.213" r="5.977"/>
				<circle fill="#04BFBF" cx="398.626" cy="471.726" r="5.977"/>
				<circle fill="#04BFBF" cx="154.266" cy="227.488" r="5.977"/>
				<circle fill="#04BFBF" cx="116.245" cy="227.488" r="5.977"/>
			</g>
			<g>
				<path fill="#466BD9" d="M211.605,513.386c-2.897-14.861-15.991-25.646-31.131-25.646h-33.293
					c-15.141,0-28.233,10.785-31.131,25.646l-3.501,17.955l-0.927,4.832h104.531l-1.021-4.711c-0.008-0.04-0.017-0.081-0.025-0.121
					L211.605,513.386z"/>
				<path fill="#466BD9" d="M104.317,511.098c3.216-16.49,15.552-29.332,31.132-33.695c-9.682-8.12-15.854-20.298-15.854-33.894
					v-27.337c0-3.3,2.676-5.977,5.977-5.977s5.977,2.677,5.977,5.977v27.337c0,17.798,14.48,32.277,32.277,32.277
					c17.797,0,32.277-14.48,32.277-32.277v-29.981c0-3.301,2.676-5.977,5.977-5.977s5.977,2.676,5.977,5.977v29.981
					c0,13.596-6.17,25.773-15.854,33.894c15.58,4.363,27.917,17.205,31.132,33.695l3.489,17.896l1.555,7.18h22.64l33.738,25.537
					c2.767,2.094,6.05,3.164,9.362,3.164c2.355,0,4.726-0.542,6.935-1.641c5.316-2.644,8.621-7.975,8.621-13.913v-16.143
					c8.048-4.313,13.209-12.725,13.209-22.106V330.424c0-13.842-11.26-25.102-25.102-25.102H31.078
					c-13.842,0-25.102,11.26-25.102,25.102v180.647c0,13.842,11.26,25.102,25.102,25.102h68.396L104.317,511.098z"/>
				<path fill="#466BD9" d="M580.922,186.016H98.379c-13.842,0-25.102,11.26-25.102,25.102v77.244c0,3.3,2.676,5.977,5.977,5.977
					s5.977-2.676,5.977-5.977v-77.244c0-7.25,5.899-13.148,13.148-13.148h482.543c7.25,0,13.148,5.899,13.148,13.148v45.891H101.965
					c-3.3,0-5.977,2.676-5.977,5.977s2.676,5.977,5.977,5.977h251.951v309.454c0,3.301,2.677,5.977,5.977,5.977
					c3.301,0,5.977-2.676,5.977-5.977V268.961H594.07v156.56H377.468c-3.3,0-5.977,2.677-5.977,5.977
					c0,3.301,2.677,5.977,5.977,5.977H594.07v143.41c0,7.25-5.898,13.148-13.148,13.148H98.379c-7.25,0-13.148-5.898-13.148-13.148
					v-26.863c0-3.301-2.676-5.977-5.977-5.977s-5.977,2.676-5.977,5.977v26.863c0,13.842,11.26,25.102,25.102,25.102h482.543
					c13.842,0,25.102-11.26,25.102-25.102V211.117C606.023,197.276,594.764,186.016,580.922,186.016z"/>
			</g>
			<path fill="#E6BA2C" d="M222.267,371.913c0.043-0.68,0.064-1.359,0.064-2.032c0-18.235-14.835-33.07-33.069-33.07
				c-11.29,0-21.507,5.621-27.545,14.751c-3.658-3.403-8.527-5.393-13.739-5.393c-8.535,0-15.848,5.329-18.787,12.833
				c-2.164-0.598-4.417-0.905-6.715-0.905c-13.843,0-25.104,11.261-25.104,25.104c0,5.674,1.854,11.027,5.283,15.409
				c-0.23,1.224-0.348,2.465-0.348,3.718c0,11.121,9.047,20.168,20.168,20.168c5.428,0,10.513-2.207,14.219-5.896
				c3.291,2.227,7.217,3.48,11.283,3.48c2.227,0,4.431-0.373,6.518-1.087c4.895,6.862,12.928,11.164,21.581,11.164
				c8.793,0,16.823-4.3,21.702-11.306c2.093,0.508,4.249,0.766,6.449,0.766c15.034,0,27.264-12.229,27.264-27.263
				C231.493,384.455,228.102,377.053,222.267,371.913z"/>
		</g>
	</g>
</g>
</svg>
