<?xml version="1.0" ?><svg style="enable-background:new 0 0 512 512;" version="1.1" viewBox="0 0 512 512" xml:space="preserve" xmlns="http://www.w3.org/2000/svg" xmlns:xlink="http://www.w3.org/1999/xlink"><style type="text/css">
	.st0{display:none;}
	.st1{fill:#DEFFFE;}
	.st2{fill:#004358;}
	.st3{fill:#04BFBF;}
	.st4{fill:#BEDB39;}
</style><g id="Layer_1"/><g class="st0" id="Layer_3"/><g class="st0" id="Layer_5"/><g id="Layer_4"><g><rect class="st1" height="42.617" width="435.318" x="66.304" y="101.254"/><g><g><path class="st3" d="M454.771,271.13c-2.415-12.381-11.518-22.086-23.099-25.657c7.061-6.233,11.527-15.342,11.527-25.48      v-12.626c0-18.744-15.25-33.993-33.993-33.993s-33.993,15.25-33.993,33.993v12.626c0,10.137,4.466,19.246,11.527,25.48      c-11.581,3.571-20.684,13.276-23.099,25.657l-2.654,13.608c-0.286,1.466,0.099,0.983,1.049,2.136      c0.95,1.153,2.365,1.821,3.859,1.821h86.621c1.494,0,2.909-0.668,3.859-1.821c0.95-1.153,1.334-0.67,1.049-2.136L454.771,271.13      z M385.213,207.368c0-13.23,10.763-23.993,23.993-23.993s23.993,10.763,23.993,23.993v12.626      c0,13.23-10.763,23.993-23.993,23.993s-23.993-10.763-23.993-23.993V207.368z M371.965,280.696l1.492-7.651      c2.153-11.042,11.882-19.058,23.133-19.058h25.232c11.25,0,20.979,8.015,23.133,19.058l1.492,7.651H371.965z"/><path class="st3" d="M454.771,412.107c-2.415-12.381-11.518-22.086-23.099-25.657c7.061-6.233,11.527-15.342,11.527-25.479      v-12.626c0-18.744-15.25-33.993-33.993-33.993s-33.993,15.249-33.993,33.993v12.626c0,10.137,4.466,19.246,11.527,25.479      c-11.581,3.571-20.684,13.276-23.099,25.657l-2.654,13.609c-0.286,1.466,0.099,0.983,1.049,2.136      c0.95,1.153,2.365,1.821,3.859,1.821h86.621c1.494,0,2.909-0.668,3.859-1.821c0.95-1.153,1.334-0.67,1.049-2.136      L454.771,412.107z M385.213,348.345c0-13.229,10.763-23.993,23.993-23.993s23.993,10.763,23.993,23.993v12.626      c0,13.229-10.763,23.993-23.993,23.993s-23.993-10.763-23.993-23.993V348.345z M371.965,421.673l1.492-7.652      c2.153-11.042,11.882-19.058,23.133-19.058h25.232c11.25,0,20.979,8.015,23.133,19.058l1.492,7.652H371.965z"/><circle class="st3" cx="160.866" cy="115.023" r="5"/><circle class="st3" cx="471.696" cy="115.023" r="5"/><circle class="st3" cx="333.491" cy="178.374" r="5"/><circle class="st3" cx="333.491" cy="319.352" r="5"/><circle class="st3" cx="129.059" cy="115.023" r="5"/><circle class="st3" cx="97.251" cy="115.023" r="5"/></g><g><path class="st2" d="M177.029,354.205c-2.424-12.433-13.378-21.456-26.044-21.456h-27.853c-12.667,0-23.62,9.023-26.044,21.456      l-2.929,15.021l-0.776,4.043h87.451l-0.854-3.941c-0.007-0.034-0.014-0.068-0.021-0.102L177.029,354.205z"/><path class="st2" d="M87.272,352.291c2.691-13.796,13.011-24.539,26.045-28.19c-8.1-6.793-13.263-16.981-13.263-28.355v-22.87      c0-2.761,2.239-5,5-5s5,2.239,5,5v22.87c0,14.89,12.114,27.003,27.003,27.003s27.003-12.114,27.003-27.003v-25.083      c0-2.761,2.239-5,5-5s5,2.239,5,5v25.083c0,11.374-5.162,21.562-13.263,28.355c13.034,3.651,23.355,14.394,26.045,28.19      l2.919,14.971l1.301,6.007h18.941l28.225,21.364c2.315,1.752,5.061,2.647,7.832,2.647c1.97,0,3.954-0.453,5.802-1.372      c4.448-2.212,7.212-6.672,7.212-11.64v-13.505c6.733-3.608,11.051-10.645,11.051-18.494v-151.13c0-11.58-9.42-21-21-21H26      c-11.58,0-21,9.42-21,21v151.13c0,11.58,9.42,21,21,21h57.22L87.272,352.291z"/><path class="st2" d="M486,80.327H82.304c-11.58,0-21,9.42-21,21v64.622c0,2.761,2.239,5,5,5s5-2.239,5-5v-64.622      c0-6.065,4.935-11,11-11H486c6.065,0,11,4.935,11,11v38.392H85.304c-2.761,0-5,2.239-5,5s2.239,5,5,5h210.783v258.89      c0,2.761,2.239,5,5,5s5-2.239,5-5v-258.89H497v130.978H315.79c-2.761,0-5,2.239-5,5s2.239,5,5,5H497v119.977      c0,6.065-4.935,11-11,11H82.304c-6.065,0-11-4.935-11-11v-22.474c0-2.761-2.239-5-5-5s-5,2.239-5,5v22.474      c0,11.58,9.42,21,21,21H486c11.58,0,21-9.42,21-21V101.327C507,89.747,497.58,80.327,486,80.327z"/></g><path class="st4" d="M185.949,235.849c0.036-0.569,0.054-1.137,0.054-1.7c0-15.255-12.411-27.666-27.666-27.666     c-9.445,0-17.993,4.702-23.044,12.341c-3.06-2.847-7.134-4.512-11.494-4.512c-7.14,0-13.258,4.458-15.717,10.736     c-1.81-0.5-3.695-0.757-5.618-0.757c-11.581,0-21.002,9.421-21.002,21.002c0,4.747,1.551,9.225,4.42,12.891     c-0.193,1.023-0.291,2.062-0.291,3.11c0,9.304,7.569,16.873,16.873,16.873c4.541,0,8.795-1.847,11.896-4.933     c2.753,1.862,6.038,2.912,9.439,2.912c1.863,0,3.707-0.312,5.453-0.91c4.095,5.741,10.816,9.34,18.055,9.34     c7.356,0,14.074-3.597,18.156-9.458c1.751,0.425,3.554,0.64,5.395,0.64c12.577,0,22.809-10.231,22.809-22.808     C193.667,246.341,190.83,240.149,185.949,235.849z"/></g></g></g></svg>