<?xml version="1.0" encoding="utf-8"?>
<!-- Generator: Adobe Illustrator 16.0.0, SVG Export Plug-In . SVG Version: 6.00 Build 0)  -->
<!DOCTYPE svg PUBLIC "-//W3C//DTD SVG 1.1//EN" "http://www.w3.org/Graphics/SVG/1.1/DTD/svg11.dtd">
<svg version="1.1" id="Layer_1" xmlns="http://www.w3.org/2000/svg" xmlns:xlink="http://www.w3.org/1999/xlink" x="0px" y="0px"
	 width="612px" height="570px" viewBox="0 0 612 570" enable-background="new 0 0 612 570" xml:space="preserve">
<g id="Layer_1_1_">
</g>
<g id="Layer_3" display="none">
</g>
<g id="Layer_5" display="none">
</g>
<g transform="translate(0 -1028.4)">
	<path fill="#BDC3C7" d="M144.427,1180.281c-19.604,0-35.499,15.972-35.499,35.497v248.489c0,19.518,15.894,35.5,35.499,35.5
		h106.496h35.499h106.495c19.62,0,35.498-15.982,35.498-35.5v-248.489c0-19.525-15.878-35.497-35.498-35.497H286.421h-35.499
		H144.427z"/>
	<path fill="#ECF0F1" d="M144.427,1162.532c-19.604,0-35.499,15.894-35.499,35.499v248.489c0,19.621,15.894,35.498,35.499,35.498
		h106.496h35.499h106.495c19.62,0,35.498-15.877,35.498-35.498V1198.03c0-19.604-15.878-35.499-35.498-35.499H286.421h-35.499
		H144.427z"/>
	<path fill="#48A8D8" d="M144.427,1162.532c-19.604,0-35.499,15.894-35.499,35.499v53.247v17.75h319.486v-17.75v-53.247
		c0-19.604-15.878-35.499-35.498-35.499H286.421h-35.499H144.427z"/>
	<path fill="#26489E" d="M188.799,1206.904c0,14.708-11.916,26.625-26.624,26.625c-14.707,0-26.623-11.917-26.623-26.625
		c0-14.706,11.916-26.623,26.623-26.623C176.883,1180.281,188.799,1192.198,188.799,1206.904z"/>
	<path fill="#BDC3C7" d="M162.176,1127.033c-9.802,0-17.749,7.947-17.749,17.749v53.248c0,9.802,7.947,17.748,17.749,17.748
		c9.802,0,17.75-7.946,17.75-17.748v-53.248C179.925,1134.981,171.978,1127.033,162.176,1127.033z"/>
	<path fill="#26489E" d="M401.79,1206.904c0,14.708-11.925,26.625-26.624,26.625c-14.698,0-26.623-11.917-26.623-26.625
		c0-14.706,11.925-26.623,26.623-26.623C389.865,1180.281,401.79,1192.198,401.79,1206.904z"/>
	<g>
		<path fill="#BDC3C7" d="M375.166,1127.033c-9.793,0-17.748,7.098-17.748,17.749v53.248c0,8.874,7.955,17.748,17.748,17.748
			s17.75-8.874,17.75-17.748v-53.248C392.916,1134.131,384.959,1127.033,375.166,1127.033z"/>
		<path fill="#BDC3C7" d="M144.427,1304.526v35.5h35.499v-35.5H144.427z M197.674,1304.526v35.5h35.499v-35.5H197.674z
			 M250.922,1304.526v35.5h35.499v-35.5H250.922z M304.169,1304.526v35.5h35.498v-35.5H304.169z M357.418,1304.526v35.5h35.498
			v-35.5H357.418z"/>
		<path fill="#BDC3C7" d="M144.427,1357.773v35.498h35.499v-35.498H144.427z M197.674,1357.773v35.498h35.499v-35.498H197.674z
			 M250.922,1357.773v35.498h35.499v-35.498H250.922z M304.169,1357.773v35.498h35.498v-35.498H304.169z M357.418,1357.773v35.498
			h35.498v-35.498H357.418z"/>
		<path fill="#BDC3C7" d="M144.427,1411.019v35.5h35.499v-35.5H144.427z M197.674,1411.019v35.5h35.499v-35.5H197.674z
			 M250.922,1411.019v35.5h35.499v-35.5H250.922z M304.169,1411.019v35.5h35.498v-35.5H304.169z M357.418,1411.019v35.5h35.498
			v-35.5H357.418z"/>
	</g>
</g>
<g id="Layer_1_2_">
	<g>
		<circle fill="#ECF0F1" cx="404.983" cy="430.693" r="66.003"/>
	</g>
	<g opacity="0.2">
		<path fill="#231F20" d="M401.789,376.367c31.716,0,57.523,25.808,57.523,57.521s-25.809,57.521-57.523,57.521
			c-31.714,0-57.521-25.808-57.521-57.521S370.074,376.367,401.789,376.367z M401.789,363.585
			c-38.825,0-70.302,31.477-70.302,70.303c0,38.829,31.477,70.306,70.302,70.306c38.828,0,70.304-31.477,70.304-70.306
			C472.093,395.062,440.616,363.585,401.789,363.585L401.789,363.585z"/>
	</g>
	<g>
		<path fill="#26489E" d="M401.789,369.977c31.716,0,57.523,25.805,57.523,57.521c0,31.714-25.809,57.52-57.523,57.52
			c-31.714,0-57.521-25.807-57.521-57.52C344.269,395.779,370.074,369.977,401.789,369.977 M401.789,357.193
			c-38.825,0-70.302,31.479-70.302,70.304c0,38.828,31.477,70.305,70.302,70.305c38.828,0,70.304-31.477,70.304-70.305
			C472.093,388.673,440.616,357.193,401.789,357.193L401.789,357.193z"/>
	</g>
	<g opacity="0.2">
		<g>
			<path fill="#231F20" d="M427.354,465.843c-1.633,0-3.268-0.626-4.518-1.87l-27.438-27.438v-28.212
				c0-3.528,2.861-6.393,6.388-6.393c3.527,0,6.392,2.864,6.392,6.393v22.914l23.692,23.695c2.498,2.496,2.498,6.54,0,9.038
				C430.624,465.22,428.991,465.843,427.354,465.843z"/>
		</g>
	</g>
	<g>
		<path fill="#26489E" d="M427.354,459.451c-1.633,0-3.268-0.623-4.518-1.871l-27.438-27.435v-28.218
			c0-3.525,2.861-6.391,6.388-6.391c3.527,0,6.392,2.865,6.392,6.391v22.914l23.692,23.697c2.498,2.496,2.498,6.539,0,9.04
			C430.624,458.828,428.991,459.451,427.354,459.451z"/>
	</g>
</g>
</svg>
