<?xml version="1.0" encoding="utf-8"?>
<!-- Generator: Adobe Illustrator 16.0.0, SVG Export Plug-In . SVG Version: 6.00 Build 0)  -->
<!DOCTYPE svg PUBLIC "-//W3C//DTD SVG 1.1//EN" "http://www.w3.org/Graphics/SVG/1.1/DTD/svg11.dtd">
<svg version="1.1" id="Layer_1" xmlns="http://www.w3.org/2000/svg" xmlns:xlink="http://www.w3.org/1999/xlink" x="0px" y="0px"
	 width="612px" height="792px" viewBox="0 0 612 792" enable-background="new 0 0 612 792" xml:space="preserve">
<g id="Layer_1_1_">
</g>
<g id="Layer_3" display="none">
</g>
<g id="Layer_5" display="none">
</g>
<g id="Layer_4">
	<g>
		<path fill="#DEFFFE" d="M440.82,362.842v76.294c0,10.563-8.562,19.125-19.125,19.125H260.671v32.637h187.478
			c13.84,0,25.102-11.261,25.102-25.102V362.842H440.82z"/>
		<g>
			<path fill="#04BFBF" d="M528.409,467.303H423.782c-3.301,0-5.977-2.677-5.977-5.977s2.676-5.977,5.977-5.977h104.627
				c9.505,0,17.239-7.732,17.239-17.237s-7.734-17.239-17.239-17.239h-85.657c-3.302,0-5.977-2.676-5.977-5.977
				c0-3.3,2.675-5.977,5.977-5.977h85.657c16.097,0,29.192,13.096,29.192,29.192C557.602,454.208,544.506,467.303,528.409,467.303z"
				/>
		</g>
		<g>
			<path fill="#04BFBF" d="M528.409,564.9h-19.163c-16.096,0-29.19-13.097-29.19-29.192s13.095-29.19,29.19-29.19h19.163
				c16.097,0,29.192,13.096,29.192,29.19C557.602,551.806,544.506,564.9,528.409,564.9z M509.246,518.471
				c-9.505,0-17.237,7.732-17.237,17.237s7.732,17.239,17.237,17.239h19.163c9.505,0,17.239-7.734,17.239-17.239
				s-7.734-17.237-17.239-17.237H509.246z"/>
		</g>
		<g>
			<path fill="#04BFBF" d="M411.155,564.9H334.24c-16.096,0-29.191-13.097-29.191-29.192s13.096-29.19,29.191-29.19h76.915
				c16.096,0,29.191,13.096,29.191,29.19C440.347,551.806,427.25,564.9,411.155,564.9z M334.24,518.471
				c-9.505,0-17.238,7.732-17.238,17.237s7.733,17.239,17.238,17.239h76.915c9.505,0,17.239-7.734,17.239-17.239
				s-7.734-17.237-17.239-17.237H334.24z"/>
		</g>
		<path fill="#466BD9" d="M423.627,146.129H31.078c-13.84,0-25.102,11.26-25.102,25.102v270.977
			c0,11.715,7.832,21.451,18.659,24.266v21.874c0,7.445,4.142,14.131,10.81,17.446c2.771,1.379,5.743,2.058,8.697,2.058
			c4.153,0,8.269-1.343,11.738-3.968l48.318-36.574h319.428c13.841,0,25.102-11.26,25.102-25.102V171.231
			C448.729,157.391,437.468,146.129,423.627,146.129z"/>
		<g>
			<g>
				<path fill="#E6BA2C" d="M185.813,406.43c-9.076,0-17.607-3.535-24.023-9.95l-48.388-48.386
					c-6.417-6.418-9.952-14.949-9.952-24.023s3.535-17.607,9.952-24.025c6.416-6.416,14.947-9.951,24.022-9.951c0.001,0,0,0,0.001,0
					c9.075,0,17.606,3.535,24.022,9.951l24.367,24.364l107.444-107.444c6.416-6.417,14.947-9.951,24.022-9.951
					c9.076,0,17.607,3.535,24.023,9.951c6.418,6.417,9.952,14.949,9.952,24.024c0,9.076-3.534,17.607-9.952,24.023L209.836,396.477
					C203.421,402.895,194.889,406.43,185.813,406.43z M137.425,302.046c-5.882,0-11.412,2.292-15.569,6.45
					c-4.16,4.16-6.451,9.69-6.451,15.572c0,5.881,2.291,11.412,6.45,15.571l48.387,48.386c4.159,4.159,9.689,6.45,15.571,6.45
					c5.882,0,11.412-2.292,15.569-6.45l131.468-131.467c4.159-4.159,6.449-9.688,6.449-15.57s-2.291-11.412-6.449-15.571
					c-4.159-4.159-9.689-6.45-15.571-6.45c-5.881,0-11.412,2.292-15.569,6.45L190.039,337.088c-2.332,2.333-6.119,2.333-8.451,0
					l-28.592-28.589C148.838,304.336,143.307,302.046,137.425,302.046z"/>
			</g>
		</g>
		<g>
			<path fill="#466BD9" d="M574.83,645.867c-3.528,0-7.024-1.141-9.974-3.371l-37.501-28.386H288.509
				c-17.579,0-31.882-14.304-31.882-31.883v-98.814c0-3.3,2.675-5.977,5.977-5.977s5.977,2.677,5.977,5.977v98.813
				c0,10.989,8.94,19.929,19.929,19.929h240.854c1.303,0,2.568,0.426,3.607,1.211l39.103,29.598
				c2.053,1.555,4.059,0.833,4.828,0.451s2.555-1.548,2.555-4.123v-23.745c0-2.29,1.309-4.379,3.368-5.378
				c6.938-3.365,11.247-10.24,11.247-17.944V391.822c0-10.99-8.939-19.929-19.931-19.929H466.743c-3.302,0-5.977-2.676-5.977-5.977
				s2.675-5.977,5.977-5.977H574.14c17.581,0,31.884,14.303,31.884,31.882v190.404c0,10.836-5.63,20.98-14.616,26.8v20.266
				c0,6.327-3.519,12.009-9.187,14.826C579.867,645.29,577.341,645.867,574.83,645.867z"/>
		</g>
	</g>
</g>
</svg>
