<?xml version="1.0" encoding="utf-8"?>
<!-- Generator: Adobe Illustrator 16.0.0, SVG Export Plug-In . SVG Version: 6.00 Build 0)  -->
<!DOCTYPE svg PUBLIC "-//W3C//DTD SVG 1.1//EN" "http://www.w3.org/Graphics/SVG/1.1/DTD/svg11.dtd">
<svg version="1.1" id="Layer_1" xmlns="http://www.w3.org/2000/svg" xmlns:xlink="http://www.w3.org/1999/xlink" x="0px" y="0px"
	 width="612px" height="570px" viewBox="0 0 612 570" enable-background="new 0 0 612 570" xml:space="preserve">
<g id="Layer_1_1_">
</g>
<g id="Layer_3" display="none">
</g>
<g id="Layer_5" display="none">
</g>
<g id="Layer_4">
	<g>
		<path fill="#DEFFFE" d="M440.82,254.975v76.294c0,10.563-8.563,19.125-19.125,19.125H260.671v32.639H448.15
			c13.84,0,25.102-11.263,25.102-25.104V254.975H440.82z"/>
		<g>
			<path fill="#04BFBF" d="M528.409,359.436H423.782c-3.301,0-5.979-2.677-5.979-5.977s2.678-5.979,5.979-5.979h104.627
				c9.505,0,17.239-7.73,17.239-17.235s-7.734-17.239-17.239-17.239h-85.657c-3.302,0-5.977-2.676-5.977-5.977
				s2.675-5.979,5.977-5.979h85.657c16.097,0,29.19,13.096,29.19,29.192C557.602,346.341,544.506,359.436,528.409,359.436z"/>
		</g>
		<g>
			<path fill="#04BFBF" d="M528.409,457.033h-19.163c-16.096,0-29.19-13.099-29.19-29.192s13.097-29.19,29.19-29.19h19.163
				c16.097,0,29.19,13.098,29.19,29.19C557.602,443.938,544.506,457.033,528.409,457.033z M509.246,410.604
				c-9.505,0-17.237,7.732-17.237,17.237s7.732,17.239,17.237,17.239h19.163c9.505,0,17.239-7.734,17.239-17.239
				s-7.734-17.237-17.239-17.237H509.246z"/>
		</g>
		<g>
			<path fill="#04BFBF" d="M411.155,457.033H334.24c-16.098,0-29.191-13.099-29.191-29.192s13.096-29.19,29.191-29.19h76.915
				c16.096,0,29.189,13.098,29.189,29.19C440.347,443.938,427.25,457.033,411.155,457.033z M334.24,410.604
				c-9.505,0-17.238,7.732-17.238,17.237s7.733,17.239,17.238,17.239h76.915c9.505,0,17.237-7.734,17.237-17.239
				s-7.732-17.237-17.237-17.237H334.24z"/>
		</g>
		<path fill="#466BD9" d="M423.627,38.262H31.078c-13.84,0-25.102,11.26-25.102,25.102v270.977c0,11.715,7.832,21.451,18.659,24.266
			v21.874c0,7.445,4.142,14.132,10.81,17.446c2.771,1.379,5.743,2.058,8.697,2.058c4.153,0,8.269-1.343,11.738-3.968l48.318-36.574
			h319.428c13.841,0,25.102-11.26,25.102-25.102V63.364C448.729,49.524,437.468,38.262,423.627,38.262z"/>
		<g>
			<g>
				<path fill="#E6BA2C" d="M185.813,298.563c-9.076,0-17.607-3.535-24.023-9.949l-48.388-48.387
					c-6.417-6.418-9.952-14.949-9.952-24.023c0-9.073,3.535-17.606,9.952-24.024c6.416-6.416,14.947-9.951,24.022-9.951
					c0.001,0,0,0,0.001,0c9.075,0,17.606,3.535,24.022,9.951l24.367,24.364l107.444-107.444c6.416-6.417,14.947-9.951,24.022-9.951
					c9.076,0,17.605,3.535,24.021,9.951c6.418,6.417,9.952,14.949,9.952,24.024c0,9.076-3.534,17.607-9.952,24.023L209.836,288.609
					C203.421,295.027,194.889,298.563,185.813,298.563z M137.425,194.179c-5.882,0-11.412,2.292-15.569,6.45
					c-4.16,4.16-6.451,9.689-6.451,15.572c0,5.881,2.291,11.412,6.45,15.57l48.387,48.387c4.159,4.158,9.689,6.449,15.571,6.449
					s11.412-2.291,15.569-6.449L332.85,148.691c4.159-4.159,6.449-9.688,6.449-15.57c0-5.882-2.291-11.412-6.449-15.571
					c-4.157-4.159-9.688-6.45-15.569-6.45c-5.881,0-11.412,2.292-15.569,6.45L190.039,229.221c-2.332,2.333-6.119,2.333-8.451,0
					l-28.592-28.589C148.838,196.469,143.307,194.179,137.425,194.179z"/>
			</g>
		</g>
		<g>
			<path fill="#466BD9" d="M574.83,538c-3.528,0-7.024-1.143-9.974-3.371l-37.501-28.386H288.509
				c-17.579,0-31.882-14.306-31.882-31.883v-98.814c0-3.3,2.675-5.977,5.977-5.977s5.977,2.677,5.977,5.977v98.813
				c0,10.989,8.94,19.931,19.929,19.931h240.854c1.303,0,2.566,0.426,3.605,1.211l39.104,29.598
				c2.053,1.557,4.059,0.833,4.828,0.451c0.769-0.382,2.555-1.548,2.555-4.123v-23.745c0-2.29,1.309-4.379,3.368-5.378
				c6.938-3.365,11.247-10.24,11.247-17.942V283.955c0-10.99-8.939-19.93-19.933-19.93H466.743c-3.302,0-5.979-2.676-5.979-5.977
				s2.677-5.977,5.979-5.977H574.14c17.581,0,31.886,14.303,31.886,31.881v190.404c0,10.837-5.631,20.98-14.616,26.802v20.266
				c0,6.327-3.521,12.009-9.188,14.826C579.867,537.423,577.341,538,574.83,538z"/>
		</g>
	</g>
</g>
</svg>
