<?xml version="1.0" ?><svg style="enable-background:new 0 0 512 512;" version="1.1" viewBox="0 0 512 512" xml:space="preserve" xmlns="http://www.w3.org/2000/svg" xmlns:xlink="http://www.w3.org/1999/xlink"><style type="text/css">
	.st0{display:none;}
	.st1{fill:#DEFFFE;}
	.st2{fill:#004358;}
	.st3{fill:#04BFBF;}
	.st4{fill:#BEDB39;}
</style><g id="Layer_1"/><g class="st0" id="Layer_3"/><g class="st0" id="Layer_5"/><g id="Layer_4"><g><path class="st1" d="M368.791,228.26v63.827c0,8.837-7.163,16-16,16H218.078v27.304h156.844c11.579,0,21-9.42,21-21V228.26    H368.791z"/><g><path class="st3" d="M442.068,315.652h-87.531c-2.762,0-5-2.239-5-5s2.238-5,5-5h87.531c7.952,0,14.422-6.469,14.422-14.421     s-6.47-14.422-14.422-14.422h-71.661c-2.762,0-5-2.239-5-5s2.238-5,5-5h71.661c13.466,0,24.422,10.956,24.422,24.422     C466.49,304.697,455.534,315.652,442.068,315.652z"/></g><g><path class="st3" d="M442.068,397.302h-16.032c-13.466,0-24.421-10.956-24.421-24.422c0-13.466,10.955-24.421,24.421-24.421     h16.032c13.466,0,24.422,10.956,24.422,24.421C466.49,386.347,455.534,397.302,442.068,397.302z M426.036,358.459     c-7.952,0-14.421,6.469-14.421,14.421s6.469,14.422,14.421,14.422h16.032c7.952,0,14.422-6.47,14.422-14.422     s-6.47-14.421-14.422-14.421H426.036z"/></g><g><path class="st3" d="M343.973,397.302h-64.347c-13.466,0-24.422-10.956-24.422-24.422c0-13.466,10.956-24.421,24.422-24.421     h64.347c13.466,0,24.422,10.956,24.422,24.421C368.395,386.347,357.438,397.302,343.973,397.302z M279.626,358.459     c-7.952,0-14.422,6.469-14.422,14.421s6.47,14.422,14.422,14.422h64.347c7.952,0,14.422-6.47,14.422-14.422     s-6.47-14.421-14.422-14.421H279.626z"/></g><path class="st2" d="M354.407,46.958H26c-11.579,0-21,9.42-21,21v226.7c0,9.8,6.552,17.946,15.61,20.3v18.3    c0,6.229,3.465,11.822,9.043,14.596c2.318,1.153,4.805,1.721,7.276,1.721c3.474,0,6.918-1.123,9.82-3.319l40.423-30.598h267.234    c11.579,0,21-9.42,21-21v-226.7C375.407,56.379,365.986,46.958,354.407,46.958z"/><g><g><path class="st4" d="M155.452,264.725c-7.593,0-14.73-2.957-20.098-8.324l-40.481-40.48c-5.369-5.369-8.326-12.506-8.326-20.098      c0-7.592,2.957-14.73,8.326-20.099c5.367-5.368,12.505-8.325,20.097-8.325c0.001,0,0,0,0.001,0      c7.592,0,14.729,2.957,20.097,8.325l20.385,20.383l89.888-89.888c5.367-5.369,12.505-8.325,20.097-8.325      c7.593,0,14.73,2.957,20.098,8.325c5.369,5.369,8.326,12.506,8.326,20.099s-2.957,14.73-8.326,20.098L175.549,256.399      C170.182,261.768,163.044,264.725,155.452,264.725z M114.97,177.398c-4.921,0-9.547,1.917-13.025,5.396      c-3.48,3.48-5.397,8.107-5.397,13.028c0,4.92,1.917,9.547,5.396,13.027l40.481,40.48c3.479,3.479,8.106,5.396,13.027,5.396      s9.547-1.917,13.025-5.396l109.986-109.986c3.48-3.479,5.396-8.105,5.396-13.026s-1.917-9.547-5.396-13.027      c-3.479-3.479-8.106-5.396-13.027-5.396c-4.92,0-9.547,1.917-13.025,5.396l-93.424,93.424c-1.951,1.952-5.119,1.952-7.07,0      l-23.92-23.918C124.518,179.314,119.891,177.398,114.97,177.398z"/></g></g><g><path class="st2" d="M480.904,465.039c-2.952,0-5.877-0.954-8.344-2.82l-31.374-23.748H241.367     c-14.707,0-26.673-11.966-26.673-26.673V329.13c0-2.761,2.238-5,5-5s5,2.239,5,5v82.667c0,9.194,7.479,16.673,16.673,16.673     h201.498c1.09,0,2.149,0.356,3.018,1.013l32.713,24.761c1.718,1.301,3.396,0.697,4.04,0.378c0.643-0.32,2.137-1.295,2.137-3.45     v-19.865c0-1.916,1.095-3.663,2.818-4.499c5.804-2.815,9.409-8.567,9.409-15.012V252.505c0-9.194-7.479-16.673-16.674-16.673     h-89.848c-2.762,0-5-2.239-5-5s2.238-5,5-5h89.848c14.708,0,26.674,11.966,26.674,26.673v159.292     c0,9.066-4.71,17.553-12.228,22.421v16.954c0,5.294-2.944,10.047-7.685,12.404C485.118,464.556,483.004,465.039,480.904,465.039z     "/></g></g></g></svg>