<?xml version="1.0" encoding="utf-8"?>
<!-- Generator: Adobe Illustrator 16.0.0, SVG Export Plug-In . SVG Version: 6.00 Build 0)  -->
<!DOCTYPE svg PUBLIC "-//W3C//DTD SVG 1.1//EN" "http://www.w3.org/Graphics/SVG/1.1/DTD/svg11.dtd">
<svg version="1.1" id="Layer_1" xmlns="http://www.w3.org/2000/svg" xmlns:xlink="http://www.w3.org/1999/xlink" x="0px" y="0px"
	 width="612px" height="570px" viewBox="0 0 612 570" enable-background="new 0 0 612 570" xml:space="preserve">
<g id="Layer_1_1_">
</g>
<g id="Layer_3" display="none">
</g>
<g id="Layer_5" display="none">
</g>
<g>
	<path fill="#DEFFFE" d="M434.979,244.967v78.992c0,10.937-8.866,19.802-19.802,19.802H248.458v33.792h194.109
		c14.329,0,25.989-11.661,25.989-25.991V244.967H434.979z"/>
	<g>
		<path fill="#04BFBF" d="M525.664,353.121H417.338c-3.418,0-6.191-2.771-6.191-6.188c0-3.417,2.773-6.19,6.191-6.19h108.326
			c9.842,0,17.85-8.004,17.85-17.845s-8.008-17.849-17.85-17.849h-88.686c-3.419,0-6.188-2.771-6.188-6.188
			c0-3.417,2.77-6.19,6.188-6.19h88.686c16.666,0,30.222,13.56,30.222,30.225C555.889,339.563,542.33,353.121,525.664,353.121z"/>
	</g>
	<g>
		<path fill="#04BFBF" d="M525.664,454.17h-19.84c-16.665,0-30.224-13.563-30.224-30.225s13.562-30.223,30.224-30.223h19.84
			c16.666,0,30.222,13.562,30.222,30.223C555.889,440.612,542.33,454.17,525.664,454.17z M505.824,406.099
			c-9.842,0-17.848,8.006-17.848,17.847s8.006,17.849,17.848,17.849h19.84c9.842,0,17.85-8.008,17.85-17.849
			s-8.008-17.847-17.85-17.847H505.824z"/>
	</g>
	<g>
		<path fill="#04BFBF" d="M404.264,454.17h-79.635c-16.668,0-30.223-13.563-30.223-30.225s13.559-30.223,30.223-30.223h79.635
			c16.665,0,30.221,13.562,30.221,30.223C434.488,440.612,420.928,454.17,404.264,454.17z M324.629,406.099
			c-9.841,0-17.848,8.006-17.848,17.847s8.007,17.849,17.848,17.849h79.635c9.842,0,17.847-8.008,17.847-17.849
			s-8.005-17.847-17.847-17.847H324.629z"/>
	</g>
	<path fill="#466BD9" d="M432.377,40.262H36.962c-13.941,0-25.286,11.336-25.286,25.271v272.802c0,11.795,7.889,21.596,18.795,24.43
		v22.021c0,7.496,4.172,14.229,10.889,17.564c2.792,1.389,5.785,2.071,8.761,2.071c4.184,0,8.33-1.351,11.824-3.993l48.671-36.82
		h321.76c13.94,0,25.284-11.337,25.284-25.272V65.534C457.661,51.6,446.318,40.262,432.377,40.262z"/>
	<g>
		<g>
			<path fill="#04BFBF" d="M195.758,276.053c-8.501,0-16.492-3.311-22.502-9.32l-45.326-45.324
				c-6.011-6.012-9.322-14.003-9.322-22.502c0-8.5,3.311-16.492,9.322-22.503c6.01-6.01,14.001-9.322,22.502-9.322c0,0,0,0,0,0
				c8.501,0,16.492,3.312,22.502,9.322l22.824,22.822L296.403,98.581c6.01-6.011,14.002-9.321,22.503-9.321
				c8.502,0,16.491,3.312,22.501,9.321c6.012,6.011,9.32,14.003,9.32,22.504c0,8.501-3.309,16.493-9.32,22.502L218.261,266.73
				C212.252,272.742,204.26,276.053,195.758,276.053z M150.433,178.276c-5.51,0-10.689,2.146-14.583,6.041
				c-3.897,3.897-6.043,9.076-6.043,14.587c0,5.509,2.146,10.69,6.042,14.584l45.325,45.325c3.896,3.895,9.076,6.042,14.585,6.042
				c5.51,0,10.69-2.147,14.583-6.042L333.49,135.666c3.895-3.896,6.041-9.075,6.041-14.584s-2.146-10.69-6.041-14.586
				c-3.893-3.895-9.073-6.042-14.584-6.042c-5.508,0-10.689,2.147-14.584,6.042L199.717,211.1c-2.185,2.185-5.732,2.185-7.916,0
				l-26.783-26.78C161.124,180.42,155.943,178.276,150.433,178.276z"/>
		</g>
	</g>
	<g>
		<path fill="#466BD9" d="M573.727,538c-3.652,0-7.272-1.183-10.326-3.49l-38.827-29.39H277.281c-18.2,0-33.009-14.812-33.009-33.01
			v-102.31c0-3.416,2.77-6.188,6.188-6.188s6.188,2.772,6.188,6.188v102.309c0,11.376,9.256,20.635,20.633,20.635h249.372
			c1.349,0,2.656,0.441,3.731,1.254l40.488,30.645c2.125,1.612,4.201,0.862,4.998,0.467c0.796-0.396,2.646-1.603,2.646-4.269
			v-24.585c0-2.371,1.354-4.534,3.487-5.568c7.183-3.483,11.645-10.601,11.645-18.575V274.972c0-11.379-9.256-20.635-20.639-20.635
			H461.817c-3.418,0-6.19-2.771-6.19-6.188c0-3.417,2.772-6.188,6.19-6.188h111.194c18.203,0,33.015,14.809,33.015,33.009v197.137
			c0,11.221-5.831,21.722-15.133,27.75v20.982c0,6.551-3.646,12.434-9.514,15.351C578.942,537.402,576.326,538,573.727,538z"/>
	</g>
</g>
</svg>
