<?xml version="1.0" encoding="utf-8"?>
<!-- Generator: Adobe Illustrator 16.0.0, SVG Export Plug-In . SVG Version: 6.00 Build 0)  -->
<!DOCTYPE svg PUBLIC "-//W3C//DTD SVG 1.1//EN" "http://www.w3.org/Graphics/SVG/1.1/DTD/svg11.dtd">
<svg version="1.1" id="Layer_1" xmlns="http://www.w3.org/2000/svg" xmlns:xlink="http://www.w3.org/1999/xlink" x="0px" y="0px"
	 width="612px" height="570px" viewBox="0 0 612 570" enable-background="new 0 0 612 570" xml:space="preserve">
<g id="Layer_1_1_">
</g>
<g id="Layer_3" display="none">
</g>
<g id="Layer_5" display="none">
</g>
<path fill="#466BD9" d="M385.789,519.184H151.353c-23.539,0-42.624-19.085-42.624-42.626V156.874
	c0-23.539,19.085-42.624,42.624-42.624h74.594V71.625c0-23.54,19.085-42.625,42.624-42.625c23.539,0,42.624,19.085,42.624,42.625
	v42.625h74.595c23.539,0,42.624,19.085,42.624,42.624v319.684C428.413,500.099,409.328,519.184,385.789,519.184z M289.883,71.625
	c0-11.765-9.553-21.312-21.312-21.312c-11.765,0-21.313,9.547-21.313,21.312v63.938c0,11.763,9.548,21.311,21.313,21.311
	c11.759,0,21.312-9.548,21.312-21.311V71.625z M407.102,156.874c0-11.765-9.554-21.311-21.313-21.311h-74.595
	c0,23.539-19.085,42.624-42.624,42.624c-23.539,0-42.624-19.085-42.624-42.624h-74.594c-11.764,0-21.312,9.546-21.312,21.311
	v255.748h40.461c2.461-6.275,6.993-16.505,12.362-23.872c0.266-0.146,9.038-18.524,53.261-19.074
	c0.062-0.218,0.104-11.104,0.233-10.938c-3.409-2.154-7.852-5.505-11.202-8.701c-2.716-1.665-12.369-10.968-15.469-27.523
	c-0.927-5.776-5.204-33.02-5.204-44.395c0-33.79,13.482-67.995,63.438-67.995c0.222,0,1.066,0,1.29,0
	c49.955,0,63.441,34.206,63.441,67.995c0,11.375-4.286,38.618-5.201,44.395c-3.102,16.556-12.748,25.858-15.475,27.523
	c-3.342,3.206-7.784,6.547-11.208,8.701c0.146-0.166,0.198,10.729,0.239,10.938c44.238,0.55,52.999,18.929,53.259,19.074
	c5.371,7.367,9.896,17.597,12.363,23.872h40.472V156.874z M279.373,353.888c0,0.032,0,0.041,0,0.041
	c-0.042,0-0.188-8.323-0.188-8.323s12.426-6.411,21.646-14.685c5.401-4.444,7.887-14.516,7.887-14.516
	c1.458-8.825,2.541-30.658,2.541-39.456c0-21.975-11.012-45.611-42.698-45.611c0,0,0-0.064,0-0.073v0.073
	c-31.693,0-42.697,23.648-42.697,45.611c0,8.798,1.096,30.631,2.533,39.456c0,0,2.491,10.071,7.898,14.516
	c9.214,8.273,21.64,14.685,21.64,14.685s-0.15,8.323-0.192,8.323c0,0,0-0.009,0-0.041c0,0,0.311,12.207,0.311,15.838
	c0,14.519-14.548,21.511-23.69,21.511c-0.021,0-0.021,0-0.032,0c-27.633,1.219-34.153,10.396-34.206,10.479
	c-1.686,2.706-4.015,5.392-6.169,10.906h149.238c-2.164-5.515-4.496-8.2-6.202-10.886c-0.062-0.104-6.599-9.28-34.217-10.489
	c-0.009,0-0.009,0-0.021,0c-9.147,0-23.695-6.981-23.695-21.521C279.061,366.095,279.373,353.888,279.373,353.888z M407.102,433.934
	H130.041v42.624c0,11.76,9.548,21.313,21.312,21.313h234.437c11.759,0,21.313-9.554,21.313-21.313V433.934z M343.163,476.558
	h-31.969c-5.889,0-10.655-4.765-10.655-10.655s4.767-10.655,10.655-10.655h31.969c5.891,0,10.657,4.765,10.657,10.655
	S349.054,476.558,343.163,476.558z M257.915,476.558h-63.937c-5.896,0-10.657-4.765-10.657-10.655s4.761-10.655,10.657-10.655
	h63.937c5.895,0,10.656,4.765,10.656,10.655S263.81,476.558,257.915,476.558z M257.915,71.625h21.311v21.312h-21.311V71.625z"/>
</svg>
